NotoSansAdlam-Regular.ufo
<glyph name="equal" format="2">
  <advance width="545"/>
  <unicode hex="003D"/>
  <outline>
    <contour>
      <point x="43" y="416" type="line"/>
      <point x="501" y="416" type="line"/>
      <point x="501" y="487" type="line"/>
      <point x="43" y="487" type="line"/>
    </contour>
    <contour>
      <point x="43" y="217" type="line"/>
      <point x="501" y="217" type="line"/>
      <point x="501" y="288" type="line"/>
      <point x="43" y="288" type="line"/>
    </contour>
  </outline>
</glyph>
<glyph name="braceright" format="2">
  <advance width="380"/>
  <unicode hex="007D"/>
  <outline>
    <contour>
      <point x="32" y="-158" type="line"/>
      <point x="149" y="-158"/>
      <point x="230" y="-106"/>
      <point x="230" y="0" type="curve" smooth="yes"/>
      <point x="230" y="149" type="line" smooth="yes"/>
      <point x="230" y="216"/>
      <point x="273" y="241"/>
      <point x="352" y="242" type="curve"/>
      <point x="352" y="315" type="line"/>
      <point x="273" y="315"/>
      <point x="230" y="341"/>
      <point x="230" y="409" type="curve" smooth="yes"/>
      <point x="230" y="555" type="line" smooth="yes"/>
      <point x="230" y="662"/>
      <point x="155" y="713"/>
      <point x="32" y="714" type="curve"/>
      <point x="32" y="642" type="line"/>
      <point x="103" y="641"/>
      <point x="143" y="614"/>
      <point x="143" y="549" type="curve" smooth="yes"/>
      <point x="143" y="403" type="line" smooth="yes"/>
      <point x="143" y="335"/>
      <point x="178" y="294"/>
      <point x="252" y="281" type="curve"/>
      <point x="252" y="275" type="line"/>
      <point x="179" y="262"/>
      <point x="143" y="221"/>
      <point x="143" y="153" type="curve" smooth="yes"/>
      <point x="143" y="8" type="line" smooth="yes"/>
      <point x="143" y="-57"/>
      <point x="101" y="-84"/>
      <point x="32" y="-86" type="curve"/>
    </contour>
  </outline>
</glyph>
<glyph name="gravecomb" format="2">
  <unicode hex="0300"/>
  <outline>
    <contour>
      <point x="182" y="606" type="curve"/>
      <point x="241" y="606" type="line"/>
      <point x="241" y="618" type="line"/>
      <point x="210" y="655"/>
      <point x="167" y="721"/>
      <point x="145" y="766" type="curve"/>
      <point x="40" y="766" type="line"/>
      <point x="40" y="756" type="line"/>
      <point x="63" y="719"/>
      <point x="136" y="642"/>
    </contour>
  </outline>
</glyph>
<glyph name="acutecomb" format="2">
  <unicode hex="0301"/>
  <note>
acute
</note>
  <outline>
    <contour>
      <point x="40" y="606" type="line"/>
      <point x="98" y="606" type="line"/>
      <point x="141.768" y="638.826"/>
      <point x="214.855" y="719.799"/>
      <point x="241" y="756" type="curve"/>
      <point x="241" y="766" type="line"/>
      <point x="135" y="766" type="line"/>
      <point x="116.363" y="728.727"/>
      <point x="64.482" y="649.477"/>
      <point x="40" y="618" type="curve"/>
    </contour>
  </outline>
</glyph>
<glyph name="endash" format="2">
  <advance width="500"/>
  <unicode hex="2013"/>
  <outline>
    <contour>
      <point x="40" y="229" type="line"/>
      <point x="460" y="229" type="line"/>
      <point x="460" y="307" type="line"/>
      <point x="40" y="307" type="line"/>
    </contour>
  </outline>
</glyph>
<glyph name="Bhe-adlam" format="2">
  <advance width="671"/>
  <unicode hex="1E907"/>
  <anchor x="339" y="663" name="top"/>
  <outline>
    <contour>
      <point x="59" y="0" type="line"/>
      <point x="247" y="0" type="line" smooth="yes"/>
      <point x="285" y="0"/>
      <point x="301" y="0"/>
      <point x="322" y="9" type="curve" smooth="yes"/>
      <point x="364" y="27"/>
      <point x="392" y="67"/>
      <point x="392" y="168" type="curve"/>
      <point x="403" y="196"/>
      <point x="443" y="233"/>
      <point x="466" y="244" type="curve"/>
      <point x="471" y="242" type="line"/>
      <point x="471" y="0" type="line"/>
      <point x="561" y="0" type="line"/>
      <point x="561" y="532" type="line"/>
      <point x="471" y="532" type="line"/>
      <point x="471" y="340" type="line"/>
      <point x="444" y="328"/>
      <point x="389" y="291"/>
      <point x="372" y="260" type="curve"/>
      <point x="369" y="260" type="line"/>
      <point x="352" y="304"/>
      <point x="319" y="339"/>
      <point x="248" y="386" type="curve" smooth="yes"/>
      <point x="179" y="433"/>
      <point x="148" y="477"/>
      <point x="148" y="537" type="curve" smooth="yes"/>
      <point x="148" y="602"/>
      <point x="194" y="635"/>
      <point x="294" y="635" type="curve" smooth="yes"/>
      <point x="561" y="635" type="line"/>
      <point x="561" y="714" type="line"/>
      <point x="294" y="714" type="line" smooth="yes"/>
      <point x="155" y="714"/>
      <point x="55" y="683"/>
      <point x="55" y="538" type="curve" smooth="yes"/>
      <point x="55" y="446"/>
      <point x="100" y="380"/>
      <point x="187" y="324" type="curve" smooth="yes"/>
      <point x="257" y="278"/>
      <point x="303" y="228"/>
      <point x="303" y="141" type="curve" smooth="yes"/>
      <point x="303" y="92"/>
      <point x="280" y="79"/>
      <point x="239" y="79" type="curve" smooth="yes"/>
      <point x="59" y="79" type="line"/>
    </contour>
  </outline>
</glyph>
<glyph name="I-adlam" format="2">
  <advance width="813"/>
  <unicode hex="1E90B"/>
  <anchor x="459" y="557" name="vowellengthencomb-adlam.case"/>
  <outline>
    <contour>
      <point x="401" y="-10" type="curve" smooth="yes"/>
      <point x="595" y="-10"/>
      <point x="703" y="37"/>
      <point x="703" y="233" type="curve" smooth="yes"/>
      <point x="703" y="714" type="line"/>
      <point x="613" y="714" type="line"/>
      <point x="613" y="236" type="line" smooth="yes"/>
      <point x="613" y="114"/>
      <point x="556" y="69"/>
      <point x="407" y="69" type="curve" smooth="yes"/>
      <point x="258" y="69"/>
      <point x="200" y="114"/>
      <point x="200" y="236" type="curve" smooth="yes"/>
      <point x="200" y="714" type="line"/>
      <point x="110" y="714" type="line"/>
      <point x="110" y="233" type="line" smooth="yes"/>
      <point x="110" y="37"/>
      <point x="208" y="-10"/>
    </contour>
  </outline>
</glyph>
<glyph name="Yhe-adlam" format="2">
  <advance width="648"/>
  <unicode hex="1E90E"/>
  <anchor x="345" y="663" name="top"/>
  <outline>
    <contour>
      <point x="341" y="0" type="curve" smooth="yes"/>
      <point x="593" y="0" type="line"/>
      <point x="593" y="79" type="line"/>
      <point x="342" y="79" type="line" smooth="yes"/>
      <point x="242" y="79"/>
      <point x="165" y="152"/>
      <point x="165" y="268" type="curve" smooth="yes"/>
      <point x="165" y="379"/>
      <point x="210" y="449"/>
      <point x="342" y="449" type="curve" smooth="yes"/>
      <point x="583" y="449" type="line"/>
      <point x="583" y="528" type="line"/>
      <point x="520" y="572"/>
      <point x="377" y="696"/>
      <point x="343" y="735" type="curve"/>
      <point x="278" y="677" type="line"/>
      <point x="308" y="645"/>
      <point x="412" y="559"/>
      <point x="452" y="533" type="curve"/>
      <point x="450" y="528" type="line"/>
      <point x="341" y="528" type="line" smooth="yes"/>
      <point x="154" y="528"/>
      <point x="70" y="415"/>
      <point x="70" y="266" type="curve" smooth="yes"/>
      <point x="70" y="94"/>
      <point x="169" y="0"/>
    </contour>
  </outline>
</glyph>
<glyph name="Qaaf-adlam" format="2">
  <advance width="789"/>
  <unicode hex="1E917"/>
  <anchor x="436" y="666" name="top"/>
  <outline>
    <contour>
      <point x="81" y="0" type="line"/>
      <point x="335" y="0" type="line" smooth="yes"/>
      <point x="429" y="0"/>
      <point x="447" y="32"/>
      <point x="447" y="118" type="curve" smooth="yes"/>
      <point x="447" y="275" type="line"/>
      <point x="490" y="275"/>
      <point x="554" y="284"/>
      <point x="589" y="294" type="curve"/>
      <point x="589" y="0" type="line"/>
      <point x="679" y="0" type="line"/>
      <point x="679" y="714" type="line"/>
      <point x="589" y="714" type="line"/>
      <point x="589" y="375" type="line"/>
      <point x="558" y="365"/>
      <point x="493" y="355"/>
      <point x="447" y="354" type="curve"/>
      <point x="447" y="552" type="line" smooth="yes"/>
      <point x="447" y="675"/>
      <point x="391" y="724"/>
      <point x="289" y="724" type="curve" smooth="yes"/>
      <point x="163" y="724"/>
      <point x="70" y="651"/>
      <point x="70" y="513" type="curve" smooth="yes"/>
      <point x="70" y="358"/>
      <point x="184" y="285"/>
      <point x="357" y="275" type="curve"/>
      <point x="357" y="137" type="line" smooth="yes"/>
      <point x="357" y="95"/>
      <point x="348" y="79"/>
      <point x="308" y="79" type="curve" smooth="yes"/>
      <point x="81" y="79" type="line"/>
    </contour>
    <contour>
      <point x="357" y="354" type="line"/>
      <point x="248" y="365"/>
      <point x="163" y="407"/>
      <point x="163" y="516" type="curve" smooth="yes"/>
      <point x="163" y="598"/>
      <point x="209" y="645"/>
      <point x="279" y="645" type="curve" smooth="yes"/>
      <point x="336" y="645"/>
      <point x="357" y="612"/>
      <point x="357" y="545" type="curve" smooth="yes"/>
    </contour>
  </outline>
</glyph>
<glyph name="Ga-adlam" format="2">
  <advance width="652"/>
  <unicode hex="1E918"/>
  <anchor x="330" y="663" name="gemconsonanttop"/>
  <anchor x="317" y="663" name="top"/>
  <outline>
    <contour>
      <point x="75" y="0" type="line"/>
      <point x="350" y="0" type="line" smooth="yes"/>
      <point x="483" y="0"/>
      <point x="562" y="48"/>
      <point x="562" y="189" type="curve" smooth="yes"/>
      <point x="562" y="327"/>
      <point x="482" y="365"/>
      <point x="435" y="377" type="curve"/>
      <point x="435" y="383" type="line"/>
      <point x="493" y="404"/>
      <point x="550" y="464"/>
      <point x="550" y="559" type="curve" smooth="yes"/>
      <point x="550" y="683"/>
      <point x="488" y="714"/>
      <point x="375" y="714" type="curve" smooth="yes"/>
      <point x="296" y="714" type="line"/>
      <point x="296" y="635" type="line"/>
      <point x="375" y="635" type="line" smooth="yes"/>
      <point x="425" y="635"/>
      <point x="460" y="615"/>
      <point x="460" y="546" type="curve" smooth="yes"/>
      <point x="460" y="466"/>
      <point x="409" y="411"/>
      <point x="282" y="411" type="curve" smooth="yes"/>
      <point x="186" y="411"/>
      <point x="175" y="421"/>
      <point x="175" y="475" type="curve" smooth="yes"/>
      <point x="174" y="714" type="line"/>
      <point x="84" y="714" type="line"/>
      <point x="84" y="473" type="line" smooth="yes"/>
      <point x="84" y="346"/>
      <point x="99" y="332"/>
      <point x="275" y="332" type="curve" smooth="yes"/>
      <point x="403" y="332"/>
      <point x="469" y="302"/>
      <point x="469" y="189" type="curve" smooth="yes"/>
      <point x="469" y="114"/>
      <point x="426" y="79"/>
      <point x="347" y="79" type="curve" smooth="yes"/>
      <point x="75" y="79" type="line"/>
    </contour>
  </outline>
</glyph>
<glyph name="Nha-adlam" format="2">
  <advance width="738"/>
  <unicode hex="1E91B"/>
  <anchor x="392" y="663" name="top"/>
  <outline>
    <contour>
      <point x="230" y="-24" type="curve"/>
      <point x="250" y="54" type="line"/>
      <point x="206" y="64"/>
      <point x="138" y="84"/>
      <point x="138" y="184" type="curve" smooth="yes"/>
      <point x="138" y="279"/>
      <point x="196" y="315"/>
      <point x="342" y="348" type="curve"/>
      <point x="342" y="118" type="line" smooth="yes"/>
      <point x="342" y="32"/>
      <point x="360" y="0"/>
      <point x="458" y="0" type="curve" smooth="yes"/>
      <point x="648" y="0" type="line"/>
      <point x="648" y="79" type="line"/>
      <point x="482" y="79" type="line" smooth="yes"/>
      <point x="441" y="79"/>
      <point x="432" y="95"/>
      <point x="432" y="137" type="curve" smooth="yes"/>
      <point x="432" y="366" type="line"/>
      <point x="594" y="399"/>
      <point x="668" y="434"/>
      <point x="668" y="553" type="curve" smooth="yes"/>
      <point x="668" y="661"/>
      <point x="607" y="714"/>
      <point x="435" y="714" type="curve" smooth="yes"/>
      <point x="365" y="714" type="line" smooth="yes"/>
      <point x="202" y="714"/>
      <point x="140" y="658"/>
      <point x="118" y="618" type="curve"/>
      <point x="178" y="570" type="line"/>
      <point x="193" y="595"/>
      <point x="226" y="630"/>
      <point x="342" y="635" type="curve"/>
      <point x="342" y="426" type="line"/>
      <point x="147" y="388"/>
      <point x="45" y="326"/>
      <point x="45" y="180" type="curve" smooth="yes"/>
      <point x="45" y="39"/>
      <point x="143" y="-10"/>
    </contour>
    <contour>
      <point x="432" y="445" type="curve"/>
      <point x="432" y="635" type="line"/>
      <point x="533" y="635"/>
      <point x="575" y="610"/>
      <point x="575" y="550" type="curve" smooth="yes"/>
      <point x="575" y="488"/>
      <point x="546" y="470"/>
    </contour>
  </outline>
</glyph>
<glyph name="Gbe-adlam" format="2">
  <advance width="666"/>
  <unicode hex="1E91E"/>
  <anchor x="366" y="663" name="top"/>
  <outline>
    <contour>
      <point x="110" y="0" type="line"/>
      <point x="200" y="0" type="line"/>
      <point x="200" y="148" type="line"/>
      <point x="287" y="148" type="line"/>
      <point x="291" y="53"/>
      <point x="336" y="0"/>
      <point x="488" y="0" type="curve" smooth="yes"/>
      <point x="610" y="0" type="line"/>
      <point x="610" y="79" type="line"/>
      <point x="493" y="79" type="line" smooth="yes"/>
      <point x="405" y="79"/>
      <point x="380" y="107"/>
      <point x="380" y="162" type="curve" smooth="yes"/>
      <point x="380" y="225"/>
      <point x="404" y="264"/>
      <point x="488" y="328" type="curve" smooth="yes"/>
      <point x="574" y="393"/>
      <point x="616" y="437"/>
      <point x="616" y="538" type="curve" smooth="yes"/>
      <point x="616" y="683"/>
      <point x="516" y="714"/>
      <point x="377" y="714" type="curve" smooth="yes"/>
      <point x="110" y="714" type="line"/>
      <point x="110" y="635" type="line"/>
      <point x="377" y="635" type="line" smooth="yes"/>
      <point x="477" y="635"/>
      <point x="523" y="602"/>
      <point x="523" y="537" type="curve" smooth="yes"/>
      <point x="523" y="464"/>
      <point x="480" y="427"/>
      <point x="413" y="376" type="curve" smooth="yes"/>
      <point x="344" y="324"/>
      <point x="309" y="285"/>
      <point x="293" y="223" type="curve"/>
      <point x="200" y="223" type="line"/>
      <point x="200" y="556" type="line"/>
      <point x="110" y="556" type="line"/>
    </contour>
  </outline>
</glyph>
<glyph name="Kpo-adlam" format="2">
  <advance width="669"/>
  <unicode hex="1E920"/>
  <anchor x="359" y="666" name="top"/>
  <outline>
    <contour>
      <point x="222" y="0" type="curve" smooth="yes"/>
      <point x="608" y="0" type="line"/>
      <point x="608" y="79" type="line"/>
      <point x="249" y="79" type="line" smooth="yes"/>
      <point x="209" y="79"/>
      <point x="200" y="95"/>
      <point x="200" y="137" type="curve" smooth="yes"/>
      <point x="200" y="593" type="line"/>
      <point x="222" y="619"/>
      <point x="273" y="650"/>
      <point x="359" y="650" type="curve" smooth="yes"/>
      <point x="443" y="650"/>
      <point x="521" y="611"/>
      <point x="521" y="477" type="curve" smooth="yes"/>
      <point x="521" y="356"/>
      <point x="443" y="315"/>
      <point x="374" y="315" type="curve" smooth="yes"/>
      <point x="322" y="315"/>
      <point x="297" y="332"/>
      <point x="284" y="342" type="curve"/>
      <point x="248" y="271" type="line"/>
      <point x="261" y="259"/>
      <point x="289" y="236"/>
      <point x="373" y="236" type="curve" smooth="yes"/>
      <point x="495" y="236"/>
      <point x="614" y="291"/>
      <point x="614" y="482" type="curve" smooth="yes"/>
      <point x="614" y="677"/>
      <point x="497" y="729"/>
      <point x="360" y="729" type="curve" smooth="yes"/>
      <point x="213" y="729"/>
      <point x="142" y="673"/>
      <point x="110" y="634" type="curve"/>
      <point x="110" y="118" type="line" smooth="yes"/>
      <point x="110" y="32"/>
      <point x="128" y="0"/>
    </contour>
  </outline>
</glyph>
<glyph name="Sha-adlam" format="2">
  <advance width="884"/>
  <unicode hex="1E921"/>
  <anchor x="450" y="663" name="top"/>
  <outline>
    <contour>
      <point x="292" y="-10" type="curve" smooth="yes"/>
      <point x="408" y="-10"/>
      <point x="478" y="42"/>
      <point x="478" y="183" type="curve" smooth="yes"/>
      <point x="478" y="297" type="line"/>
      <point x="674" y="297" type="line"/>
      <point x="674" y="0" type="line"/>
      <point x="764" y="0" type="line"/>
      <point x="764" y="596" type="line" smooth="yes"/>
      <point x="764" y="682"/>
      <point x="747" y="714"/>
      <point x="653" y="714" type="curve" smooth="yes"/>
      <point x="388" y="714" type="line"/>
      <point x="388" y="635" type="line"/>
      <point x="625" y="635" type="line" smooth="yes"/>
      <point x="665" y="635"/>
      <point x="674" y="619"/>
      <point x="674" y="577" type="curve" smooth="yes"/>
      <point x="674" y="376" type="line"/>
      <point x="478" y="376" type="line"/>
      <point x="478" y="544" type="line"/>
      <point x="388" y="544" type="line"/>
      <point x="388" y="183" type="line" smooth="yes"/>
      <point x="388" y="102"/>
      <point x="354" y="69"/>
      <point x="292" y="69" type="curve" smooth="yes"/>
      <point x="230" y="69"/>
      <point x="206" y="104"/>
      <point x="200" y="121" type="curve"/>
      <point x="200" y="714" type="line"/>
      <point x="110" y="714" type="line"/>
      <point x="110" y="94" type="line"/>
      <point x="118" y="74"/>
      <point x="160" y="-10"/>
    </contour>
  </outline>
</glyph>
<glyph name="e-adlam" format="2">
  <advance width="680"/>
  <unicode hex="1E92B"/>
  <anchor x="333" y="0" name="bottom"/>
  <anchor x="340" y="565" name="top"/>
  <outline>
    <contour>
      <point x="536" y="-63" type="line"/>
      <point x="555" y="-47"/>
      <point x="620" y="12"/>
      <point x="620" y="115" type="curve" smooth="yes"/>
      <point x="620" y="239"/>
      <point x="544" y="270"/>
      <point x="496" y="281" type="curve"/>
      <point x="496" y="286" type="line"/>
      <point x="538" y="317"/>
      <point x="580" y="350"/>
      <point x="580" y="434" type="curve" smooth="yes"/>
      <point x="580" y="533"/>
      <point x="517" y="585"/>
      <point x="355" y="585" type="curve" smooth="yes"/>
      <point x="190" y="585"/>
      <point x="100" y="526"/>
      <point x="100" y="354" type="curve" smooth="yes"/>
      <point x="100" y="0" type="line"/>
      <point x="188" y="0" type="line"/>
      <point x="188" y="356" type="line" smooth="yes"/>
      <point x="188" y="465"/>
      <point x="239" y="511"/>
      <point x="353" y="511" type="curve" smooth="yes"/>
      <point x="454" y="511"/>
      <point x="489" y="481"/>
      <point x="489" y="430" type="curve" smooth="yes"/>
      <point x="489" y="374"/>
      <point x="453" y="350"/>
      <point x="377" y="299" type="curve" smooth="yes"/>
      <point x="303" y="249"/>
      <point x="240" y="205"/>
      <point x="240" y="124" type="curve" smooth="yes"/>
      <point x="240" y="28"/>
      <point x="297" y="0"/>
      <point x="380" y="0" type="curve" smooth="yes"/>
      <point x="473" y="0" type="line"/>
      <point x="473" y="74" type="line"/>
      <point x="384" y="74" type="line" smooth="yes"/>
      <point x="351" y="74"/>
      <point x="331" y="85"/>
      <point x="331" y="124" type="curve" smooth="yes"/>
      <point x="331" y="170"/>
      <point x="366" y="200"/>
      <point x="412" y="233" type="curve"/>
      <point x="469" y="224"/>
      <point x="529" y="183"/>
      <point x="529" y="101" type="curve" smooth="yes"/>
      <point x="529" y="38"/>
      <point x="498" y="-13"/>
      <point x="484" y="-29" type="curve"/>
    </contour>
  </outline>
</glyph>
<glyph name="o-adlam" format="2">
  <advance width="621"/>
  <unicode hex="1E92E"/>
  <anchor x="332" y="0" name="bottom"/>
  <anchor x="342" y="565" name="top"/>
  <outline>
    <contour>
      <point x="361" y="0" type="curve" smooth="yes"/>
      <point x="556" y="0" type="line"/>
      <point x="556" y="74" type="line"/>
      <point x="361" y="74" type="line" smooth="yes"/>
      <point x="284" y="74"/>
      <point x="161" y="106"/>
      <point x="161" y="293" type="curve" smooth="yes"/>
      <point x="161" y="437"/>
      <point x="232" y="511"/>
      <point x="328" y="511" type="curve" smooth="yes"/>
      <point x="419" y="511"/>
      <point x="462" y="434"/>
      <point x="481" y="397" type="curve"/>
      <point x="561" y="439" type="line"/>
      <point x="533" y="498"/>
      <point x="481" y="585"/>
      <point x="328" y="585" type="curve" smooth="yes"/>
      <point x="184" y="585"/>
      <point x="70" y="496"/>
      <point x="70" y="288" type="curve" smooth="yes"/>
      <point x="70" y="42"/>
      <point x="228" y="0"/>
    </contour>
  </outline>
</glyph>
<glyph name="dha-adlam" format="2">
  <advance width="737"/>
  <unicode hex="1E92F"/>
  <anchor x="358" y="640" name="top"/>
  <outline>
    <contour>
      <point x="363" y="-10" type="curve" smooth="yes"/>
      <point x="562" y="-10"/>
      <point x="627" y="69"/>
      <point x="627" y="238" type="curve" smooth="yes"/>
      <point x="627" y="714" type="line"/>
      <point x="539" y="714" type="line"/>
      <point x="539" y="484" type="line"/>
      <point x="534" y="482" type="line"/>
      <point x="518" y="511"/>
      <point x="478" y="564"/>
      <point x="372" y="564" type="curve" smooth="yes"/>
      <point x="266" y="564"/>
      <point x="219" y="506"/>
      <point x="204" y="482" type="curve"/>
      <point x="199" y="484" type="line"/>
      <point x="198" y="575" type="line"/>
      <point x="110" y="575" type="line"/>
      <point x="110" y="238" type="line" smooth="yes"/>
      <point x="110" y="69"/>
      <point x="166" y="-10"/>
    </contour>
    <contour>
      <point x="368" y="64" type="curve" smooth="yes"/>
      <point x="240" y="64"/>
      <point x="198" y="120"/>
      <point x="198" y="228" type="curve" smooth="yes"/>
      <point x="198" y="277" type="line" smooth="yes"/>
      <point x="198" y="388"/>
      <point x="233" y="490"/>
      <point x="371" y="490" type="curve" smooth="yes"/>
      <point x="493" y="490"/>
      <point x="539" y="397"/>
      <point x="539" y="285" type="curve" smooth="yes"/>
      <point x="539" y="228" type="line" smooth="yes"/>
      <point x="539" y="120"/>
      <point x="496" y="64"/>
    </contour>
  </outline>
</glyph>
<glyph name="nun-adlam" format="2">
  <advance width="519"/>
  <unicode hex="1E932"/>
  <anchor x="268" y="565" name="top"/>
  <outline>
    <contour>
      <point x="246" y="0" type="curve" smooth="yes"/>
      <point x="444" y="0" type="line"/>
      <point x="444" y="74" type="line"/>
      <point x="247" y="74" type="line" smooth="yes"/>
      <point x="179" y="74"/>
      <point x="146" y="98"/>
      <point x="146" y="163" type="curve" smooth="yes"/>
      <point x="146" y="225"/>
      <point x="185" y="250"/>
      <point x="289" y="275" type="curve" smooth="yes"/>
      <point x="393" y="300"/>
      <point x="464" y="327"/>
      <point x="464" y="435" type="curve" smooth="yes"/>
      <point x="464" y="530"/>
      <point x="407" y="585"/>
      <point x="248" y="585" type="curve" smooth="yes"/>
      <point x="171" y="585"/>
      <point x="115" y="570"/>
      <point x="93" y="560" type="curve"/>
      <point x="116" y="489" type="line"/>
      <point x="136" y="498"/>
      <point x="185" y="511"/>
      <point x="248" y="511" type="curve" smooth="yes"/>
      <point x="345" y="511"/>
      <point x="373" y="476"/>
      <point x="373" y="433" type="curve" smooth="yes"/>
      <point x="373" y="379"/>
      <point x="337" y="364"/>
      <point x="243" y="341" type="curve" smooth="yes"/>
      <point x="119" y="311"/>
      <point x="55" y="271"/>
      <point x="55" y="161" type="curve" smooth="yes"/>
      <point x="55" y="35"/>
      <point x="137" y="0"/>
    </contour>
  </outline>
</glyph>
<glyph name="tu-adlam" format="2">
  <advance width="823"/>
  <unicode hex="1E93C"/>
  <anchor x="405" y="565" name="gemconsonanttop"/>
  <anchor x="418" y="565" name="top"/>
  <outline>
    <contour>
      <point x="100" y="-130" type="line"/>
      <point x="188" y="-130" type="line"/>
      <point x="188" y="363" type="line" smooth="yes"/>
      <point x="188" y="466"/>
      <point x="220" y="511"/>
      <point x="282" y="511" type="curve" smooth="yes"/>
      <point x="329" y="511"/>
      <point x="357" y="481"/>
      <point x="370" y="456" type="curve"/>
      <point x="370" y="119" type="line" smooth="yes"/>
      <point x="370" y="27"/>
      <point x="382" y="0"/>
      <point x="486" y="0" type="curve" smooth="yes"/>
      <point x="728" y="0" type="line"/>
      <point x="728" y="74" type="line"/>
      <point x="521" y="74" type="line" smooth="yes"/>
      <point x="465" y="74"/>
      <point x="458" y="87"/>
      <point x="458" y="141" type="curve" smooth="yes"/>
      <point x="458" y="458" type="line"/>
      <point x="468" y="477"/>
      <point x="497" y="511"/>
      <point x="551" y="511" type="curve" smooth="yes"/>
      <point x="617" y="511"/>
      <point x="650" y="455"/>
      <point x="650" y="363" type="curve" smooth="yes"/>
      <point x="650" y="270"/>
      <point x="615" y="207"/>
      <point x="572" y="169" type="curve"/>
      <point x="633" y="112" type="line"/>
      <point x="693" y="157"/>
      <point x="738" y="244"/>
      <point x="738" y="363" type="curve" smooth="yes"/>
      <point x="738" y="508"/>
      <point x="693" y="585"/>
      <point x="566" y="585" type="curve" smooth="yes"/>
      <point x="483" y="585"/>
      <point x="441" y="545"/>
      <point x="419" y="513" type="curve"/>
      <point x="414" y="513" type="line"/>
      <point x="396" y="544"/>
      <point x="358" y="585"/>
      <point x="276" y="585" type="curve" smooth="yes"/>
      <point x="161" y="585"/>
      <point x="100" y="518"/>
      <point x="100" y="372" type="curve" smooth="yes"/>
    </contour>
  </outline>
</glyph>
<glyph name="gbe-adlam" format="2">
  <advance width="571"/>
  <unicode hex="1E940"/>
  <anchor x="291" y="581" name="top"/>
  <outline>
    <contour>
      <point x="223" y="0" type="curve" smooth="yes"/>
      <point x="493" y="0" type="line"/>
      <point x="493" y="74" type="line"/>
      <point x="258" y="74" type="line" smooth="yes"/>
      <point x="203" y="74"/>
      <point x="195" y="86"/>
      <point x="195" y="140" type="curve" smooth="yes"/>
      <point x="195" y="238" type="line"/>
      <point x="200" y="240" type="line"/>
      <point x="216" y="222"/>
      <point x="254" y="196"/>
      <point x="332" y="196" type="curve" smooth="yes"/>
      <point x="417" y="196"/>
      <point x="496" y="243"/>
      <point x="496" y="352" type="curve" smooth="yes"/>
      <point x="496" y="456"/>
      <point x="430" y="497"/>
      <point x="332" y="547" type="curve" smooth="yes"/>
      <point x="247" y="590"/>
      <point x="187" y="629"/>
      <point x="156" y="665" type="curve"/>
      <point x="105" y="604" type="line"/>
      <point x="143" y="561"/>
      <point x="195" y="529"/>
      <point x="292" y="479" type="curve" smooth="yes"/>
      <point x="379" y="434"/>
      <point x="412" y="412"/>
      <point x="412" y="349" type="curve" smooth="yes"/>
      <point x="412" y="293"/>
      <point x="373" y="270"/>
      <point x="310" y="270" type="curve" smooth="yes"/>
      <point x="244" y="270"/>
      <point x="211" y="295"/>
      <point x="195" y="315" type="curve"/>
      <point x="195" y="441" type="line"/>
      <point x="107" y="441" type="line"/>
      <point x="107" y="122" type="line" smooth="yes"/>
      <point x="107" y="30"/>
      <point x="119" y="0"/>
    </contour>
  </outline>
</glyph>
<glyph name="zal-adlam" format="2">
  <advance width="777"/>
  <unicode hex="1E941"/>
  <anchor x="386" y="565" name="top"/>
  <outline>
    <contour>
      <point x="90" y="0" type="line"/>
      <point x="290" y="0" type="line" smooth="yes"/>
      <point x="353" y="0"/>
      <point x="371" y="29"/>
      <point x="381" y="45" type="curve"/>
      <point x="386" y="45" type="line"/>
      <point x="394" y="30"/>
      <point x="411" y="0"/>
      <point x="476" y="0" type="curve" smooth="yes"/>
      <point x="675" y="0" type="line"/>
      <point x="675" y="74" type="line"/>
      <point x="490" y="74" type="line" smooth="yes"/>
      <point x="441" y="74"/>
      <point x="427" y="89"/>
      <point x="427" y="123" type="curve" smooth="yes"/>
      <point x="427" y="398" type="line" smooth="yes"/>
      <point x="427" y="473"/>
      <point x="455" y="511"/>
      <point x="510" y="511" type="curve" smooth="yes"/>
      <point x="564" y="511"/>
      <point x="587" y="479"/>
      <point x="587" y="398" type="curve" smooth="yes"/>
      <point x="587" y="287" type="line" smooth="yes"/>
      <point x="587" y="246"/>
      <point x="592" y="191"/>
      <point x="616" y="166" type="curve"/>
      <point x="697" y="195" type="line"/>
      <point x="678" y="216"/>
      <point x="675" y="247"/>
      <point x="675" y="287" type="curve" smooth="yes"/>
      <point x="675" y="421" type="line" smooth="yes"/>
      <point x="675" y="532"/>
      <point x="632" y="585"/>
      <point x="519" y="585" type="curve" smooth="yes"/>
      <point x="439" y="585"/>
      <point x="406" y="548"/>
      <point x="388" y="510" type="curve"/>
      <point x="383" y="510" type="line"/>
      <point x="368" y="549"/>
      <point x="332" y="585"/>
      <point x="257" y="585" type="curve" smooth="yes"/>
      <point x="157" y="585"/>
      <point x="106" y="534"/>
      <point x="90" y="501" type="curve"/>
      <point x="90" y="174" type="line"/>
      <point x="178" y="174" type="line"/>
      <point x="178" y="476" type="line"/>
      <point x="189" y="492"/>
      <point x="217" y="511"/>
      <point x="257" y="511" type="curve" smooth="yes"/>
      <point x="315" y="511"/>
      <point x="339" y="473"/>
      <point x="339" y="396" type="curve" smooth="yes"/>
      <point x="339" y="123" type="line" smooth="yes"/>
      <point x="339" y="89"/>
      <point x="325" y="74"/>
      <point x="275" y="74" type="curve" smooth="yes"/>
      <point x="90" y="74" type="line"/>
    </contour>
  </outline>
</glyph>
<glyph name="sha-adlam" format="2">
  <advance width="810"/>
  <unicode hex="1E943"/>
  <anchor x="407" y="0" name="bottom"/>
  <anchor x="407" y="590" name="top"/>
  <outline>
    <contour>
      <point x="270" y="-10" type="curve" smooth="yes"/>
      <point x="400" y="-10"/>
      <point x="447" y="49"/>
      <point x="447" y="181" type="curve" smooth="yes"/>
      <point x="447" y="261" type="line"/>
      <point x="611" y="261" type="line"/>
      <point x="611" y="0" type="line"/>
      <point x="699" y="0" type="line"/>
      <point x="699" y="575" type="line"/>
      <point x="611" y="575" type="line"/>
      <point x="611" y="335" type="line"/>
      <point x="447" y="335" type="line"/>
      <point x="447" y="575" type="line"/>
      <point x="360" y="575" type="line"/>
      <point x="360" y="187" type="line" smooth="yes"/>
      <point x="360" y="96"/>
      <point x="338" y="64"/>
      <point x="274" y="64" type="curve" smooth="yes"/>
      <point x="210" y="64"/>
      <point x="188" y="93"/>
      <point x="188" y="186" type="curve" smooth="yes"/>
      <point x="188" y="666" type="line"/>
      <point x="100" y="666" type="line"/>
      <point x="100" y="179" type="line" smooth="yes"/>
      <point x="100" y="46"/>
      <point x="147" y="-10"/>
    </contour>
  </outline>
</glyph>
<glyph name="aliflengthencomb-adlam" format="2">
  <unicode hex="1E944"/>
  <anchor x="20" y="612" name="_topAlif"/>
  <outline>
    <contour>
      <point x="276" y="616" type="line"/>
      <point x="348" y="616" type="line"/>
      <point x="348" y="650" type="line"/>
      <point x="479" y="781" type="line"/>
      <point x="431" y="829" type="line"/>
      <point x="402" y="799" type="line" smooth="yes"/>
      <point x="376" y="773"/>
      <point x="355" y="749"/>
      <point x="347" y="737" type="curve"/>
      <point x="342" y="737" type="line"/>
      <point x="342" y="779"/>
      <point x="315" y="805"/>
      <point x="273" y="805" type="curve" smooth="yes"/>
      <point x="20" y="805" type="line"/>
      <point x="20" y="735" type="line"/>
      <point x="219" y="735" type="line" smooth="yes"/>
      <point x="260" y="735"/>
      <point x="276" y="724"/>
      <point x="276" y="683" type="curve" smooth="yes"/>
    </contour>
  </outline>
</glyph>
<glyph name="hoortobbhere-adlam" format="2">
  <unicode hex="1E94A"/>
  <anchor x="86" y="470" name="_top"/>
  <outline>
    <contour>
      <point x="86" y="611" type="curve" smooth="yes"/>
      <point x="123" y="611"/>
      <point x="151" y="629"/>
      <point x="151" y="670" type="curve" smooth="yes"/>
      <point x="151" y="710"/>
      <point x="124" y="730"/>
      <point x="86" y="730" type="curve" smooth="yes"/>
      <point x="48" y="730"/>
      <point x="20" y="710"/>
      <point x="20" y="670" type="curve" smooth="yes"/>
      <point x="20" y="628"/>
      <point x="49" y="611"/>
    </contour>
  </outline>
</glyph>
<glyph name="Alif-adlam.medi" format="2">
  <advance width="714"/>
  <anchor x="365" y="663" name="gemconsonanttop"/>
  <anchor x="351" y="663" name="top"/>
  <anchor x="320" y="745" name="topAlif"/>
  <outline>
    <contour>
      <point x="358" y="-10" type="curve" smooth="yes"/>
      <point x="444" y="-10"/>
      <point x="511" y="12"/>
      <point x="559" y="48" type="curve"/>
      <point x="565" y="48" type="line"/>
      <point x="576" y="12"/>
      <point x="603" y="0"/>
      <point x="663" y="0" type="curve" smooth="yes"/>
      <point x="714" y="0" type="line" smooth="yes"/>
      <point x="744" y="0"/>
      <point x="754" y="12"/>
      <point x="754" y="48" type="curve" smooth="yes"/>
      <point x="754" y="74" type="line"/>
      <point x="690" y="74" type="line" smooth="yes"/>
      <point x="649" y="74"/>
      <point x="640" y="90"/>
      <point x="640" y="132" type="curve" smooth="yes"/>
      <point x="640" y="219" type="line"/>
      <point x="638" y="313"/>
      <point x="590" y="352"/>
      <point x="566" y="366" type="curve"/>
      <point x="566" y="370" type="line"/>
      <point x="584" y="373"/>
      <point x="623" y="385"/>
      <point x="640" y="398" type="curve"/>
      <point x="613" y="471" type="line"/>
      <point x="591" y="458"/>
      <point x="519" y="433"/>
      <point x="434" y="433" type="curve" smooth="yes"/>
      <point x="371" y="433"/>
      <point x="322" y="442"/>
      <point x="299" y="453" type="curve"/>
      <point x="278" y="376" type="line"/>
      <point x="297" y="366"/>
      <point x="352" y="358"/>
      <point x="418" y="352" type="curve" smooth="yes"/>
      <point x="496" y="345"/>
      <point x="547" y="306"/>
      <point x="547" y="213" type="curve" smooth="yes"/>
      <point x="547" y="119"/>
      <point x="471" y="69"/>
      <point x="360" y="69" type="curve" smooth="yes"/>
      <point x="253" y="69"/>
      <point x="200" y="108"/>
      <point x="200" y="249" type="curve" smooth="yes"/>
      <point x="200" y="577" type="line" smooth="yes"/>
      <point x="200" y="619"/>
      <point x="209" y="635"/>
      <point x="249" y="635" type="curve" smooth="yes"/>
      <point x="540" y="635" type="line"/>
      <point x="543" y="639" type="line"/>
      <point x="497" y="714" type="line"/>
      <point x="222" y="714" type="line" smooth="yes"/>
      <point x="128" y="714"/>
      <point x="110" y="682"/>
      <point x="110" y="596" type="curve" smooth="yes"/>
      <point x="110" y="132" type="line" smooth="yes"/>
      <point x="110" y="90"/>
      <point x="101" y="74"/>
      <point x="60" y="74" type="curve" smooth="yes"/>
      <point x="-40" y="74" type="line"/>
      <point x="-40" y="48" type="line" smooth="yes"/>
      <point x="-40" y="12"/>
      <point x="-30" y="0"/>
      <point x="0" y="0" type="curve" smooth="yes"/>
      <point x="81" y="0" type="line" smooth="yes"/>
      <point x="135" y="0"/>
      <point x="163" y="18"/>
      <point x="172" y="37" type="curve"/>
      <point x="178" y="37" type="line"/>
      <point x="217" y="7"/>
      <point x="266" y="-10"/>
    </contour>
  </outline>
</glyph>
<glyph name="Ba-adlam.isol" format="2">
  <advance width="768"/>
  <anchor x="375" y="663" name="top"/>
  <outline>
    <contour>
      <point x="110" y="0" type="line"/>
      <point x="200" y="0" type="line"/>
      <point x="200" y="272" type="line"/>
      <point x="230" y="262"/>
      <point x="308" y="253"/>
      <point x="351" y="253" type="curve"/>
      <point x="351" y="118" type="line" smooth="yes"/>
      <point x="351" y="32"/>
      <point x="369" y="0"/>
      <point x="464" y="0" type="curve" smooth="yes"/>
      <point x="713" y="0" type="line"/>
      <point x="713" y="79" type="line"/>
      <point x="491" y="79" type="line" smooth="yes"/>
      <point x="450" y="79"/>
      <point x="441" y="95"/>
      <point x="441" y="137" type="curve" smooth="yes"/>
      <point x="441" y="253" type="line"/>
      <point x="625" y="267"/>
      <point x="718" y="355"/>
      <point x="718" y="512" type="curve" smooth="yes"/>
      <point x="718" y="665"/>
      <point x="629" y="724"/>
      <point x="501" y="724" type="curve" smooth="yes"/>
      <point x="425" y="724"/>
      <point x="371" y="707"/>
      <point x="351" y="694" type="curve"/>
      <point x="351" y="332" type="line"/>
      <point x="305" y="333"/>
      <point x="227" y="346"/>
      <point x="200" y="357" type="curve"/>
      <point x="200" y="714" type="line"/>
      <point x="110" y="714" type="line"/>
    </contour>
    <contour>
      <point x="441" y="332" type="curve"/>
      <point x="441" y="636" type="line"/>
      <point x="451" y="641"/>
      <point x="473" y="645"/>
      <point x="501" y="645" type="curve" smooth="yes"/>
      <point x="568" y="645"/>
      <point x="625" y="608"/>
      <point x="625" y="506" type="curve" smooth="yes"/>
      <point x="625" y="393"/>
      <point x="563" y="343"/>
    </contour>
  </outline>
</glyph>
<glyph name="Daali-adlam.init" format="2">
  <advance width="636"/>
  <anchor x="309" y="663" name="gemconsonanttop"/>
  <anchor x="304" y="663" name="top"/>
  <outline>
    <contour>
      <point x="0" y="0" type="curve" smooth="yes"/>
      <point x="414" y="0" type="line" smooth="yes"/>
      <point x="508" y="0"/>
      <point x="526" y="32"/>
      <point x="526" y="118" type="curve" smooth="yes"/>
      <point x="526" y="714" type="line"/>
      <point x="436" y="714" type="line"/>
      <point x="436" y="304" type="line"/>
      <point x="433" y="302" type="line"/>
      <point x="421" y="313"/>
      <point x="387" y="329"/>
      <point x="287" y="350" type="curve" smooth="yes"/>
      <point x="190" y="370"/>
      <point x="171" y="388"/>
      <point x="171" y="464" type="curve" smooth="yes"/>
      <point x="171" y="714" type="line"/>
      <point x="81" y="714" type="line"/>
      <point x="81" y="454" type="line" smooth="yes"/>
      <point x="81" y="321"/>
      <point x="132" y="296"/>
      <point x="257" y="272" type="curve" smooth="yes"/>
      <point x="389" y="247"/>
      <point x="436" y="219"/>
      <point x="436" y="156" type="curve" smooth="yes"/>
      <point x="436" y="132" type="line" smooth="yes"/>
      <point x="436" y="90"/>
      <point x="427" y="74"/>
      <point x="387" y="74" type="curve" smooth="yes"/>
      <point x="-40" y="74" type="line"/>
      <point x="-40" y="48" type="line" smooth="yes"/>
      <point x="-40" y="12"/>
      <point x="-30" y="0"/>
    </contour>
  </outline>
</glyph>
<glyph name="Dha-adlam.isol" format="2">
  <advance width="724"/>
  <anchor x="352" y="663" name="top"/>
  <outline>
    <contour>
      <point x="336" y="-15" type="curve" smooth="yes"/>
      <point x="452" y="-15"/>
      <point x="501" y="36"/>
      <point x="519" y="62" type="curve"/>
      <point x="524" y="61" type="line"/>
      <point x="524" y="0" type="line"/>
      <point x="614" y="0" type="line"/>
      <point x="614" y="597" type="line" smooth="yes"/>
      <point x="614" y="683"/>
      <point x="596" y="714"/>
      <point x="502" y="714" type="curve" smooth="yes"/>
      <point x="304" y="714" type="line"/>
      <point x="304" y="635" type="line"/>
      <point x="475" y="635" type="line" smooth="yes"/>
      <point x="515" y="635"/>
      <point x="524" y="619"/>
      <point x="524" y="576" type="curve" smooth="yes"/>
      <point x="524" y="441" type="line"/>
      <point x="520" y="439" type="line"/>
      <point x="492" y="476"/>
      <point x="443" y="501"/>
      <point x="358" y="501" type="curve" smooth="yes"/>
      <point x="269" y="501"/>
      <point x="209" y="468"/>
      <point x="184" y="439" type="curve"/>
      <point x="180" y="440" type="line"/>
      <point x="180" y="714" type="line"/>
      <point x="90" y="714" type="line"/>
      <point x="90" y="255" type="line" smooth="yes"/>
      <point x="90" y="66"/>
      <point x="180" y="-15"/>
    </contour>
    <contour>
      <point x="347" y="64" type="curve" smooth="yes"/>
      <point x="235" y="64"/>
      <point x="180" y="133"/>
      <point x="180" y="259" type="curve" smooth="yes"/>
      <point x="180" y="338" type="line"/>
      <point x="200" y="372"/>
      <point x="253" y="422"/>
      <point x="357" y="422" type="curve" smooth="yes"/>
      <point x="454" y="422"/>
      <point x="510" y="372"/>
      <point x="524" y="300" type="curve"/>
      <point x="524" y="179" type="line"/>
      <point x="506" y="131"/>
      <point x="467" y="64"/>
    </contour>
  </outline>
</glyph>
<glyph name="Dha-adlam.medi" format="2">
  <advance width="724"/>
  <anchor x="352" y="663" name="top"/>
  <outline>
    <contour>
      <point x="336" y="-15" type="curve" smooth="yes"/>
      <point x="452" y="-15"/>
      <point x="504" y="37"/>
      <point x="522" y="63" type="curve"/>
      <point x="529" y="62" type="line"/>
      <point x="538" y="18"/>
      <point x="566" y="0"/>
      <point x="637" y="0" type="curve" smooth="yes"/>
      <point x="724" y="0" type="line" smooth="yes"/>
      <point x="754" y="0"/>
      <point x="764" y="12"/>
      <point x="764" y="48" type="curve" smooth="yes"/>
      <point x="764" y="74" type="line"/>
      <point x="664" y="74" type="line" smooth="yes"/>
      <point x="623" y="74"/>
      <point x="614" y="90"/>
      <point x="614" y="132" type="curve" smooth="yes"/>
      <point x="614" y="597" type="line" smooth="yes"/>
      <point x="614" y="683"/>
      <point x="596" y="714"/>
      <point x="502" y="714" type="curve" smooth="yes"/>
      <point x="304" y="714" type="line"/>
      <point x="304" y="635" type="line"/>
      <point x="475" y="635" type="line" smooth="yes"/>
      <point x="515" y="635"/>
      <point x="524" y="619"/>
      <point x="524" y="576" type="curve" smooth="yes"/>
      <point x="524" y="441" type="line"/>
      <point x="520" y="439" type="line"/>
      <point x="492" y="476"/>
      <point x="443" y="501"/>
      <point x="358" y="501" type="curve" smooth="yes"/>
      <point x="269" y="501"/>
      <point x="209" y="468"/>
      <point x="184" y="439" type="curve"/>
      <point x="180" y="440" type="line"/>
      <point x="180" y="714" type="line"/>
      <point x="90" y="714" type="line"/>
      <point x="90" y="132" type="line" smooth="yes"/>
      <point x="90" y="90"/>
      <point x="81" y="74"/>
      <point x="40" y="74" type="curve" smooth="yes"/>
      <point x="-40" y="74" type="line"/>
      <point x="-40" y="48" type="line" smooth="yes"/>
      <point x="-40" y="12"/>
      <point x="-30" y="0"/>
      <point x="0" y="0" type="curve" smooth="yes"/>
      <point x="67" y="0" type="line" smooth="yes"/>
      <point x="128" y="0"/>
      <point x="153" y="14"/>
      <point x="162" y="38" type="curve"/>
      <point x="167" y="38" type="line"/>
      <point x="182" y="20"/>
      <point x="239" y="-15"/>
    </contour>
    <contour>
      <point x="347" y="64" type="curve" smooth="yes"/>
      <point x="235" y="64"/>
      <point x="180" y="133"/>
      <point x="180" y="259" type="curve" smooth="yes"/>
      <point x="180" y="338" type="line"/>
      <point x="200" y="372"/>
      <point x="253" y="422"/>
      <point x="357" y="422" type="curve" smooth="yes"/>
      <point x="454" y="422"/>
      <point x="510" y="372"/>
      <point x="524" y="300" type="curve"/>
      <point x="524" y="179" type="line"/>
      <point x="506" y="131"/>
      <point x="467" y="64"/>
    </contour>
  </outline>
</glyph>
<glyph name="E-adlam.isol" format="2">
  <advance width="731"/>
  <anchor x="377" y="0" name="bottom"/>
  <anchor x="373" y="666" name="top"/>
  <anchor x="435" y="557" name="vowellengthencomb-adlam.case"/>
  <outline>
    <contour>
      <point x="110" y="0" type="line"/>
      <point x="200" y="0" type="line"/>
      <point x="200" y="38" type="line"/>
      <point x="206" y="73"/>
      <point x="225" y="99"/>
      <point x="235" y="109" type="curve"/>
      <point x="240" y="109" type="line"/>
      <point x="240" y="52"/>
      <point x="283" y="0"/>
      <point x="377" y="0" type="curve" smooth="yes"/>
      <point x="493" y="0" type="line" smooth="yes"/>
      <point x="606" y="0"/>
      <point x="676" y="33"/>
      <point x="676" y="147" type="curve" smooth="yes"/>
      <point x="676" y="276"/>
      <point x="567" y="316"/>
      <point x="511" y="326" type="curve"/>
      <point x="510" y="330" type="line"/>
      <point x="582" y="382"/>
      <point x="631" y="438"/>
      <point x="631" y="545" type="curve" smooth="yes"/>
      <point x="631" y="657"/>
      <point x="562" y="724"/>
      <point x="383" y="724" type="curve" smooth="yes"/>
      <point x="188" y="724"/>
      <point x="110" y="655"/>
      <point x="110" y="483" type="curve" smooth="yes"/>
    </contour>
    <contour>
      <point x="400" y="79" type="line" smooth="yes"/>
      <point x="346" y="79"/>
      <point x="318" y="97"/>
      <point x="318" y="145" type="curve" smooth="yes"/>
      <point x="318" y="199"/>
      <point x="367" y="245"/>
      <point x="405" y="264" type="curve"/>
      <point x="410" y="266"/>
      <point x="421" y="267"/>
      <point x="432" y="267" type="curve" smooth="yes"/>
      <point x="495" y="267"/>
      <point x="583" y="228"/>
      <point x="583" y="146" type="curve" smooth="yes"/>
      <point x="583" y="97"/>
      <point x="555" y="79"/>
      <point x="493" y="79" type="curve" smooth="yes"/>
    </contour>
    <contour>
      <point x="200" y="151" type="line"/>
      <point x="200" y="483" type="line" smooth="yes"/>
      <point x="200" y="608"/>
      <point x="257" y="645"/>
      <point x="383" y="645" type="curve" smooth="yes"/>
      <point x="503" y="645"/>
      <point x="538" y="597"/>
      <point x="538" y="534" type="curve" smooth="yes"/>
      <point x="538" y="456"/>
      <point x="503" y="422"/>
      <point x="396" y="350" type="curve" smooth="yes"/>
      <point x="291" y="279"/>
      <point x="263" y="244"/>
      <point x="247" y="200" type="curve"/>
      <point x="222" y="184"/>
      <point x="208" y="162"/>
      <point x="203" y="151" type="curve"/>
    </contour>
  </outline>
</glyph>
<glyph name="Fa-adlam.fina" format="2">
  <advance width="667"/>
  <anchor x="343" y="663" name="top"/>
  <outline>
    <contour>
      <point x="100" y="0" type="line"/>
      <point x="190" y="0" type="line"/>
      <point x="190" y="321" type="line" smooth="yes"/>
      <point x="190" y="360"/>
      <point x="248" y="422"/>
      <point x="353" y="422" type="curve" smooth="yes"/>
      <point x="440" y="422"/>
      <point x="482" y="382"/>
      <point x="482" y="269" type="curve" smooth="yes"/>
      <point x="482" y="118" type="line" smooth="yes"/>
      <point x="482" y="32"/>
      <point x="500" y="0"/>
      <point x="595" y="0" type="curve" smooth="yes"/>
      <point x="667" y="0" type="line" smooth="yes"/>
      <point x="697" y="0"/>
      <point x="707" y="12"/>
      <point x="707" y="48" type="curve" smooth="yes"/>
      <point x="707" y="74" type="line"/>
      <point x="622" y="74" type="line" smooth="yes"/>
      <point x="581" y="74"/>
      <point x="572" y="90"/>
      <point x="572" y="132" type="curve" smooth="yes"/>
      <point x="572" y="291" type="line" smooth="yes"/>
      <point x="572" y="450"/>
      <point x="502" y="501"/>
      <point x="375" y="501" type="curve" smooth="yes"/>
      <point x="260" y="501"/>
      <point x="216" y="460"/>
      <point x="194" y="435" type="curve"/>
      <point x="190" y="436" type="line"/>
      <point x="190" y="577" type="line" smooth="yes"/>
      <point x="190" y="619"/>
      <point x="199" y="635"/>
      <point x="239" y="635" type="curve" smooth="yes"/>
      <point x="550" y="635" type="line"/>
      <point x="550" y="714" type="line"/>
      <point x="212" y="714" type="line" smooth="yes"/>
      <point x="118" y="714"/>
      <point x="100" y="682"/>
      <point x="100" y="596" type="curve" smooth="yes"/>
    </contour>
  </outline>
</glyph>
<glyph name="Ga-adlam.fina" format="2">
  <advance width="652"/>
  <anchor x="330" y="663" name="gemconsonanttop"/>
  <anchor x="317" y="663" name="top"/>
  <outline>
    <contour>
      <point x="75" y="0" type="line"/>
      <point x="350" y="0" type="line" smooth="yes"/>
      <point x="432" y="0"/>
      <point x="477" y="19"/>
      <point x="497" y="37" type="curve"/>
      <point x="502" y="37" type="line"/>
      <point x="512" y="18"/>
      <point x="529" y="0"/>
      <point x="585" y="0" type="curve" smooth="yes"/>
      <point x="652" y="0" type="line" smooth="yes"/>
      <point x="682" y="0"/>
      <point x="692" y="12"/>
      <point x="692" y="48" type="curve" smooth="yes"/>
      <point x="692" y="74" type="line"/>
      <point x="612" y="74" type="line" smooth="yes"/>
      <point x="571" y="74"/>
      <point x="562" y="90"/>
      <point x="562" y="132" type="curve" smooth="yes"/>
      <point x="562" y="189" type="line" smooth="yes"/>
      <point x="562" y="327"/>
      <point x="482" y="365"/>
      <point x="435" y="377" type="curve"/>
      <point x="435" y="383" type="line"/>
      <point x="493" y="404"/>
      <point x="550" y="464"/>
      <point x="550" y="559" type="curve" smooth="yes"/>
      <point x="550" y="683"/>
      <point x="488" y="714"/>
      <point x="375" y="714" type="curve" smooth="yes"/>
      <point x="296" y="714" type="line"/>
      <point x="296" y="635" type="line"/>
      <point x="375" y="635" type="line" smooth="yes"/>
      <point x="425" y="635"/>
      <point x="460" y="615"/>
      <point x="460" y="546" type="curve" smooth="yes"/>
      <point x="460" y="466"/>
      <point x="409" y="411"/>
      <point x="282" y="411" type="curve" smooth="yes"/>
      <point x="186" y="411"/>
      <point x="175" y="421"/>
      <point x="175" y="475" type="curve"/>
      <point x="174" y="714" type="line"/>
      <point x="84" y="714" type="line"/>
      <point x="84" y="473" type="line" smooth="yes"/>
      <point x="84" y="346"/>
      <point x="99" y="332"/>
      <point x="275" y="332" type="curve" smooth="yes"/>
      <point x="403" y="332"/>
      <point x="469" y="302"/>
      <point x="469" y="189" type="curve" smooth="yes"/>
      <point x="469" y="109"/>
      <point x="426" y="74"/>
      <point x="347" y="74" type="curve" smooth="yes"/>
      <point x="75" y="74" type="line"/>
    </contour>
  </outline>
</glyph>
<glyph name="Gbe-adlam.init" format="2">
  <advance width="666"/>
  <anchor x="366" y="663" name="top"/>
  <outline>
    <contour>
      <point x="0" y="0" type="curve" smooth="yes"/>
      <point x="87" y="0" type="line" smooth="yes"/>
      <point x="182" y="0"/>
      <point x="200" y="32"/>
      <point x="200" y="118" type="curve" smooth="yes"/>
      <point x="200" y="148" type="line"/>
      <point x="287" y="148" type="line"/>
      <point x="291" y="53"/>
      <point x="336" y="0"/>
      <point x="488" y="0" type="curve" smooth="yes"/>
      <point x="610" y="0" type="line"/>
      <point x="610" y="74" type="line"/>
      <point x="493" y="74" type="line" smooth="yes"/>
      <point x="405" y="74"/>
      <point x="380" y="102"/>
      <point x="380" y="162" type="curve" smooth="yes"/>
      <point x="380" y="225"/>
      <point x="404" y="264"/>
      <point x="488" y="328" type="curve" smooth="yes"/>
      <point x="574" y="393"/>
      <point x="616" y="437"/>
      <point x="616" y="538" type="curve" smooth="yes"/>
      <point x="616" y="683"/>
      <point x="516" y="714"/>
      <point x="377" y="714" type="curve" smooth="yes"/>
      <point x="110" y="714" type="line"/>
      <point x="110" y="635" type="line"/>
      <point x="377" y="635" type="line" smooth="yes"/>
      <point x="477" y="635"/>
      <point x="523" y="602"/>
      <point x="523" y="537" type="curve" smooth="yes"/>
      <point x="523" y="464"/>
      <point x="480" y="427"/>
      <point x="413" y="376" type="curve" smooth="yes"/>
      <point x="344" y="324"/>
      <point x="309" y="285"/>
      <point x="293" y="223" type="curve"/>
      <point x="200" y="223" type="line"/>
      <point x="200" y="556" type="line"/>
      <point x="110" y="556" type="line"/>
      <point x="110" y="132" type="line" smooth="yes"/>
      <point x="110" y="90"/>
      <point x="101" y="74"/>
      <point x="60" y="74" type="curve" smooth="yes"/>
      <point x="-40" y="74" type="line"/>
      <point x="-40" y="48" type="line" smooth="yes"/>
      <point x="-40" y="12"/>
      <point x="-30" y="0"/>
    </contour>
  </outline>
</glyph>
<glyph name="I-adlam.fina" format="2">
  <advance width="813"/>
  <anchor x="459" y="557" name="vowellengthencomb-adlam.case"/>
  <outline>
    <contour>
      <point x="401" y="-10" type="curve" smooth="yes"/>
      <point x="499" y="-10"/>
      <point x="571" y="2"/>
      <point x="623" y="39" type="curve"/>
      <point x="629" y="39" type="line"/>
      <point x="636" y="18"/>
      <point x="657" y="0"/>
      <point x="726" y="0" type="curve" smooth="yes"/>
      <point x="813" y="0" type="line" smooth="yes"/>
      <point x="843" y="0"/>
      <point x="853" y="13"/>
      <point x="853" y="48" type="curve" smooth="yes"/>
      <point x="853" y="74" type="line"/>
      <point x="753" y="74" type="line" smooth="yes"/>
      <point x="712" y="74"/>
      <point x="703" y="90"/>
      <point x="703" y="132" type="curve" smooth="yes"/>
      <point x="703" y="714" type="line"/>
      <point x="613" y="714" type="line"/>
      <point x="613" y="236" type="line" smooth="yes"/>
      <point x="613" y="114"/>
      <point x="556" y="69"/>
      <point x="407" y="69" type="curve" smooth="yes"/>
      <point x="258" y="69"/>
      <point x="200" y="114"/>
      <point x="200" y="236" type="curve" smooth="yes"/>
      <point x="200" y="714" type="line"/>
      <point x="110" y="714" type="line"/>
      <point x="110" y="233" type="line" smooth="yes"/>
      <point x="110" y="37"/>
      <point x="208" y="-10"/>
    </contour>
  </outline>
</glyph>
<glyph name="Kaf-adlam.fina" format="2">
  <advance width="773"/>
  <anchor x="352" y="663" name="top"/>
  <outline>
    <contour>
      <point x="40" y="0" type="line"/>
      <point x="271" y="0" type="line" smooth="yes"/>
      <point x="365" y="0"/>
      <point x="383" y="32"/>
      <point x="383" y="118" type="curve" smooth="yes"/>
      <point x="383" y="320" type="line"/>
      <point x="573" y="320" type="line"/>
      <point x="573" y="118" type="line" smooth="yes"/>
      <point x="573" y="32"/>
      <point x="591" y="0"/>
      <point x="686" y="0" type="curve" smooth="yes"/>
      <point x="773" y="0" type="line" smooth="yes"/>
      <point x="803" y="0"/>
      <point x="813" y="12"/>
      <point x="813" y="48" type="curve" smooth="yes"/>
      <point x="813" y="74" type="line"/>
      <point x="713" y="74" type="line" smooth="yes"/>
      <point x="672" y="74"/>
      <point x="663" y="90"/>
      <point x="663" y="132" type="curve" smooth="yes"/>
      <point x="663" y="597" type="line" smooth="yes"/>
      <point x="663" y="683"/>
      <point x="645" y="714"/>
      <point x="551" y="714" type="curve" smooth="yes"/>
      <point x="40" y="714" type="line"/>
      <point x="40" y="640" type="line"/>
      <point x="523" y="640" type="line" smooth="yes"/>
      <point x="564" y="640"/>
      <point x="573" y="624"/>
      <point x="573" y="581" type="curve" smooth="yes"/>
      <point x="573" y="394" type="line"/>
      <point x="383" y="394" type="line"/>
      <point x="383" y="558" type="line"/>
      <point x="293" y="558" type="line"/>
      <point x="293" y="394" type="line"/>
      <point x="142" y="394" type="line"/>
      <point x="142" y="320" type="line"/>
      <point x="293" y="320" type="line"/>
      <point x="293" y="132" type="line" smooth="yes"/>
      <point x="293" y="90"/>
      <point x="284" y="74"/>
      <point x="243" y="74" type="curve" smooth="yes"/>
      <point x="40" y="74" type="line"/>
    </contour>
  </outline>
</glyph>
<glyph name="Laam-adlam.init" format="2">
  <advance width="816"/>
  <anchor x="373" y="663" name="top"/>
  <outline>
    <contour>
      <point x="0" y="0" type="curve" smooth="yes"/>
      <point x="353" y="0" type="line" smooth="yes"/>
      <point x="447" y="0"/>
      <point x="465" y="32"/>
      <point x="465" y="118" type="curve" smooth="yes"/>
      <point x="465" y="233" type="line" smooth="yes"/>
      <point x="465" y="285"/>
      <point x="476" y="300"/>
      <point x="535" y="347" type="curve" smooth="yes"/>
      <point x="575" y="380"/>
      <point x="600" y="399"/>
      <point x="614" y="413" type="curve"/>
      <point x="616" y="412" type="line"/>
      <point x="616" y="0" type="line"/>
      <point x="706" y="0" type="line"/>
      <point x="706" y="714" type="line"/>
      <point x="616" y="714" type="line"/>
      <point x="616" y="563" type="line" smooth="yes"/>
      <point x="616" y="512"/>
      <point x="600" y="500"/>
      <point x="541" y="450" type="curve" smooth="yes"/>
      <point x="493" y="409"/>
      <point x="481" y="398"/>
      <point x="468" y="384" type="curve"/>
      <point x="465" y="384" type="line"/>
      <point x="465" y="550" type="line" smooth="yes"/>
      <point x="465" y="675"/>
      <point x="411" y="726"/>
      <point x="283" y="726" type="curve" smooth="yes"/>
      <point x="124" y="726"/>
      <point x="65" y="625"/>
      <point x="50" y="595" type="curve"/>
      <point x="50" y="374" type="line"/>
      <point x="140" y="374" type="line"/>
      <point x="140" y="575" type="line"/>
      <point x="153" y="597"/>
      <point x="195" y="647"/>
      <point x="277" y="647" type="curve" smooth="yes"/>
      <point x="350" y="647"/>
      <point x="375" y="614"/>
      <point x="375" y="550" type="curve" smooth="yes"/>
      <point x="375" y="132" type="line" smooth="yes"/>
      <point x="375" y="90"/>
      <point x="366" y="74"/>
      <point x="326" y="74" type="curve" smooth="yes"/>
      <point x="-40" y="74" type="line"/>
      <point x="-40" y="48" type="line" smooth="yes"/>
      <point x="-40" y="12"/>
      <point x="-30" y="0"/>
    </contour>
  </outline>
</glyph>
<glyph name="Left_connector" format="2">
  <advance width="582"/>
  <outline>
    <contour>
      <point x="100" y="0" type="line"/>
      <point x="369" y="0" type="line" smooth="yes"/>
      <point x="464" y="0"/>
      <point x="482" y="32"/>
      <point x="482" y="118" type="curve" smooth="yes"/>
      <point x="482" y="714" type="line"/>
      <point x="392" y="714" type="line"/>
      <point x="392" y="132" type="line" smooth="yes"/>
      <point x="392" y="90"/>
      <point x="383" y="74"/>
      <point x="342" y="74" type="curve" smooth="yes"/>
      <point x="100" y="74" type="line"/>
    </contour>
  </outline>
</glyph>
<glyph name="Miim-adlam.fina" format="2">
  <advance width="819"/>
  <anchor x="304" y="663" name="top"/>
  <outline>
    <contour>
      <point x="46" y="0" type="line"/>
      <point x="345" y="0" type="line" smooth="yes"/>
      <point x="468" y="0"/>
      <point x="531" y="38"/>
      <point x="531" y="148" type="curve" smooth="yes"/>
      <point x="531" y="168"/>
      <point x="529" y="186"/>
      <point x="526" y="203" type="curve"/>
      <point x="558" y="218"/>
      <point x="600" y="249"/>
      <point x="614" y="269" type="curve"/>
      <point x="619" y="267" type="line"/>
      <point x="619" y="118" type="line" smooth="yes"/>
      <point x="619" y="32"/>
      <point x="637" y="0"/>
      <point x="732" y="0" type="curve" smooth="yes"/>
      <point x="819" y="0" type="line" smooth="yes"/>
      <point x="849" y="0"/>
      <point x="859" y="12"/>
      <point x="859" y="48" type="curve" smooth="yes"/>
      <point x="859" y="74" type="line"/>
      <point x="759" y="74" type="line" smooth="yes"/>
      <point x="718" y="74"/>
      <point x="709" y="90"/>
      <point x="709" y="132" type="curve" smooth="yes"/>
      <point x="709" y="714" type="line"/>
      <point x="619" y="714" type="line"/>
      <point x="619" y="376" type="line"/>
      <point x="595" y="340"/>
      <point x="541" y="295"/>
      <point x="500" y="273" type="curve"/>
      <point x="465" y="330"/>
      <point x="401" y="361"/>
      <point x="315" y="393" type="curve" smooth="yes"/>
      <point x="189" y="440"/>
      <point x="133" y="469"/>
      <point x="133" y="542" type="curve" smooth="yes"/>
      <point x="133" y="615"/>
      <point x="186" y="645"/>
      <point x="291" y="645" type="curve" smooth="yes"/>
      <point x="396" y="645"/>
      <point x="438" y="606"/>
      <point x="438" y="542" type="curve" smooth="yes"/>
      <point x="438" y="482"/>
      <point x="410" y="451"/>
      <point x="386" y="425" type="curve"/>
      <point x="458" y="374" type="line"/>
      <point x="477" y="390"/>
      <point x="531" y="443"/>
      <point x="531" y="542" type="curve" smooth="yes"/>
      <point x="531" y="654"/>
      <point x="468" y="724"/>
      <point x="291" y="724" type="curve" smooth="yes"/>
      <point x="136" y="724"/>
      <point x="40" y="664"/>
      <point x="40" y="539" type="curve" smooth="yes"/>
      <point x="40" y="425"/>
      <point x="109" y="382"/>
      <point x="266" y="321" type="curve" smooth="yes"/>
      <point x="377" y="278"/>
      <point x="438" y="237"/>
      <point x="438" y="148" type="curve" smooth="yes"/>
      <point x="438" y="100"/>
      <point x="413" y="74"/>
      <point x="345" y="74" type="curve" smooth="yes"/>
      <point x="46" y="74" type="line"/>
    </contour>
  </outline>
</glyph>
<glyph name="Nha-adlam.medi" format="2">
  <advance width="738"/>
  <anchor x="392" y="663" name="top"/>
  <outline>
    <contour>
      <point x="230" y="-24" type="curve"/>
      <point x="250" y="54" type="line"/>
      <point x="206" y="64"/>
      <point x="138" y="84"/>
      <point x="138" y="184" type="curve" smooth="yes"/>
      <point x="138" y="279"/>
      <point x="196" y="315"/>
      <point x="342" y="348" type="curve"/>
      <point x="342" y="118" type="line" smooth="yes"/>
      <point x="342" y="32"/>
      <point x="360" y="0"/>
      <point x="458" y="0" type="curve" smooth="yes"/>
      <point x="738" y="0" type="line" smooth="yes"/>
      <point x="768" y="0"/>
      <point x="778" y="12"/>
      <point x="778" y="48" type="curve" smooth="yes"/>
      <point x="778" y="74" type="line"/>
      <point x="482" y="74" type="line" smooth="yes"/>
      <point x="441" y="74"/>
      <point x="432" y="90"/>
      <point x="432" y="132" type="curve" smooth="yes"/>
      <point x="432" y="366" type="line"/>
      <point x="594" y="399"/>
      <point x="668" y="434"/>
      <point x="668" y="553" type="curve" smooth="yes"/>
      <point x="668" y="661"/>
      <point x="607" y="714"/>
      <point x="435" y="714" type="curve" smooth="yes"/>
      <point x="365" y="714" type="line" smooth="yes"/>
      <point x="202" y="714"/>
      <point x="140" y="658"/>
      <point x="118" y="618" type="curve"/>
      <point x="178" y="570" type="line"/>
      <point x="193" y="595"/>
      <point x="226" y="630"/>
      <point x="342" y="635" type="curve"/>
      <point x="342" y="426" type="line"/>
      <point x="147" y="388"/>
      <point x="45" y="326"/>
      <point x="45" y="180" type="curve" smooth="yes"/>
      <point x="45" y="136"/>
      <point x="54" y="102"/>
      <point x="70" y="74" type="curve"/>
      <point x="-40" y="74" type="line"/>
      <point x="-40" y="48" type="line" smooth="yes"/>
      <point x="-40" y="12"/>
      <point x="-30" y="0"/>
      <point x="0" y="0" type="curve" smooth="yes"/>
      <point x="151" y="0" type="line"/>
      <point x="176" y="-12"/>
      <point x="204" y="-20"/>
    </contour>
    <contour>
      <point x="432" y="445" type="curve"/>
      <point x="432" y="635" type="line"/>
      <point x="533" y="635"/>
      <point x="575" y="610"/>
      <point x="575" y="550" type="curve" smooth="yes"/>
      <point x="575" y="488"/>
      <point x="546" y="470"/>
    </contour>
  </outline>
</glyph>
<glyph name="Nun-adlam.medi" format="2">
  <advance width="671"/>
  <anchor x="339" y="663" name="top"/>
  <outline>
    <contour>
      <point x="0" y="0" type="curve" smooth="yes"/>
      <point x="385" y="0" type="line"/>
      <point x="385" y="74" type="line"/>
      <point x="286" y="74" type="line" smooth="yes"/>
      <point x="183" y="74"/>
      <point x="145" y="93"/>
      <point x="145" y="186" type="curve" smooth="yes"/>
      <point x="145" y="285"/>
      <point x="208" y="315"/>
      <point x="343" y="354" type="curve" smooth="yes"/>
      <point x="485" y="396"/>
      <point x="567" y="427"/>
      <point x="567" y="554" type="curve" smooth="yes"/>
      <point x="567" y="673"/>
      <point x="497" y="714"/>
      <point x="369" y="714" type="curve" smooth="yes"/>
      <point x="294" y="714" type="line" smooth="yes"/>
      <point x="163" y="714"/>
      <point x="110" y="645"/>
      <point x="94" y="617" type="curve"/>
      <point x="159" y="570" type="line"/>
      <point x="174" y="597"/>
      <point x="203" y="635"/>
      <point x="294" y="635" type="curve" smooth="yes"/>
      <point x="367" y="635" type="line" smooth="yes"/>
      <point x="443" y="635"/>
      <point x="477" y="609"/>
      <point x="477" y="554" type="curve" smooth="yes"/>
      <point x="477" y="480"/>
      <point x="422" y="460"/>
      <point x="286" y="419" type="curve" smooth="yes"/>
      <point x="140" y="374"/>
      <point x="55" y="324"/>
      <point x="55" y="177" type="curve" smooth="yes"/>
      <point x="55" y="134"/>
      <point x="63" y="100"/>
      <point x="78" y="74" type="curve"/>
      <point x="-40" y="74" type="line"/>
      <point x="-40" y="48" type="line" smooth="yes"/>
      <point x="-40" y="12"/>
      <point x="-30" y="0"/>
    </contour>
    <contour>
      <point x="571" y="0" type="curve" smooth="yes"/>
      <point x="672" y="0" type="line" smooth="yes"/>
      <point x="701" y="0"/>
      <point x="711" y="12"/>
      <point x="711" y="48" type="curve" smooth="yes"/>
      <point x="711" y="74" type="line"/>
      <point x="598" y="74" type="line" smooth="yes"/>
      <point x="557" y="74"/>
      <point x="548" y="90"/>
      <point x="548" y="132" type="curve" smooth="yes"/>
      <point x="548" y="333" type="line"/>
      <point x="458" y="333" type="line"/>
      <point x="458" y="118" type="line" smooth="yes"/>
      <point x="458" y="32"/>
      <point x="476" y="0"/>
    </contour>
  </outline>
</glyph>
<glyph name="Nya-adlam.medi" format="2">
  <advance width="696"/>
  <anchor x="367" y="663" name="top"/>
  <outline>
    <contour>
      <point x="0" y="0" type="curve" smooth="yes"/>
      <point x="471" y="0" type="line"/>
      <point x="471" y="74" type="line"/>
      <point x="295" y="74" type="line" smooth="yes"/>
      <point x="213" y="74"/>
      <point x="158" y="104"/>
      <point x="158" y="191" type="curve" smooth="yes"/>
      <point x="158" y="296"/>
      <point x="242" y="353"/>
      <point x="321" y="367" type="curve"/>
      <point x="480" y="333"/>
      <point x="541" y="312"/>
      <point x="541" y="158" type="curve" smooth="yes"/>
      <point x="541" y="118" type="line" smooth="yes"/>
      <point x="541" y="32"/>
      <point x="559" y="0"/>
      <point x="654" y="0" type="curve" smooth="yes"/>
      <point x="696" y="0" type="line" smooth="yes"/>
      <point x="726" y="0"/>
      <point x="736" y="12"/>
      <point x="736" y="48" type="curve" smooth="yes"/>
      <point x="736" y="74" type="line"/>
      <point x="681" y="74" type="line" smooth="yes"/>
      <point x="640" y="74"/>
      <point x="631" y="90"/>
      <point x="631" y="132" type="curve" smooth="yes"/>
      <point x="631" y="159" type="line" smooth="yes"/>
      <point x="631" y="374"/>
      <point x="536" y="396"/>
      <point x="366" y="439" type="curve" smooth="yes"/>
      <point x="236" y="472"/>
      <point x="191" y="488"/>
      <point x="191" y="550" type="curve" smooth="yes"/>
      <point x="191" y="606"/>
      <point x="231" y="635"/>
      <point x="321" y="635" type="curve" smooth="yes"/>
      <point x="391" y="635" type="line" smooth="yes"/>
      <point x="499" y="635"/>
      <point x="530" y="600"/>
      <point x="544" y="580" type="curve"/>
      <point x="606" y="638" type="line"/>
      <point x="590" y="661"/>
      <point x="546" y="714"/>
      <point x="392" y="714" type="curve" smooth="yes"/>
      <point x="321" y="714" type="line" smooth="yes"/>
      <point x="172" y="714"/>
      <point x="98" y="656"/>
      <point x="98" y="544" type="curve" smooth="yes"/>
      <point x="98" y="450"/>
      <point x="156" y="412"/>
      <point x="206" y="396" type="curve"/>
      <point x="206" y="391" type="line"/>
      <point x="146" y="369"/>
      <point x="65" y="308"/>
      <point x="65" y="186" type="curve" smooth="yes"/>
      <point x="65" y="139"/>
      <point x="76" y="102"/>
      <point x="96" y="74" type="curve"/>
      <point x="-40" y="74" type="line"/>
      <point x="-40" y="48" type="line" smooth="yes"/>
      <point x="-40" y="12"/>
      <point x="-30" y="0"/>
    </contour>
  </outline>
</glyph>
<glyph name="O-adlam.init" format="2">
  <advance width="726"/>
  <anchor x="359" y="0" name="bottom"/>
  <anchor x="374" y="663" name="top"/>
  <anchor x="409" y="557" name="vowellengthencomb-adlam.case"/>
  <outline>
    <contour>
      <point x="0" y="0" type="curve" smooth="yes"/>
      <point x="656" y="0" type="line"/>
      <point x="656" y="74" type="line"/>
      <point x="461" y="74" type="line" smooth="yes"/>
      <point x="345" y="74"/>
      <point x="170" y="109"/>
      <point x="170" y="362" type="curve" smooth="yes"/>
      <point x="170" y="554"/>
      <point x="263" y="645"/>
      <point x="382" y="645" type="curve" smooth="yes"/>
      <point x="499" y="645"/>
      <point x="547" y="559"/>
      <point x="571" y="510" type="curve"/>
      <point x="656" y="558" type="line"/>
      <point x="617" y="633"/>
      <point x="553" y="724"/>
      <point x="385" y="724" type="curve" smooth="yes"/>
      <point x="216" y="724"/>
      <point x="75" y="621"/>
      <point x="75" y="356" type="curve" smooth="yes"/>
      <point x="75" y="191"/>
      <point x="139" y="114"/>
      <point x="181" y="79" type="curve"/>
      <point x="180" y="74" type="line"/>
      <point x="-40" y="74" type="line"/>
      <point x="-40" y="48" type="line" smooth="yes"/>
      <point x="-40" y="12"/>
      <point x="-30" y="0"/>
    </contour>
  </outline>
</glyph>
<glyph name="Pe-adlam.init" format="2">
  <advance width="629"/>
  <anchor x="328" y="663" name="top"/>
  <outline>
    <contour>
      <point x="0" y="0" type="curve" smooth="yes"/>
      <point x="60" y="0" type="line" smooth="yes"/>
      <point x="101" y="0"/>
      <point x="115" y="12"/>
      <point x="125" y="37" type="curve"/>
      <point x="131" y="37" type="line"/>
      <point x="142" y="12"/>
      <point x="161" y="0"/>
      <point x="217" y="0" type="curve" smooth="yes"/>
      <point x="534" y="0" type="line"/>
      <point x="534" y="74" type="line"/>
      <point x="235" y="74" type="line" smooth="yes"/>
      <point x="208" y="74"/>
      <point x="200" y="85"/>
      <point x="200" y="109" type="curve" smooth="yes"/>
      <point x="200" y="623" type="line"/>
      <point x="218" y="635"/>
      <point x="244" y="645"/>
      <point x="293" y="645" type="curve" smooth="yes"/>
      <point x="387" y="645"/>
      <point x="461" y="574"/>
      <point x="461" y="438" type="curve" smooth="yes"/>
      <point x="461" y="307"/>
      <point x="381" y="231"/>
      <point x="333" y="189" type="curve"/>
      <point x="391" y="124" type="line"/>
      <point x="443" y="168"/>
      <point x="554" y="263"/>
      <point x="554" y="444" type="curve" smooth="yes"/>
      <point x="554" y="633"/>
      <point x="451" y="724"/>
      <point x="293" y="724" type="curve" smooth="yes"/>
      <point x="196" y="724"/>
      <point x="140" y="693"/>
      <point x="110" y="668" type="curve"/>
      <point x="110" y="132" type="line" smooth="yes"/>
      <point x="110" y="90"/>
      <point x="101" y="74"/>
      <point x="60" y="74" type="curve" smooth="yes"/>
      <point x="-40" y="74" type="line"/>
      <point x="-40" y="48" type="line" smooth="yes"/>
      <point x="-40" y="12"/>
      <point x="-30" y="0"/>
    </contour>
  </outline>
</glyph>
<glyph name="Qaaf-adlam.fina" format="2">
  <advance width="789"/>
  <anchor x="436" y="666" name="top"/>
  <outline>
    <contour>
      <point x="81" y="0" type="line"/>
      <point x="335" y="0" type="line" smooth="yes"/>
      <point x="429" y="0"/>
      <point x="447" y="32"/>
      <point x="447" y="118" type="curve" smooth="yes"/>
      <point x="447" y="275" type="line"/>
      <point x="490" y="275"/>
      <point x="554" y="284"/>
      <point x="589" y="294" type="curve"/>
      <point x="589" y="118" type="line" smooth="yes"/>
      <point x="589" y="32"/>
      <point x="607" y="0"/>
      <point x="702" y="0" type="curve" smooth="yes"/>
      <point x="789" y="0" type="line" smooth="yes"/>
      <point x="819" y="0"/>
      <point x="829" y="12"/>
      <point x="829" y="48" type="curve" smooth="yes"/>
      <point x="829" y="74" type="line"/>
      <point x="729" y="74" type="line" smooth="yes"/>
      <point x="688" y="74"/>
      <point x="679" y="90"/>
      <point x="679" y="132" type="curve" smooth="yes"/>
      <point x="679" y="714" type="line"/>
      <point x="589" y="714" type="line"/>
      <point x="589" y="375" type="line"/>
      <point x="558" y="365"/>
      <point x="493" y="355"/>
      <point x="447" y="354" type="curve"/>
      <point x="447" y="552" type="line" smooth="yes"/>
      <point x="447" y="675"/>
      <point x="391" y="724"/>
      <point x="289" y="724" type="curve" smooth="yes"/>
      <point x="163" y="724"/>
      <point x="70" y="651"/>
      <point x="70" y="513" type="curve" smooth="yes"/>
      <point x="70" y="358"/>
      <point x="184" y="285"/>
      <point x="357" y="275" type="curve"/>
      <point x="357" y="132" type="line" smooth="yes"/>
      <point x="357" y="90"/>
      <point x="348" y="74"/>
      <point x="308" y="74" type="curve" smooth="yes"/>
      <point x="81" y="74" type="line"/>
    </contour>
    <contour>
      <point x="357" y="354" type="line"/>
      <point x="248" y="365"/>
      <point x="163" y="407"/>
      <point x="163" y="516" type="curve" smooth="yes"/>
      <point x="163" y="598"/>
      <point x="209" y="645"/>
      <point x="279" y="645" type="curve" smooth="yes"/>
      <point x="336" y="645"/>
      <point x="357" y="612"/>
      <point x="357" y="545" type="curve" smooth="yes"/>
    </contour>
  </outline>
</glyph>
<glyph name="Ra-adlam.fina" format="2">
  <advance width="709"/>
  <anchor x="369" y="663" name="top"/>
  <outline>
    <contour>
      <point x="217" y="0" type="curve" smooth="yes"/>
      <point x="399" y="0" type="line"/>
      <point x="399" y="74" type="line"/>
      <point x="250" y="74" type="line" smooth="yes"/>
      <point x="209" y="74"/>
      <point x="200" y="90"/>
      <point x="200" y="132" type="curve" smooth="yes"/>
      <point x="200" y="276" type="line"/>
      <point x="205" y="279" type="line"/>
      <point x="219" y="266"/>
      <point x="264" y="236"/>
      <point x="364" y="236" type="curve" smooth="yes"/>
      <point x="457" y="236"/>
      <point x="504" y="260"/>
      <point x="519" y="275" type="curve"/>
      <point x="524" y="272" type="line"/>
      <point x="524" y="118" type="line" smooth="yes"/>
      <point x="524" y="32"/>
      <point x="542" y="0"/>
      <point x="637" y="0" type="curve" smooth="yes"/>
      <point x="709" y="0" type="line" smooth="yes"/>
      <point x="739" y="0"/>
      <point x="749" y="12"/>
      <point x="749" y="48" type="curve" smooth="yes"/>
      <point x="749" y="74" type="line"/>
      <point x="664" y="74" type="line" smooth="yes"/>
      <point x="623" y="74"/>
      <point x="614" y="90"/>
      <point x="614" y="132" type="curve" smooth="yes"/>
      <point x="614" y="714" type="line"/>
      <point x="524" y="714" type="line"/>
      <point x="524" y="453" type="line" smooth="yes"/>
      <point x="524" y="348"/>
      <point x="462" y="315"/>
      <point x="364" y="315" type="curve" smooth="yes"/>
      <point x="265" y="315"/>
      <point x="219" y="355"/>
      <point x="200" y="380" type="curve"/>
      <point x="200" y="714" type="line"/>
      <point x="110" y="714" type="line"/>
      <point x="110" y="118" type="line" smooth="yes"/>
      <point x="110" y="32"/>
      <point x="130" y="0"/>
    </contour>
  </outline>
</glyph>
<glyph name="Ra-adlam.init" format="2">
  <advance width="709"/>
  <anchor x="369" y="663" name="top"/>
  <outline>
    <contour>
      <point x="0" y="0" type="curve" smooth="yes"/>
      <point x="60" y="0" type="line" smooth="yes"/>
      <point x="101" y="0"/>
      <point x="115" y="12"/>
      <point x="125" y="37" type="curve"/>
      <point x="131" y="37" type="line"/>
      <point x="142" y="12"/>
      <point x="161" y="0"/>
      <point x="217" y="0" type="curve" smooth="yes"/>
      <point x="614" y="0" type="line"/>
      <point x="614" y="74" type="line"/>
      <point x="249" y="74" type="line" smooth="yes"/>
      <point x="209" y="74"/>
      <point x="200" y="90"/>
      <point x="200" y="132" type="curve" smooth="yes"/>
      <point x="200" y="276" type="line"/>
      <point x="205" y="279" type="line"/>
      <point x="218" y="268"/>
      <point x="260" y="236"/>
      <point x="360" y="236" type="curve" smooth="yes"/>
      <point x="515" y="236"/>
      <point x="614" y="289"/>
      <point x="614" y="452" type="curve" smooth="yes"/>
      <point x="614" y="714" type="line"/>
      <point x="524" y="714" type="line"/>
      <point x="524" y="451" type="line" smooth="yes"/>
      <point x="524" y="348"/>
      <point x="468" y="315"/>
      <point x="360" y="315" type="curve" smooth="yes"/>
      <point x="260" y="315"/>
      <point x="220" y="357"/>
      <point x="200" y="380" type="curve"/>
      <point x="200" y="714" type="line"/>
      <point x="110" y="714" type="line"/>
      <point x="110" y="132" type="line" smooth="yes"/>
      <point x="110" y="90"/>
      <point x="101" y="74"/>
      <point x="60" y="74" type="curve" smooth="yes"/>
      <point x="-40" y="74" type="line"/>
      <point x="-40" y="48" type="line" smooth="yes"/>
      <point x="-40" y="12"/>
      <point x="-30" y="0"/>
    </contour>
  </outline>
</glyph>
<glyph name="Right_connector" format="2">
  <advance width="582"/>
  <outline>
    <contour>
      <point x="213" y="0" type="curve" smooth="yes"/>
      <point x="482" y="0" type="line"/>
      <point x="482" y="74" type="line"/>
      <point x="240" y="74" type="line" smooth="yes"/>
      <point x="199" y="74"/>
      <point x="190" y="90"/>
      <point x="190" y="132" type="curve" smooth="yes"/>
      <point x="190" y="714" type="line"/>
      <point x="100" y="714" type="line"/>
      <point x="100" y="118" type="line" smooth="yes"/>
      <point x="100" y="32"/>
      <point x="118" y="0"/>
    </contour>
  </outline>
</glyph>
<glyph name="Sha-adlam.init" format="2">
  <advance width="884"/>
  <anchor x="450" y="663" name="top"/>
  <outline>
    <contour>
      <point x="292" y="-10" type="curve" smooth="yes"/>
      <point x="408" y="-10"/>
      <point x="478" y="42"/>
      <point x="478" y="183" type="curve" smooth="yes"/>
      <point x="478" y="297" type="line"/>
      <point x="674" y="297" type="line"/>
      <point x="674" y="0" type="line"/>
      <point x="764" y="0" type="line"/>
      <point x="764" y="596" type="line" smooth="yes"/>
      <point x="764" y="682"/>
      <point x="747" y="714"/>
      <point x="653" y="714" type="curve" smooth="yes"/>
      <point x="388" y="714" type="line"/>
      <point x="388" y="635" type="line"/>
      <point x="625" y="635" type="line" smooth="yes"/>
      <point x="665" y="635"/>
      <point x="674" y="619"/>
      <point x="674" y="577" type="curve" smooth="yes"/>
      <point x="674" y="376" type="line"/>
      <point x="478" y="376" type="line"/>
      <point x="478" y="544" type="line"/>
      <point x="388" y="544" type="line"/>
      <point x="388" y="196" type="line" smooth="yes"/>
      <point x="388" y="102"/>
      <point x="354" y="69"/>
      <point x="292" y="69" type="curve" smooth="yes"/>
      <point x="234" y="69"/>
      <point x="200" y="102"/>
      <point x="200" y="196" type="curve" smooth="yes"/>
      <point x="200" y="714" type="line"/>
      <point x="110" y="714" type="line"/>
      <point x="110" y="137" type="line" smooth="yes"/>
      <point x="110" y="95"/>
      <point x="101" y="74"/>
      <point x="60" y="74" type="curve" smooth="yes"/>
      <point x="-40" y="74" type="line"/>
      <point x="-40" y="48" type="line" smooth="yes"/>
      <point x="-40" y="12"/>
      <point x="-30" y="0"/>
      <point x="0" y="0" type="curve" smooth="yes"/>
      <point x="68" y="0" type="line" smooth="yes"/>
      <point x="122" y="0"/>
      <point x="141" y="17"/>
      <point x="148" y="37" type="curve"/>
      <point x="153" y="37" type="line"/>
      <point x="168" y="17"/>
      <point x="207" y="-10"/>
    </contour>
  </outline>
</glyph>
<glyph name="Sinnyiiyhe-adlam.fina" format="2">
  <advance width="925"/>
  <anchor x="447" y="0" name="bottom"/>
  <anchor x="457" y="663" name="gemconsonanttop"/>
  <anchor x="447" y="663" name="top"/>
  <outline>
    <contour>
      <point x="289" y="-10" type="curve" smooth="yes"/>
      <point x="386" y="-10"/>
      <point x="439" y="28"/>
      <point x="456" y="65" type="curve"/>
      <point x="462" y="65" type="line"/>
      <point x="479" y="28"/>
      <point x="525" y="-10"/>
      <point x="624" y="-10" type="curve" smooth="yes"/>
      <point x="710" y="-10"/>
      <point x="748" y="18"/>
      <point x="767" y="39" type="curve"/>
      <point x="772" y="39" type="line"/>
      <point x="776" y="24"/>
      <point x="789" y="0"/>
      <point x="844" y="0" type="curve" smooth="yes"/>
      <point x="925" y="0" type="line" smooth="yes"/>
      <point x="955" y="0"/>
      <point x="965" y="13"/>
      <point x="965" y="48" type="curve" smooth="yes"/>
      <point x="965" y="74" type="line"/>
      <point x="865" y="74" type="line" smooth="yes"/>
      <point x="824" y="74"/>
      <point x="815" y="90"/>
      <point x="815" y="132" type="curve" smooth="yes"/>
      <point x="815" y="596" type="line" smooth="yes"/>
      <point x="815" y="682"/>
      <point x="797" y="714"/>
      <point x="703" y="714" type="curve" smooth="yes"/>
      <point x="422" y="714" type="line"/>
      <point x="422" y="635" type="line"/>
      <point x="676" y="635" type="line" smooth="yes"/>
      <point x="716" y="635"/>
      <point x="725" y="619"/>
      <point x="725" y="577" type="curve" smooth="yes"/>
      <point x="725" y="187" type="line" smooth="yes"/>
      <point x="725" y="112"/>
      <point x="693" y="69"/>
      <point x="624" y="69" type="curve" smooth="yes"/>
      <point x="554" y="69"/>
      <point x="507" y="113"/>
      <point x="507" y="187" type="curve" smooth="yes"/>
      <point x="507" y="535" type="line"/>
      <point x="417" y="535" type="line"/>
      <point x="417" y="187" type="line" smooth="yes"/>
      <point x="417" y="113"/>
      <point x="371" y="69"/>
      <point x="299" y="69" type="curve" smooth="yes"/>
      <point x="227" y="69"/>
      <point x="200" y="120"/>
      <point x="200" y="188" type="curve" smooth="yes"/>
      <point x="200" y="714" type="line"/>
      <point x="110" y="714" type="line"/>
      <point x="110" y="188" type="line" smooth="yes"/>
      <point x="110" y="44"/>
      <point x="179" y="-10"/>
    </contour>
  </outline>
</glyph>
<glyph name="Tu-adlam.isol" format="2">
  <advance width="953"/>
  <anchor x="467" y="666" name="gemconsonanttop"/>
  <anchor x="471" y="666" name="top"/>
  <outline>
    <contour>
      <point x="110" y="0" type="line"/>
      <point x="200" y="0" type="line"/>
      <point x="200" y="593" type="line"/>
      <point x="209" y="615"/>
      <point x="243" y="645"/>
      <point x="304" y="645" type="curve" smooth="yes"/>
      <point x="387" y="645"/>
      <point x="423" y="598"/>
      <point x="433" y="569" type="curve"/>
      <point x="433" y="54" type="line" smooth="yes"/>
      <point x="433" y="17"/>
      <point x="447" y="0"/>
      <point x="484" y="0" type="curve" smooth="yes"/>
      <point x="838" y="0" type="line"/>
      <point x="838" y="79" type="line"/>
      <point x="558" y="79" type="line" smooth="yes"/>
      <point x="532" y="79"/>
      <point x="523" y="90"/>
      <point x="523" y="117" type="curve" smooth="yes"/>
      <point x="523" y="593" type="line"/>
      <point x="537" y="612"/>
      <point x="569" y="645"/>
      <point x="637" y="645" type="curve" smooth="yes"/>
      <point x="708" y="645"/>
      <point x="763" y="587"/>
      <point x="763" y="449" type="curve" smooth="yes"/>
      <point x="763" y="304"/>
      <point x="715" y="242"/>
      <point x="656" y="186" type="curve"/>
      <point x="716" y="127" type="line"/>
      <point x="797" y="199"/>
      <point x="853" y="275"/>
      <point x="853" y="449" type="curve" smooth="yes"/>
      <point x="853" y="644"/>
      <point x="779" y="724"/>
      <point x="640" y="724" type="curve" smooth="yes"/>
      <point x="550" y="724"/>
      <point x="483" y="677"/>
      <point x="467" y="659" type="curve"/>
      <point x="462" y="659" type="line"/>
      <point x="448" y="677"/>
      <point x="401" y="724"/>
      <point x="304" y="724" type="curve" smooth="yes"/>
      <point x="176" y="724"/>
      <point x="120" y="647"/>
      <point x="110" y="613" type="curve"/>
    </contour>
  </outline>
</glyph>
<glyph name="Tu-adlam.medi" format="2">
  <advance width="953"/>
  <anchor x="467" y="666" name="gemconsonanttop"/>
  <anchor x="471" y="666" name="top"/>
  <outline>
    <contour>
      <point x="0" y="0" type="curve" smooth="yes"/>
      <point x="87" y="0" type="line" smooth="yes"/>
      <point x="182" y="0"/>
      <point x="200" y="32"/>
      <point x="200" y="118" type="curve" smooth="yes"/>
      <point x="200" y="593" type="line"/>
      <point x="209" y="615"/>
      <point x="243" y="645"/>
      <point x="304" y="645" type="curve" smooth="yes"/>
      <point x="387" y="645"/>
      <point x="423" y="598"/>
      <point x="433" y="569" type="curve"/>
      <point x="433" y="54" type="line" smooth="yes"/>
      <point x="433" y="17"/>
      <point x="447" y="0"/>
      <point x="484" y="0" type="curve" smooth="yes"/>
      <point x="953" y="0" type="line" smooth="yes"/>
      <point x="983" y="0"/>
      <point x="993" y="12"/>
      <point x="993" y="48" type="curve" smooth="yes"/>
      <point x="993" y="74" type="line"/>
      <point x="558" y="74" type="line" smooth="yes"/>
      <point x="532" y="74"/>
      <point x="523" y="85"/>
      <point x="523" y="112" type="curve" smooth="yes"/>
      <point x="523" y="593" type="line"/>
      <point x="537" y="612"/>
      <point x="569" y="645"/>
      <point x="637" y="645" type="curve" smooth="yes"/>
      <point x="708" y="645"/>
      <point x="763" y="587"/>
      <point x="763" y="449" type="curve" smooth="yes"/>
      <point x="763" y="304"/>
      <point x="715" y="242"/>
      <point x="656" y="186" type="curve"/>
      <point x="716" y="127" type="line"/>
      <point x="797" y="199"/>
      <point x="853" y="275"/>
      <point x="853" y="449" type="curve" smooth="yes"/>
      <point x="853" y="644"/>
      <point x="779" y="724"/>
      <point x="640" y="724" type="curve" smooth="yes"/>
      <point x="550" y="724"/>
      <point x="483" y="677"/>
      <point x="467" y="659" type="curve"/>
      <point x="462" y="659" type="line"/>
      <point x="448" y="677"/>
      <point x="401" y="724"/>
      <point x="304" y="724" type="curve" smooth="yes"/>
      <point x="176" y="724"/>
      <point x="120" y="647"/>
      <point x="110" y="613" type="curve"/>
      <point x="110" y="132" type="line" smooth="yes"/>
      <point x="110" y="90"/>
      <point x="101" y="74"/>
      <point x="60" y="74" type="curve" smooth="yes"/>
      <point x="-40" y="74" type="line"/>
      <point x="-40" y="48" type="line" smooth="yes"/>
      <point x="-40" y="12"/>
      <point x="-30" y="0"/>
    </contour>
  </outline>
</glyph>
<glyph name="U-adlam.isol" format="2">
  <advance width="847"/>
  <anchor x="464" y="548" name="vowellengthencomb-adlam.case"/>
  <outline>
    <contour>
      <point x="424" y="-10" type="curve" smooth="yes"/>
      <point x="669" y="-10"/>
      <point x="742" y="84"/>
      <point x="742" y="218" type="curve" smooth="yes"/>
      <point x="742" y="640" type="line" smooth="yes"/>
      <point x="742" y="700"/>
      <point x="727" y="719"/>
      <point x="671" y="719" type="curve" smooth="yes"/>
      <point x="628" y="719"/>
      <point x="572" y="721"/>
      <point x="541" y="728" type="curve"/>
      <point x="530" y="649" type="line"/>
      <point x="549" y="643"/>
      <point x="591" y="641"/>
      <point x="617" y="640" type="curve" smooth="yes"/>
      <point x="645" y="639"/>
      <point x="652" y="629"/>
      <point x="652" y="602" type="curve" smooth="yes"/>
      <point x="652" y="555" type="line" smooth="yes"/>
      <point x="652" y="517"/>
      <point x="645" y="513"/>
      <point x="577" y="472" type="curve" smooth="yes"/>
      <point x="524" y="440"/>
      <point x="510" y="431"/>
      <point x="496" y="421" type="curve"/>
      <point x="491" y="422" type="line"/>
      <point x="492" y="433"/>
      <point x="492" y="444"/>
      <point x="492" y="461" type="curve" smooth="yes"/>
      <point x="492" y="664"/>
      <point x="401" y="724"/>
      <point x="285" y="724" type="curve" smooth="yes"/>
      <point x="172" y="724"/>
      <point x="119" y="664"/>
      <point x="105" y="631" type="curve"/>
      <point x="105" y="218" type="line" smooth="yes"/>
      <point x="105" y="84"/>
      <point x="174" y="-10"/>
    </contour>
    <contour>
      <point x="423" y="69" type="curve" smooth="yes"/>
      <point x="249" y="69"/>
      <point x="195" y="125"/>
      <point x="195" y="236" type="curve" smooth="yes"/>
      <point x="195" y="601" type="line"/>
      <point x="208" y="624"/>
      <point x="237" y="645"/>
      <point x="285" y="645" type="curve" smooth="yes"/>
      <point x="339" y="645"/>
      <point x="402" y="604"/>
      <point x="402" y="455" type="curve" smooth="yes"/>
      <point x="402" y="273"/>
      <point x="302" y="202"/>
      <point x="279" y="186" type="curve"/>
      <point x="339" y="122" type="line"/>
      <point x="369" y="145"/>
      <point x="423" y="197"/>
      <point x="458" y="275" type="curve" smooth="yes"/>
      <point x="483" y="331"/>
      <point x="489" y="338"/>
      <point x="552" y="376" type="curve" smooth="yes"/>
      <point x="617" y="414"/>
      <point x="632" y="425"/>
      <point x="647" y="436" type="curve"/>
      <point x="652" y="435" type="line"/>
      <point x="652" y="236" type="line" smooth="yes"/>
      <point x="652" y="125"/>
      <point x="597" y="69"/>
    </contour>
  </outline>
</glyph>
<glyph name="U-adlam.medi" format="2">
  <advance width="847"/>
  <anchor x="464" y="548" name="vowellengthencomb-adlam.case"/>
  <outline>
    <contour>
      <point x="424" y="-10" type="curve" smooth="yes"/>
      <point x="560" y="-10"/>
      <point x="631" y="21"/>
      <point x="660" y="43" type="curve"/>
      <point x="665" y="43" type="line"/>
      <point x="671" y="19"/>
      <point x="690" y="0"/>
      <point x="765" y="0" type="curve" smooth="yes"/>
      <point x="847" y="0" type="line" smooth="yes"/>
      <point x="877" y="0"/>
      <point x="887" y="12"/>
      <point x="887" y="48" type="curve" smooth="yes"/>
      <point x="887" y="74" type="line"/>
      <point x="792" y="74" type="line" smooth="yes"/>
      <point x="751" y="74"/>
      <point x="742" y="90"/>
      <point x="742" y="132" type="curve" smooth="yes"/>
      <point x="742" y="640" type="line" smooth="yes"/>
      <point x="742" y="700"/>
      <point x="727" y="719"/>
      <point x="671" y="719" type="curve" smooth="yes"/>
      <point x="628" y="719"/>
      <point x="572" y="721"/>
      <point x="541" y="728" type="curve"/>
      <point x="530" y="649" type="line"/>
      <point x="549" y="643"/>
      <point x="591" y="641"/>
      <point x="617" y="640" type="curve" smooth="yes"/>
      <point x="645" y="639"/>
      <point x="652" y="629"/>
      <point x="652" y="602" type="curve" smooth="yes"/>
      <point x="652" y="555" type="line" smooth="yes"/>
      <point x="652" y="517"/>
      <point x="645" y="513"/>
      <point x="577" y="472" type="curve" smooth="yes"/>
      <point x="524" y="440"/>
      <point x="510" y="431"/>
      <point x="496" y="421" type="curve"/>
      <point x="491" y="422" type="line"/>
      <point x="492" y="433"/>
      <point x="492" y="444"/>
      <point x="492" y="461" type="curve" smooth="yes"/>
      <point x="492" y="664"/>
      <point x="401" y="724"/>
      <point x="285" y="724" type="curve" smooth="yes"/>
      <point x="172" y="724"/>
      <point x="119" y="664"/>
      <point x="105" y="631" type="curve"/>
      <point x="105" y="132" type="line" smooth="yes"/>
      <point x="105" y="90"/>
      <point x="96" y="74"/>
      <point x="55" y="74" type="curve" smooth="yes"/>
      <point x="-40" y="74" type="line"/>
      <point x="-40" y="48" type="line" smooth="yes"/>
      <point x="-40" y="12"/>
      <point x="-30" y="0"/>
      <point x="0" y="0" type="curve" smooth="yes"/>
      <point x="82" y="0" type="line" smooth="yes"/>
      <point x="154" y="0"/>
      <point x="173" y="21"/>
      <point x="180" y="43" type="curve"/>
      <point x="185" y="43" type="line"/>
      <point x="213" y="23"/>
      <point x="280" y="-10"/>
    </contour>
    <contour>
      <point x="423" y="69" type="curve" smooth="yes"/>
      <point x="249" y="69"/>
      <point x="195" y="125"/>
      <point x="195" y="236" type="curve" smooth="yes"/>
      <point x="195" y="601" type="line"/>
      <point x="208" y="624"/>
      <point x="237" y="645"/>
      <point x="285" y="645" type="curve" smooth="yes"/>
      <point x="339" y="645"/>
      <point x="402" y="604"/>
      <point x="402" y="455" type="curve" smooth="yes"/>
      <point x="402" y="273"/>
      <point x="302" y="202"/>
      <point x="279" y="186" type="curve"/>
      <point x="339" y="122" type="line"/>
      <point x="369" y="145"/>
      <point x="423" y="197"/>
      <point x="458" y="275" type="curve" smooth="yes"/>
      <point x="483" y="331"/>
      <point x="489" y="338"/>
      <point x="552" y="376" type="curve" smooth="yes"/>
      <point x="617" y="414"/>
      <point x="632" y="425"/>
      <point x="647" y="436" type="curve"/>
      <point x="652" y="435" type="line"/>
      <point x="652" y="236" type="line" smooth="yes"/>
      <point x="652" y="125"/>
      <point x="597" y="69"/>
    </contour>
  </outline>
</glyph>
<glyph name="Va-adlam.isol" format="2">
  <advance width="689"/>
  <anchor x="350" y="663" name="top"/>
  <outline>
    <contour>
      <point x="110" y="0" type="line"/>
      <point x="200" y="0" type="line"/>
      <point x="200" y="577" type="line" smooth="yes"/>
      <point x="200" y="619"/>
      <point x="209" y="635"/>
      <point x="249" y="635" type="curve" smooth="yes"/>
      <point x="489" y="635" type="line"/>
      <point x="489" y="377" type="line"/>
      <point x="305" y="377" type="line"/>
      <point x="305" y="298" type="line"/>
      <point x="489" y="298" type="line"/>
      <point x="489" y="0" type="line"/>
      <point x="579" y="0" type="line"/>
      <point x="579" y="714" type="line"/>
      <point x="222" y="714" type="line" smooth="yes"/>
      <point x="128" y="714"/>
      <point x="110" y="682"/>
      <point x="110" y="596" type="curve" smooth="yes"/>
    </contour>
  </outline>
</glyph>
<glyph name="Waw-adlam.init" format="2">
  <advance width="689"/>
  <anchor x="351" y="663" name="top"/>
  <outline>
    <contour>
      <point x="0" y="0" type="curve" smooth="yes"/>
      <point x="87" y="0" type="line" smooth="yes"/>
      <point x="182" y="0"/>
      <point x="200" y="32"/>
      <point x="200" y="118" type="curve" smooth="yes"/>
      <point x="200" y="298" type="line"/>
      <point x="282" y="298" type="line" smooth="yes"/>
      <point x="339" y="298"/>
      <point x="356" y="284"/>
      <point x="367" y="273" type="curve"/>
      <point x="413" y="338" type="line"/>
      <point x="402" y="351"/>
      <point x="379" y="377"/>
      <point x="306" y="377" type="curve" smooth="yes"/>
      <point x="200" y="377" type="line"/>
      <point x="200" y="577" type="line" smooth="yes"/>
      <point x="200" y="619"/>
      <point x="209" y="635"/>
      <point x="249" y="635" type="curve" smooth="yes"/>
      <point x="489" y="635" type="line"/>
      <point x="489" y="0" type="line"/>
      <point x="579" y="0" type="line"/>
      <point x="579" y="714" type="line"/>
      <point x="228" y="714" type="line" smooth="yes"/>
      <point x="128" y="714"/>
      <point x="110" y="682"/>
      <point x="110" y="596" type="curve" smooth="yes"/>
      <point x="110" y="132" type="line" smooth="yes"/>
      <point x="110" y="90"/>
      <point x="101" y="74"/>
      <point x="60" y="74" type="curve" smooth="yes"/>
      <point x="-40" y="74" type="line"/>
      <point x="-40" y="48" type="line" smooth="yes"/>
      <point x="-40" y="12"/>
      <point x="-30" y="0"/>
    </contour>
  </outline>
</glyph>
<glyph name="Yhe-adlam.init" format="2">
  <advance width="648"/>
  <anchor x="345" y="663" name="top"/>
  <outline>
    <contour>
      <point x="0" y="0" type="curve" smooth="yes"/>
      <point x="593" y="0" type="line"/>
      <point x="593" y="74" type="line"/>
      <point x="342" y="74" type="line" smooth="yes"/>
      <point x="242" y="74"/>
      <point x="165" y="147"/>
      <point x="165" y="268" type="curve" smooth="yes"/>
      <point x="165" y="379"/>
      <point x="210" y="449"/>
      <point x="342" y="449" type="curve" smooth="yes"/>
      <point x="583" y="449" type="line"/>
      <point x="583" y="528" type="line"/>
      <point x="520" y="572"/>
      <point x="377" y="696"/>
      <point x="343" y="735" type="curve"/>
      <point x="278" y="677" type="line"/>
      <point x="308" y="645"/>
      <point x="412" y="559"/>
      <point x="452" y="533" type="curve"/>
      <point x="450" y="528" type="line"/>
      <point x="341" y="528" type="line" smooth="yes"/>
      <point x="154" y="528"/>
      <point x="70" y="423"/>
      <point x="70" y="274" type="curve" smooth="yes"/>
      <point x="70" y="145"/>
      <point x="118" y="91"/>
      <point x="134" y="77" type="curve"/>
      <point x="133" y="74" type="line"/>
      <point x="-40" y="74" type="line"/>
      <point x="-40" y="48" type="line" smooth="yes"/>
      <point x="-40" y="12"/>
      <point x="-30" y="0"/>
    </contour>
  </outline>
</glyph>
<glyph name="Zal-adlam.medi" format="2">
  <advance width="854"/>
  <anchor x="450" y="663" name="top"/>
  <outline>
    <contour>
      <point x="0" y="0" type="curve" smooth="yes"/>
      <point x="87" y="0" type="line" smooth="yes"/>
      <point x="182" y="0"/>
      <point x="200" y="32"/>
      <point x="200" y="118" type="curve" smooth="yes"/>
      <point x="200" y="518" type="line" smooth="yes"/>
      <point x="200" y="612"/>
      <point x="234" y="645"/>
      <point x="292" y="645" type="curve" smooth="yes"/>
      <point x="351" y="645"/>
      <point x="373" y="613"/>
      <point x="383" y="592" type="curve"/>
      <point x="383" y="170" type="line"/>
      <point x="473" y="170" type="line"/>
      <point x="473" y="338" type="line"/>
      <point x="654" y="338" type="line"/>
      <point x="654" y="132" type="line" smooth="yes"/>
      <point x="654" y="90"/>
      <point x="645" y="74"/>
      <point x="604" y="74" type="curve" smooth="yes"/>
      <point x="386" y="74" type="line"/>
      <point x="386" y="0" type="line"/>
      <point x="637" y="0" type="line" smooth="yes"/>
      <point x="693" y="0"/>
      <point x="712" y="12"/>
      <point x="723" y="37" type="curve"/>
      <point x="729" y="37" type="line"/>
      <point x="739" y="12"/>
      <point x="753" y="0"/>
      <point x="794" y="0" type="curve" smooth="yes"/>
      <point x="854" y="0" type="line" smooth="yes"/>
      <point x="884" y="0"/>
      <point x="894" y="12"/>
      <point x="894" y="48" type="curve" smooth="yes"/>
      <point x="894" y="74" type="line"/>
      <point x="794" y="74" type="line" smooth="yes"/>
      <point x="753" y="74"/>
      <point x="744" y="90"/>
      <point x="744" y="132" type="curve" smooth="yes"/>
      <point x="744" y="714" type="line"/>
      <point x="654" y="714" type="line"/>
      <point x="654" y="417" type="line"/>
      <point x="473" y="417" type="line"/>
      <point x="473" y="620" type="line"/>
      <point x="457" y="656"/>
      <point x="412" y="724"/>
      <point x="292" y="724" type="curve" smooth="yes"/>
      <point x="182" y="724"/>
      <point x="110" y="672"/>
      <point x="110" y="531" type="curve" smooth="yes"/>
      <point x="110" y="132" type="line" smooth="yes"/>
      <point x="110" y="90"/>
      <point x="101" y="74"/>
      <point x="60" y="74" type="curve" smooth="yes"/>
      <point x="-40" y="74" type="line"/>
      <point x="-40" y="48" type="line" smooth="yes"/>
      <point x="-40" y="12"/>
      <point x="-30" y="0"/>
    </contour>
  </outline>
</glyph>
<glyph name=".notdef" format="2">
  <advance width="574"/>
  <outline>
    <contour>
      <point x="94" y="0" type="line"/>
      <point x="479" y="0" type="line"/>
      <point x="479" y="714" type="line"/>
      <point x="94" y="714" type="line"/>
    </contour>
    <contour>
      <point x="118" y="24" type="line"/>
      <point x="118" y="690" type="line"/>
      <point x="455" y="690" type="line"/>
      <point x="455" y="24" type="line"/>
    </contour>
  </outline>
</glyph>
<glyph name="alif-adlam.init" format="2">
  <advance width="669"/>
  <anchor x="343" y="565" name="gemconsonanttop"/>
  <anchor x="356" y="565" name="top"/>
  <anchor x="110" y="597" name="topAlif"/>
  <outline>
    <contour>
      <point x="345" y="-10" type="curve" smooth="yes"/>
      <point x="502" y="-10"/>
      <point x="590" y="79"/>
      <point x="590" y="221" type="curve" smooth="yes"/>
      <point x="590" y="334"/>
      <point x="527" y="390"/>
      <point x="506" y="407" type="curve"/>
      <point x="506" y="412" type="line"/>
      <point x="537" y="415"/>
      <point x="577" y="430"/>
      <point x="594" y="443" type="curve"/>
      <point x="566" y="509" type="line"/>
      <point x="544" y="496"/>
      <point x="502" y="482"/>
      <point x="453" y="482" type="curve" smooth="yes"/>
      <point x="379" y="482"/>
      <point x="327" y="511"/>
      <point x="309" y="525" type="curve"/>
      <point x="269" y="458" type="line"/>
      <point x="286" y="444"/>
      <point x="312" y="429"/>
      <point x="356" y="417" type="curve" smooth="yes"/>
      <point x="430" y="396"/>
      <point x="499" y="340"/>
      <point x="499" y="221" type="curve" smooth="yes"/>
      <point x="499" y="119"/>
      <point x="449" y="64"/>
      <point x="345" y="64" type="curve" smooth="yes"/>
      <point x="254" y="64"/>
      <point x="198" y="103"/>
      <point x="198" y="226" type="curve" smooth="yes"/>
      <point x="198" y="644" type="line"/>
      <point x="110" y="644" type="line"/>
      <point x="110" y="132" type="line" smooth="yes"/>
      <point x="110" y="90"/>
      <point x="101" y="74"/>
      <point x="60" y="74" type="curve" smooth="yes"/>
      <point x="-40" y="74" type="line"/>
      <point x="-40" y="48" type="line" smooth="yes"/>
      <point x="-40" y="12"/>
      <point x="-30" y="0"/>
      <point x="0" y="0" type="curve" smooth="yes"/>
      <point x="80" y="0" type="line" smooth="yes"/>
      <point x="137" y="0"/>
      <point x="157" y="18"/>
      <point x="164" y="40" type="curve"/>
      <point x="169" y="40" type="line"/>
      <point x="188" y="23"/>
      <point x="231" y="-10"/>
    </contour>
  </outline>
</glyph>
<glyph name="alif-adlam.isol" format="2">
  <advance width="669"/>
  <anchor x="343" y="565" name="gemconsonanttop"/>
  <anchor x="356" y="565" name="top"/>
  <anchor x="110" y="597" name="topAlif"/>
  <outline>
    <contour>
      <point x="345" y="-10" type="curve" smooth="yes"/>
      <point x="502" y="-10"/>
      <point x="590" y="79"/>
      <point x="590" y="221" type="curve" smooth="yes"/>
      <point x="590" y="334"/>
      <point x="527" y="390"/>
      <point x="506" y="407" type="curve"/>
      <point x="506" y="412" type="line"/>
      <point x="537" y="415"/>
      <point x="577" y="430"/>
      <point x="594" y="443" type="curve"/>
      <point x="566" y="509" type="line"/>
      <point x="544" y="496"/>
      <point x="502" y="482"/>
      <point x="453" y="482" type="curve" smooth="yes"/>
      <point x="379" y="482"/>
      <point x="327" y="511"/>
      <point x="309" y="525" type="curve"/>
      <point x="269" y="458" type="line"/>
      <point x="286" y="444"/>
      <point x="312" y="429"/>
      <point x="356" y="417" type="curve" smooth="yes"/>
      <point x="430" y="396"/>
      <point x="499" y="340"/>
      <point x="499" y="221" type="curve" smooth="yes"/>
      <point x="499" y="119"/>
      <point x="449" y="64"/>
      <point x="345" y="64" type="curve" smooth="yes"/>
      <point x="254" y="64"/>
      <point x="198" y="103"/>
      <point x="198" y="226" type="curve" smooth="yes"/>
      <point x="198" y="644" type="line"/>
      <point x="110" y="644" type="line"/>
      <point x="110" y="226" type="line" smooth="yes"/>
      <point x="110" y="50"/>
      <point x="185" y="-10"/>
    </contour>
  </outline>
</glyph>
<glyph name="aliflengthencomb-adlam.case" format="2">
  <note>
uni1E944
</note>
  <anchor x="196" y="744" name="_topAlif"/>
  <outline>
    <contour>
      <point x="337" y="774" type="curve"/>
      <point x="364" y="840" type="line"/>
      <point x="274" y="868"/>
      <point x="152" y="955"/>
      <point x="110" y="1004" type="curve"/>
      <point x="50" y="945" type="line"/>
      <point x="106" y="885"/>
      <point x="230" y="806"/>
    </contour>
  </outline>
</glyph>
<glyph name="apostrophe-adlam.fina" format="2">
  <advance width="142"/>
  <outline>
    <contour>
      <point x="35" y="491" type="line"/>
      <point x="107" y="491" type="line"/>
      <point x="117" y="714" type="line"/>
      <point x="25" y="714" type="line"/>
    </contour>
    <contour>
      <point x="30" y="0" type="line"/>
      <point x="142" y="0" type="line" smooth="yes"/>
      <point x="172" y="0"/>
      <point x="182" y="12"/>
      <point x="182" y="48" type="curve" smooth="yes"/>
      <point x="182" y="74" type="line"/>
      <point x="30" y="74" type="line"/>
    </contour>
  </outline>
</glyph>
<glyph name="apostrophe-adlam.init" format="2">
  <advance width="142"/>
  <outline>
    <contour>
      <point x="35" y="491" type="line"/>
      <point x="107" y="491" type="line"/>
      <point x="117" y="714" type="line"/>
      <point x="25" y="714" type="line"/>
    </contour>
    <contour>
      <point x="0" y="0" type="curve" smooth="yes"/>
      <point x="112" y="0" type="line"/>
      <point x="112" y="74" type="line"/>
      <point x="-40" y="74" type="line"/>
      <point x="-40" y="48" type="line" smooth="yes"/>
      <point x="-40" y="12"/>
      <point x="-30" y="0"/>
    </contour>
  </outline>
</glyph>
<glyph name="apostrophe-adlam.isol" format="2">
  <advance width="142"/>
  <outline>
    <contour>
      <point x="35" y="491" type="line"/>
      <point x="107" y="491" type="line"/>
      <point x="117" y="714" type="line"/>
      <point x="25" y="714" type="line"/>
    </contour>
  </outline>
</glyph>
<glyph name="apostrophe-adlam.medi" format="2">
  <advance width="142"/>
  <outline>
    <contour>
      <point x="35" y="491" type="line"/>
      <point x="107" y="491" type="line"/>
      <point x="117" y="714" type="line"/>
      <point x="25" y="714" type="line"/>
    </contour>
    <contour>
      <point x="0" y="0" type="curve" smooth="yes"/>
      <point x="142" y="0" type="line" smooth="yes"/>
      <point x="172" y="0"/>
      <point x="182" y="12"/>
      <point x="182" y="48" type="curve" smooth="yes"/>
      <point x="182" y="74" type="line"/>
      <point x="-40" y="74" type="line"/>
      <point x="-40" y="48" type="line" smooth="yes"/>
      <point x="-40" y="12"/>
      <point x="-30" y="0"/>
    </contour>
  </outline>
</glyph>
<glyph name="bhe-adlam.fina" format="2">
  <advance width="581"/>
  <anchor x="292" y="581" name="top"/>
  <outline>
    <contour>
      <point x="83" y="0" type="line"/>
      <point x="369" y="0" type="line" smooth="yes"/>
      <point x="425" y="0"/>
      <point x="444" y="12"/>
      <point x="455" y="37" type="curve"/>
      <point x="461" y="37" type="line"/>
      <point x="471" y="12"/>
      <point x="485" y="0"/>
      <point x="526" y="0" type="curve" smooth="yes"/>
      <point x="581" y="0" type="line" smooth="yes"/>
      <point x="611" y="0"/>
      <point x="621" y="12"/>
      <point x="621" y="48" type="curve" smooth="yes"/>
      <point x="621" y="74" type="line"/>
      <point x="526" y="74" type="line" smooth="yes"/>
      <point x="485" y="74"/>
      <point x="476" y="90"/>
      <point x="476" y="132" type="curve" smooth="yes"/>
      <point x="476" y="443" type="line"/>
      <point x="388" y="443" type="line"/>
      <point x="388" y="314" type="line"/>
      <point x="375" y="300"/>
      <point x="328" y="272"/>
      <point x="265" y="272" type="curve" smooth="yes"/>
      <point x="206" y="272"/>
      <point x="171" y="295"/>
      <point x="171" y="354" type="curve" smooth="yes"/>
      <point x="171" y="414"/>
      <point x="205" y="437"/>
      <point x="287" y="479" type="curve" smooth="yes"/>
      <point x="388" y="531"/>
      <point x="436" y="568"/>
      <point x="474" y="610" type="curve"/>
      <point x="421" y="665" type="line"/>
      <point x="390" y="629"/>
      <point x="336" y="591"/>
      <point x="251" y="547" type="curve" smooth="yes"/>
      <point x="148" y="494"/>
      <point x="80" y="450"/>
      <point x="80" y="342" type="curve" smooth="yes"/>
      <point x="80" y="241"/>
      <point x="147" y="198"/>
      <point x="236" y="198" type="curve" smooth="yes"/>
      <point x="316" y="198"/>
      <point x="362" y="225"/>
      <point x="383" y="245" type="curve"/>
      <point x="388" y="244" type="line"/>
      <point x="388" y="140" type="line" smooth="yes"/>
      <point x="388" y="86"/>
      <point x="380" y="74"/>
      <point x="325" y="74" type="curve" smooth="yes"/>
      <point x="83" y="74" type="line"/>
    </contour>
  </outline>
</glyph>
<glyph name="bhe-adlam.init" format="2">
  <advance width="581"/>
  <anchor x="292" y="581" name="top"/>
  <outline>
    <contour>
      <point x="0" y="0" type="curve" smooth="yes"/>
      <point x="360" y="0" type="line" smooth="yes"/>
      <point x="464" y="0"/>
      <point x="476" y="27"/>
      <point x="476" y="119" type="curve" smooth="yes"/>
      <point x="476" y="443" type="line"/>
      <point x="388" y="443" type="line"/>
      <point x="388" y="314" type="line"/>
      <point x="375" y="300"/>
      <point x="328" y="272"/>
      <point x="265" y="272" type="curve" smooth="yes"/>
      <point x="206" y="272"/>
      <point x="171" y="295"/>
      <point x="171" y="354" type="curve" smooth="yes"/>
      <point x="171" y="414"/>
      <point x="205" y="437"/>
      <point x="287" y="479" type="curve" smooth="yes"/>
      <point x="388" y="531"/>
      <point x="436" y="568"/>
      <point x="474" y="610" type="curve"/>
      <point x="421" y="665" type="line"/>
      <point x="390" y="629"/>
      <point x="336" y="591"/>
      <point x="251" y="547" type="curve" smooth="yes"/>
      <point x="148" y="494"/>
      <point x="80" y="450"/>
      <point x="80" y="342" type="curve" smooth="yes"/>
      <point x="80" y="241"/>
      <point x="147" y="198"/>
      <point x="236" y="198" type="curve" smooth="yes"/>
      <point x="316" y="198"/>
      <point x="362" y="225"/>
      <point x="383" y="245" type="curve"/>
      <point x="388" y="244" type="line"/>
      <point x="388" y="140" type="line" smooth="yes"/>
      <point x="388" y="86"/>
      <point x="380" y="74"/>
      <point x="325" y="74" type="curve" smooth="yes"/>
      <point x="-40" y="74" type="line"/>
      <point x="-40" y="48" type="line" smooth="yes"/>
      <point x="-40" y="12"/>
      <point x="-30" y="0"/>
    </contour>
  </outline>
</glyph>
<glyph name="connector-stub-left" format="2">
  <advance width="75"/>
  <outline>
    <contour>
      <point x="0" y="0" type="curve" smooth="yes"/>
      <point x="75" y="0" type="line"/>
      <point x="75" y="74" type="line"/>
      <point x="-40" y="74" type="line"/>
      <point x="-40" y="48" type="line" smooth="yes"/>
      <point x="-40" y="12"/>
      <point x="-30" y="0"/>
    </contour>
  </outline>
</glyph>
<glyph name="connector-stub-right" format="2">
  <advance width="75"/>
  <outline>
    <contour>
      <point x="0" y="0" type="line"/>
      <point x="75" y="0" type="line" smooth="yes"/>
      <point x="105" y="0"/>
      <point x="115" y="12"/>
      <point x="115" y="48" type="curve" smooth="yes"/>
      <point x="115" y="74" type="line"/>
      <point x="0" y="74" type="line"/>
    </contour>
  </outline>
</glyph>
<glyph name="daali-adlam.medi" format="2">
  <advance width="625"/>
  <anchor x="289" y="565" name="gemconsonanttop"/>
  <anchor x="300" y="565" name="top"/>
  <outline>
    <contour>
      <point x="0" y="0" type="curve" smooth="yes"/>
      <point x="403" y="0" type="line" smooth="yes"/>
      <point x="438" y="0"/>
      <point x="457" y="7"/>
      <point x="468" y="27" type="curve"/>
      <point x="474" y="27" type="line"/>
      <point x="484" y="7"/>
      <point x="498" y="0"/>
      <point x="539" y="0" type="curve" smooth="yes"/>
      <point x="625" y="0" type="line" smooth="yes"/>
      <point x="655" y="0"/>
      <point x="665" y="12"/>
      <point x="665" y="48" type="curve" smooth="yes"/>
      <point x="665" y="74" type="line"/>
      <point x="565" y="74" type="line" smooth="yes"/>
      <point x="524" y="74"/>
      <point x="515" y="90"/>
      <point x="515" y="132" type="curve" smooth="yes"/>
      <point x="515" y="575" type="line"/>
      <point x="427" y="575" type="line"/>
      <point x="427" y="252" type="line"/>
      <point x="422" y="251" type="line"/>
      <point x="402" y="280"/>
      <point x="371" y="294"/>
      <point x="289" y="313" type="curve" smooth="yes"/>
      <point x="193" y="335"/>
      <point x="173" y="352"/>
      <point x="173" y="433" type="curve" smooth="yes"/>
      <point x="173" y="575" type="line"/>
      <point x="85" y="575" type="line"/>
      <point x="85" y="433" type="line" smooth="yes"/>
      <point x="85" y="302"/>
      <point x="134" y="272"/>
      <point x="269" y="242" type="curve" smooth="yes"/>
      <point x="404" y="212"/>
      <point x="427" y="177"/>
      <point x="427" y="121" type="curve" smooth="yes"/>
      <point x="427" y="86"/>
      <point x="419" y="74"/>
      <point x="364" y="74" type="curve" smooth="yes"/>
      <point x="-40" y="74" type="line"/>
      <point x="-40" y="48" type="line" smooth="yes"/>
      <point x="-40" y="12"/>
      <point x="-30" y="0"/>
    </contour>
  </outline>
</glyph>
<glyph name="daali-adlam.medisol" format="2">
  <advance width="625"/>
  <anchor x="296" y="575" name="gemconsonanttop"/>
  <anchor x="289" y="575" name="top"/>
  <outline>
    <contour>
      <point x="85" y="0" type="line"/>
      <point x="399" y="0" type="line" smooth="yes"/>
      <point x="503" y="0"/>
      <point x="515" y="27"/>
      <point x="515" y="119" type="curve" smooth="yes"/>
      <point x="515" y="575" type="line"/>
      <point x="427" y="575" type="line"/>
      <point x="427" y="252" type="line"/>
      <point x="422" y="251" type="line"/>
      <point x="402" y="280"/>
      <point x="371" y="294"/>
      <point x="289" y="313" type="curve" smooth="yes"/>
      <point x="193" y="335"/>
      <point x="173" y="352"/>
      <point x="173" y="433" type="curve" smooth="yes"/>
      <point x="173" y="575" type="line"/>
      <point x="85" y="575" type="line"/>
      <point x="85" y="433" type="line" smooth="yes"/>
      <point x="85" y="302"/>
      <point x="134" y="272"/>
      <point x="269" y="242" type="curve" smooth="yes"/>
      <point x="404" y="212"/>
      <point x="427" y="177"/>
      <point x="427" y="121" type="curve" smooth="yes"/>
      <point x="427" y="86"/>
      <point x="419" y="74"/>
      <point x="364" y="74" type="curve" smooth="yes"/>
      <point x="85" y="74" type="line"/>
    </contour>
  </outline>
</glyph>
<glyph name="dha-adlam.fina" format="2">
  <advance width="737"/>
  <anchor x="358" y="640" name="top"/>
  <outline>
    <contour>
      <point x="368" y="-10" type="curve" smooth="yes"/>
      <point x="486" y="-10"/>
      <point x="535" y="26"/>
      <point x="551" y="40" type="curve"/>
      <point x="556" y="40" type="line"/>
      <point x="565" y="23"/>
      <point x="587" y="0"/>
      <point x="646" y="0" type="curve" smooth="yes"/>
      <point x="737" y="0" type="line" smooth="yes"/>
      <point x="767" y="0"/>
      <point x="777" y="12"/>
      <point x="777" y="48" type="curve" smooth="yes"/>
      <point x="777" y="74" type="line"/>
      <point x="677" y="74" type="line" smooth="yes"/>
      <point x="636" y="74"/>
      <point x="627" y="90"/>
      <point x="627" y="132" type="curve" smooth="yes"/>
      <point x="627" y="714" type="line"/>
      <point x="539" y="714" type="line"/>
      <point x="539" y="484" type="line"/>
      <point x="534" y="482" type="line"/>
      <point x="518" y="511"/>
      <point x="478" y="564"/>
      <point x="372" y="564" type="curve" smooth="yes"/>
      <point x="266" y="564"/>
      <point x="219" y="506"/>
      <point x="204" y="482" type="curve"/>
      <point x="199" y="484" type="line"/>
      <point x="198" y="575" type="line"/>
      <point x="110" y="575" type="line"/>
      <point x="110" y="238" type="line" smooth="yes"/>
      <point x="110" y="69"/>
      <point x="166" y="-10"/>
    </contour>
    <contour>
      <point x="368" y="64" type="curve" smooth="yes"/>
      <point x="240" y="64"/>
      <point x="198" y="121"/>
      <point x="198" y="228" type="curve" smooth="yes"/>
      <point x="198" y="277" type="line" smooth="yes"/>
      <point x="198" y="388"/>
      <point x="233" y="490"/>
      <point x="371" y="490" type="curve" smooth="yes"/>
      <point x="493" y="490"/>
      <point x="539" y="397"/>
      <point x="539" y="285" type="curve" smooth="yes"/>
      <point x="539" y="228" type="line" smooth="yes"/>
      <point x="539" y="120"/>
      <point x="496" y="64"/>
    </contour>
  </outline>
</glyph>
<glyph name="dha-adlam.init" format="2">
  <advance width="737"/>
  <anchor x="358" y="640" name="top"/>
  <outline>
    <contour>
      <point x="363" y="-10" type="curve" smooth="yes"/>
      <point x="562" y="-10"/>
      <point x="627" y="69"/>
      <point x="627" y="238" type="curve" smooth="yes"/>
      <point x="627" y="714" type="line"/>
      <point x="539" y="714" type="line"/>
      <point x="539" y="484" type="line"/>
      <point x="534" y="482" type="line"/>
      <point x="518" y="511"/>
      <point x="478" y="564"/>
      <point x="372" y="564" type="curve" smooth="yes"/>
      <point x="266" y="564"/>
      <point x="219" y="506"/>
      <point x="204" y="482" type="curve"/>
      <point x="199" y="484" type="line"/>
      <point x="198" y="575" type="line"/>
      <point x="110" y="575" type="line"/>
      <point x="110" y="132" type="line" smooth="yes"/>
      <point x="110" y="90"/>
      <point x="101" y="74"/>
      <point x="60" y="74" type="curve" smooth="yes"/>
      <point x="-40" y="74" type="line"/>
      <point x="-40" y="48" type="line" smooth="yes"/>
      <point x="-40" y="12"/>
      <point x="-30" y="0"/>
      <point x="0" y="0" type="curve" smooth="yes"/>
      <point x="73" y="0" type="line" smooth="yes"/>
      <point x="138" y="0"/>
      <point x="168" y="19"/>
      <point x="180" y="40" type="curve"/>
      <point x="185" y="40" type="line"/>
      <point x="202" y="25"/>
      <point x="250" y="-10"/>
    </contour>
    <contour>
      <point x="368" y="64" type="curve" smooth="yes"/>
      <point x="240" y="64"/>
      <point x="198" y="121"/>
      <point x="198" y="228" type="curve" smooth="yes"/>
      <point x="198" y="277" type="line" smooth="yes"/>
      <point x="198" y="388"/>
      <point x="233" y="490"/>
      <point x="371" y="490" type="curve" smooth="yes"/>
      <point x="493" y="490"/>
      <point x="539" y="397"/>
      <point x="539" y="285" type="curve" smooth="yes"/>
      <point x="539" y="228" type="line" smooth="yes"/>
      <point x="539" y="120"/>
      <point x="496" y="64"/>
    </contour>
  </outline>
</glyph>
<glyph name="e-adlam.fina" format="2">
  <advance width="680"/>
  <anchor x="333" y="0" name="bottom"/>
  <anchor x="340" y="565" name="top"/>
  <outline>
    <contour>
      <point x="536" y="-63" type="line"/>
      <point x="546" y="-54"/>
      <point x="570" y="-33"/>
      <point x="589" y="0" type="curve"/>
      <point x="680" y="0" type="line" smooth="yes"/>
      <point x="710" y="0"/>
      <point x="720" y="12"/>
      <point x="720" y="48" type="curve" smooth="yes"/>
      <point x="720" y="74" type="line"/>
      <point x="616" y="74" type="line"/>
      <point x="619" y="87"/>
      <point x="620" y="100"/>
      <point x="620" y="115" type="curve" smooth="yes"/>
      <point x="620" y="239"/>
      <point x="544" y="270"/>
      <point x="496" y="281" type="curve"/>
      <point x="496" y="286" type="line"/>
      <point x="538" y="317"/>
      <point x="580" y="350"/>
      <point x="580" y="434" type="curve" smooth="yes"/>
      <point x="580" y="533"/>
      <point x="517" y="585"/>
      <point x="355" y="585" type="curve" smooth="yes"/>
      <point x="190" y="585"/>
      <point x="100" y="526"/>
      <point x="100" y="354" type="curve" smooth="yes"/>
      <point x="100" y="0" type="line"/>
      <point x="188" y="0" type="line"/>
      <point x="188" y="356" type="line" smooth="yes"/>
      <point x="188" y="465"/>
      <point x="239" y="511"/>
      <point x="353" y="511" type="curve" smooth="yes"/>
      <point x="454" y="511"/>
      <point x="489" y="481"/>
      <point x="489" y="430" type="curve" smooth="yes"/>
      <point x="489" y="374"/>
      <point x="453" y="350"/>
      <point x="377" y="299" type="curve" smooth="yes"/>
      <point x="303" y="249"/>
      <point x="240" y="205"/>
      <point x="240" y="124" type="curve" smooth="yes"/>
      <point x="240" y="28"/>
      <point x="297" y="0"/>
      <point x="380" y="0" type="curve" smooth="yes"/>
      <point x="473" y="0" type="line"/>
      <point x="473" y="74" type="line"/>
      <point x="384" y="74" type="line" smooth="yes"/>
      <point x="351" y="74"/>
      <point x="331" y="85"/>
      <point x="331" y="124" type="curve" smooth="yes"/>
      <point x="331" y="170"/>
      <point x="366" y="200"/>
      <point x="412" y="233" type="curve"/>
      <point x="469" y="224"/>
      <point x="529" y="183"/>
      <point x="529" y="101" type="curve" smooth="yes"/>
      <point x="529" y="38"/>
      <point x="498" y="-13"/>
      <point x="484" y="-29" type="curve"/>
    </contour>
  </outline>
</glyph>
<glyph name="fa-adlam.init" format="2">
  <advance width="641"/>
  <anchor x="331" y="565" name="top"/>
  <outline>
    <contour>
      <point x="0" y="0" type="curve" smooth="yes"/>
      <point x="85" y="0" type="line" smooth="yes"/>
      <point x="180" y="0"/>
      <point x="198" y="32"/>
      <point x="198" y="118" type="curve" smooth="yes"/>
      <point x="198" y="247" type="line"/>
      <point x="222" y="285"/>
      <point x="270" y="327"/>
      <point x="360" y="327" type="curve" smooth="yes"/>
      <point x="446" y="327"/>
      <point x="480" y="279"/>
      <point x="480" y="184" type="curve" smooth="yes"/>
      <point x="480" y="102"/>
      <point x="462" y="74"/>
      <point x="388" y="74" type="curve" smooth="yes"/>
      <point x="287" y="74" type="line"/>
      <point x="287" y="0" type="line"/>
      <point x="388" y="0" type="line" smooth="yes"/>
      <point x="503" y="0"/>
      <point x="571" y="30"/>
      <point x="571" y="189" type="curve" smooth="yes"/>
      <point x="571" y="333"/>
      <point x="502" y="401"/>
      <point x="376" y="401" type="curve" smooth="yes"/>
      <point x="290" y="401"/>
      <point x="233" y="365"/>
      <point x="203" y="329" type="curve"/>
      <point x="198" y="330" type="line"/>
      <point x="198" y="435" type="line" smooth="yes"/>
      <point x="198" y="489"/>
      <point x="205" y="501"/>
      <point x="261" y="501" type="curve" smooth="yes"/>
      <point x="540" y="501" type="line"/>
      <point x="540" y="575" type="line"/>
      <point x="226" y="575" type="line" smooth="yes"/>
      <point x="122" y="575"/>
      <point x="110" y="547"/>
      <point x="110" y="456" type="curve" smooth="yes"/>
      <point x="110" y="132" type="line" smooth="yes"/>
      <point x="110" y="90"/>
      <point x="101" y="74"/>
      <point x="60" y="74" type="curve" smooth="yes"/>
      <point x="-40" y="74" type="line"/>
      <point x="-40" y="48" type="line" smooth="yes"/>
      <point x="-40" y="12"/>
      <point x="-30" y="0"/>
    </contour>
  </outline>
</glyph>
<glyph name="ga-adlam.fina" format="2">
  <advance width="585"/>
  <anchor x="291" y="615" name="gemconsonanttop"/>
  <anchor x="294" y="640" name="top"/>
  <outline>
    <contour>
      <point x="70" y="0" type="line"/>
      <point x="314" y="0" type="line" smooth="yes"/>
      <point x="430" y="0"/>
      <point x="459" y="26"/>
      <point x="471" y="40" type="curve"/>
      <point x="476" y="40" type="line"/>
      <point x="479" y="23"/>
      <point x="494" y="0"/>
      <point x="545" y="0" type="curve" smooth="yes"/>
      <point x="585" y="0" type="line" smooth="yes"/>
      <point x="615" y="0"/>
      <point x="625" y="12"/>
      <point x="625" y="48" type="curve" smooth="yes"/>
      <point x="625" y="74" type="line"/>
      <point x="555" y="74" type="line" smooth="yes"/>
      <point x="509" y="74"/>
      <point x="505" y="88"/>
      <point x="505" y="157" type="curve" smooth="yes"/>
      <point x="505" y="271"/>
      <point x="441" y="299"/>
      <point x="406" y="311" type="curve"/>
      <point x="406" y="316" type="line"/>
      <point x="441" y="329"/>
      <point x="497" y="369"/>
      <point x="497" y="449" type="curve" smooth="yes"/>
      <point x="497" y="550"/>
      <point x="441" y="575"/>
      <point x="351" y="575" type="curve" smooth="yes"/>
      <point x="275" y="575" type="line"/>
      <point x="275" y="501" type="line"/>
      <point x="337" y="501" type="line" smooth="yes"/>
      <point x="380" y="501"/>
      <point x="406" y="491"/>
      <point x="406" y="433" type="curve" smooth="yes"/>
      <point x="406" y="359"/>
      <point x="364" y="342"/>
      <point x="268" y="342" type="curve" smooth="yes"/>
      <point x="175" y="342"/>
      <point x="158" y="354"/>
      <point x="158" y="412" type="curve" smooth="yes"/>
      <point x="158" y="714" type="line"/>
      <point x="70" y="714" type="line"/>
      <point x="70" y="412" type="line" smooth="yes"/>
      <point x="70" y="281"/>
      <point x="90" y="268"/>
      <point x="251" y="268" type="curve" smooth="yes"/>
      <point x="380" y="268"/>
      <point x="414" y="234"/>
      <point x="414" y="156" type="curve" smooth="yes"/>
      <point x="414" y="97"/>
      <point x="397" y="74"/>
      <point x="313" y="74" type="curve" smooth="yes"/>
      <point x="70" y="74" type="line"/>
    </contour>
  </outline>
</glyph>
<glyph name="ga-adlam.medisol" format="2">
  <advance width="585"/>
  <anchor x="291" y="575" name="gemconsonanttop"/>
  <anchor x="294" y="575" name="top"/>
  <outline>
    <contour>
      <point x="70" y="0" type="line"/>
      <point x="314" y="0" type="line" smooth="yes"/>
      <point x="458" y="0"/>
      <point x="505" y="34"/>
      <point x="505" y="157" type="curve" smooth="yes"/>
      <point x="505" y="271"/>
      <point x="441" y="299"/>
      <point x="406" y="311" type="curve"/>
      <point x="406" y="316" type="line"/>
      <point x="441" y="329"/>
      <point x="497" y="369"/>
      <point x="497" y="449" type="curve" smooth="yes"/>
      <point x="497" y="550"/>
      <point x="441" y="575"/>
      <point x="351" y="575" type="curve" smooth="yes"/>
      <point x="275" y="575" type="line"/>
      <point x="275" y="501" type="line"/>
      <point x="337" y="501" type="line" smooth="yes"/>
      <point x="380" y="501"/>
      <point x="406" y="491"/>
      <point x="406" y="433" type="curve" smooth="yes"/>
      <point x="406" y="359"/>
      <point x="364" y="342"/>
      <point x="268" y="342" type="curve" smooth="yes"/>
      <point x="175" y="342"/>
      <point x="158" y="354"/>
      <point x="158" y="412" type="curve" smooth="yes"/>
      <point x="158" y="637" type="line"/>
      <point x="70" y="637" type="line"/>
      <point x="70" y="412" type="line" smooth="yes"/>
      <point x="70" y="281"/>
      <point x="90" y="268"/>
      <point x="251" y="268" type="curve" smooth="yes"/>
      <point x="380" y="268"/>
      <point x="414" y="234"/>
      <point x="414" y="156" type="curve" smooth="yes"/>
      <point x="414" y="97"/>
      <point x="397" y="74"/>
      <point x="313" y="74" type="curve" smooth="yes"/>
      <point x="70" y="74" type="line"/>
    </contour>
  </outline>
</glyph>
<glyph name="ha-adlam.isol" format="2">
  <advance width="583"/>
  <anchor x="271" y="565" name="gemconsonanttop"/>
  <anchor x="268" y="565" name="top"/>
  <outline>
    <contour>
      <point x="55" y="0" type="line"/>
      <point x="224" y="0" type="line" smooth="yes"/>
      <point x="382" y="0"/>
      <point x="493" y="59"/>
      <point x="493" y="263" type="curve" smooth="yes"/>
      <point x="493" y="468"/>
      <point x="378" y="530"/>
      <point x="224" y="530" type="curve" smooth="yes"/>
      <point x="176" y="530" type="line" smooth="yes"/>
      <point x="157" y="530"/>
      <point x="149" y="538"/>
      <point x="149" y="567" type="curve" smooth="yes"/>
      <point x="149" y="618" type="line"/>
      <point x="61" y="618" type="line"/>
      <point x="61" y="525" type="line" smooth="yes"/>
      <point x="61" y="471"/>
      <point x="76" y="456"/>
      <point x="125" y="456" type="curve" smooth="yes"/>
      <point x="209" y="456" type="line" smooth="yes"/>
      <point x="317" y="456"/>
      <point x="402" y="414"/>
      <point x="402" y="261" type="curve" smooth="yes"/>
      <point x="402" y="112"/>
      <point x="322" y="74"/>
      <point x="224" y="74" type="curve" smooth="yes"/>
      <point x="55" y="74" type="line"/>
    </contour>
  </outline>
</glyph>
<glyph name="ha-adlam.medi" format="2">
  <advance width="583"/>
  <anchor x="271" y="565" name="gemconsonanttop"/>
  <anchor x="268" y="565" name="top"/>
  <outline>
    <contour>
      <point x="0" y="0" type="curve" smooth="yes"/>
      <point x="224" y="0" type="line" smooth="yes"/>
      <point x="300" y="0"/>
      <point x="365" y="14"/>
      <point x="413" y="51" type="curve"/>
      <point x="419" y="51" type="line"/>
      <point x="425" y="26"/>
      <point x="440" y="0"/>
      <point x="518" y="0" type="curve" smooth="yes"/>
      <point x="583" y="0" type="line" smooth="yes"/>
      <point x="613" y="0"/>
      <point x="623" y="12"/>
      <point x="623" y="48" type="curve" smooth="yes"/>
      <point x="623" y="74" type="line"/>
      <point x="536" y="74" type="line" smooth="yes"/>
      <point x="495" y="74"/>
      <point x="486" y="90"/>
      <point x="486" y="125" type="curve" smooth="yes"/>
      <point x="486" y="161"/>
      <point x="493" y="205"/>
      <point x="493" y="263" type="curve" smooth="yes"/>
      <point x="493" y="468"/>
      <point x="378" y="530"/>
      <point x="224" y="530" type="curve" smooth="yes"/>
      <point x="176" y="530" type="line" smooth="yes"/>
      <point x="157" y="530"/>
      <point x="149" y="538"/>
      <point x="149" y="567" type="curve" smooth="yes"/>
      <point x="149" y="618" type="line"/>
      <point x="61" y="618" type="line"/>
      <point x="61" y="525" type="line" smooth="yes"/>
      <point x="61" y="471"/>
      <point x="76" y="456"/>
      <point x="125" y="456" type="curve" smooth="yes"/>
      <point x="209" y="456" type="line" smooth="yes"/>
      <point x="317" y="456"/>
      <point x="402" y="414"/>
      <point x="402" y="261" type="curve" smooth="yes"/>
      <point x="402" y="112"/>
      <point x="322" y="74"/>
      <point x="224" y="74" type="curve" smooth="yes"/>
      <point x="-40" y="74" type="line"/>
      <point x="-40" y="48" type="line" smooth="yes"/>
      <point x="-40" y="12"/>
      <point x="-30" y="0"/>
    </contour>
  </outline>
</glyph>
<glyph name="i-adlam.fina" format="2">
  <advance width="722"/>
  <anchor x="361" y="565" name="top"/>
  <outline>
    <contour>
      <point x="359" y="-10" type="curve" smooth="yes"/>
      <point x="488" y="-10"/>
      <point x="537" y="24"/>
      <point x="555" y="40" type="curve"/>
      <point x="560" y="40" type="line"/>
      <point x="567" y="24"/>
      <point x="585" y="0"/>
      <point x="653" y="0" type="curve" smooth="yes"/>
      <point x="722" y="0" type="line" smooth="yes"/>
      <point x="752" y="0"/>
      <point x="762" y="12"/>
      <point x="762" y="48" type="curve" smooth="yes"/>
      <point x="762" y="74" type="line"/>
      <point x="662" y="74" type="line" smooth="yes"/>
      <point x="621" y="74"/>
      <point x="612" y="90"/>
      <point x="612" y="132" type="curve" smooth="yes"/>
      <point x="612" y="575" type="line"/>
      <point x="524" y="575" type="line"/>
      <point x="524" y="216" type="line" smooth="yes"/>
      <point x="524" y="104"/>
      <point x="479" y="64"/>
      <point x="361" y="64" type="curve" smooth="yes"/>
      <point x="244" y="64"/>
      <point x="198" y="104"/>
      <point x="198" y="216" type="curve" smooth="yes"/>
      <point x="198" y="575" type="line"/>
      <point x="110" y="575" type="line"/>
      <point x="110" y="186" type="line" smooth="yes"/>
      <point x="110" y="43"/>
      <point x="192" y="-10"/>
    </contour>
  </outline>
</glyph>
<glyph name="i-adlam.isol" format="2">
  <advance width="722"/>
  <anchor x="361" y="565" name="top"/>
  <outline>
    <contour>
      <point x="359" y="-10" type="curve" smooth="yes"/>
      <point x="526" y="-10"/>
      <point x="612" y="43"/>
      <point x="612" y="186" type="curve" smooth="yes"/>
      <point x="612" y="575" type="line"/>
      <point x="524" y="575" type="line"/>
      <point x="524" y="216" type="line" smooth="yes"/>
      <point x="524" y="104"/>
      <point x="479" y="64"/>
      <point x="361" y="64" type="curve" smooth="yes"/>
      <point x="244" y="64"/>
      <point x="198" y="104"/>
      <point x="198" y="216" type="curve" smooth="yes"/>
      <point x="198" y="575" type="line"/>
      <point x="110" y="575" type="line"/>
      <point x="110" y="186" type="line" smooth="yes"/>
      <point x="110" y="43"/>
      <point x="192" y="-10"/>
    </contour>
  </outline>
</glyph>
<glyph name="i-adlam.medi" format="2">
  <advance width="722"/>
  <anchor x="374" y="640" name="top"/>
  <outline>
    <contour>
      <point x="359" y="-10" type="curve" smooth="yes"/>
      <point x="488" y="-10"/>
      <point x="537" y="24"/>
      <point x="555" y="40" type="curve"/>
      <point x="560" y="40" type="line"/>
      <point x="567" y="24"/>
      <point x="585" y="0"/>
      <point x="653" y="0" type="curve" smooth="yes"/>
      <point x="722" y="0" type="line" smooth="yes"/>
      <point x="752" y="0"/>
      <point x="762" y="12"/>
      <point x="762" y="48" type="curve" smooth="yes"/>
      <point x="762" y="74" type="line"/>
      <point x="662" y="74" type="line" smooth="yes"/>
      <point x="621" y="74"/>
      <point x="612" y="90"/>
      <point x="612" y="132" type="curve" smooth="yes"/>
      <point x="612" y="575" type="line"/>
      <point x="524" y="575" type="line"/>
      <point x="524" y="216" type="line" smooth="yes"/>
      <point x="524" y="104"/>
      <point x="479" y="64"/>
      <point x="361" y="64" type="curve" smooth="yes"/>
      <point x="244" y="64"/>
      <point x="198" y="104"/>
      <point x="198" y="216" type="curve" smooth="yes"/>
      <point x="198" y="714" type="line"/>
      <point x="110" y="714" type="line"/>
      <point x="110" y="132" type="line" smooth="yes"/>
      <point x="110" y="90"/>
      <point x="101" y="74"/>
      <point x="60" y="74" type="curve" smooth="yes"/>
      <point x="-40" y="74" type="line"/>
      <point x="-40" y="48" type="line" smooth="yes"/>
      <point x="-40" y="12"/>
      <point x="-30" y="0"/>
      <point x="0" y="0" type="curve" smooth="yes"/>
      <point x="60" y="0" type="line" smooth="yes"/>
      <point x="122" y="0"/>
      <point x="149" y="19"/>
      <point x="160" y="40" type="curve"/>
      <point x="165" y="40" type="line"/>
      <point x="188" y="19"/>
      <point x="242" y="-10"/>
    </contour>
  </outline>
</glyph>
<glyph name="jiim-adlam.fina" format="2">
  <advance width="832"/>
  <anchor x="419" y="0" name="bottom"/>
  <anchor x="423" y="566" name="gemconsonanttop"/>
  <anchor x="425" y="566" name="top"/>
  <outline>
    <contour>
      <point x="100" y="0" type="line"/>
      <point x="188" y="0" type="line"/>
      <point x="188" y="389" type="line" smooth="yes"/>
      <point x="188" y="480"/>
      <point x="222" y="511"/>
      <point x="282" y="511" type="curve" smooth="yes"/>
      <point x="339" y="511"/>
      <point x="372" y="475"/>
      <point x="372" y="389" type="curve" smooth="yes"/>
      <point x="372" y="0" type="line"/>
      <point x="460" y="0" type="line"/>
      <point x="460" y="371" type="line" smooth="yes"/>
      <point x="460" y="451"/>
      <point x="501" y="488"/>
      <point x="562" y="488" type="curve" smooth="yes"/>
      <point x="614" y="488"/>
      <point x="644" y="456"/>
      <point x="644" y="365" type="curve" smooth="yes"/>
      <point x="644" y="118" type="line" smooth="yes"/>
      <point x="644" y="32"/>
      <point x="662" y="0"/>
      <point x="757" y="0" type="curve" smooth="yes"/>
      <point x="832" y="0" type="line" smooth="yes"/>
      <point x="862" y="0"/>
      <point x="872" y="12"/>
      <point x="872" y="48" type="curve" smooth="yes"/>
      <point x="872" y="74" type="line"/>
      <point x="782" y="74" type="line" smooth="yes"/>
      <point x="741" y="74"/>
      <point x="732" y="90"/>
      <point x="732" y="132" type="curve" smooth="yes"/>
      <point x="732" y="364" type="line" smooth="yes"/>
      <point x="732" y="523"/>
      <point x="671" y="562"/>
      <point x="578" y="562" type="curve" smooth="yes"/>
      <point x="496" y="562"/>
      <point x="461" y="522"/>
      <point x="448" y="500" type="curve"/>
      <point x="443" y="500" type="line"/>
      <point x="432" y="527"/>
      <point x="404" y="585"/>
      <point x="282" y="585" type="curve" smooth="yes"/>
      <point x="159" y="585"/>
      <point x="100" y="527"/>
      <point x="100" y="377" type="curve" smooth="yes"/>
    </contour>
  </outline>
</glyph>
<glyph name="jiim-adlam.isol" format="2">
  <advance width="832"/>
  <anchor x="419" y="0" name="bottom"/>
  <anchor x="423" y="566" name="gemconsonanttop"/>
  <anchor x="425" y="566" name="top"/>
  <outline>
    <contour>
      <point x="644" y="-140" type="line"/>
      <point x="732" y="-140" type="line"/>
      <point x="732" y="364" type="line" smooth="yes"/>
      <point x="732" y="523"/>
      <point x="671" y="562"/>
      <point x="578" y="562" type="curve" smooth="yes"/>
      <point x="496" y="562"/>
      <point x="461" y="522"/>
      <point x="448" y="500" type="curve"/>
      <point x="443" y="500" type="line"/>
      <point x="432" y="527"/>
      <point x="404" y="585"/>
      <point x="282" y="585" type="curve" smooth="yes"/>
      <point x="159" y="585"/>
      <point x="100" y="527"/>
      <point x="100" y="377" type="curve" smooth="yes"/>
      <point x="100" y="0" type="line"/>
      <point x="188" y="0" type="line"/>
      <point x="188" y="389" type="line" smooth="yes"/>
      <point x="188" y="480"/>
      <point x="222" y="511"/>
      <point x="282" y="511" type="curve" smooth="yes"/>
      <point x="339" y="511"/>
      <point x="372" y="475"/>
      <point x="372" y="389" type="curve" smooth="yes"/>
      <point x="372" y="0" type="line"/>
      <point x="460" y="0" type="line"/>
      <point x="460" y="371" type="line" smooth="yes"/>
      <point x="460" y="451"/>
      <point x="501" y="488"/>
      <point x="562" y="488" type="curve" smooth="yes"/>
      <point x="614" y="488"/>
      <point x="644" y="456"/>
      <point x="644" y="365" type="curve" smooth="yes"/>
    </contour>
  </outline>
</glyph>
<glyph name="kaf-adlam.medi" format="2">
  <advance width="644"/>
  <anchor x="287" y="565" name="top"/>
  <outline>
    <contour>
      <point x="0" y="0" type="curve" smooth="yes"/>
      <point x="176" y="0" type="line" smooth="yes"/>
      <point x="279" y="0"/>
      <point x="291" y="27"/>
      <point x="291" y="119" type="curve" smooth="yes"/>
      <point x="291" y="257" type="line"/>
      <point x="446" y="257" type="line"/>
      <point x="446" y="118" type="line" smooth="yes"/>
      <point x="446" y="32"/>
      <point x="464" y="0"/>
      <point x="559" y="0" type="curve" smooth="yes"/>
      <point x="644" y="0" type="line" smooth="yes"/>
      <point x="674" y="0"/>
      <point x="684" y="12"/>
      <point x="684" y="48" type="curve" smooth="yes"/>
      <point x="684" y="74" type="line"/>
      <point x="584" y="74" type="line" smooth="yes"/>
      <point x="543" y="74"/>
      <point x="534" y="90"/>
      <point x="534" y="132" type="curve" smooth="yes"/>
      <point x="534" y="456" type="line" smooth="yes"/>
      <point x="534" y="548"/>
      <point x="519" y="575"/>
      <point x="426" y="575" type="curve" smooth="yes"/>
      <point x="50" y="575" type="line"/>
      <point x="50" y="501" type="line"/>
      <point x="382" y="501" type="line" smooth="yes"/>
      <point x="438" y="501"/>
      <point x="446" y="489"/>
      <point x="446" y="435" type="curve" smooth="yes"/>
      <point x="446" y="331" type="line"/>
      <point x="291" y="331" type="line"/>
      <point x="291" y="425" type="line"/>
      <point x="203" y="425" type="line"/>
      <point x="203" y="331" type="line"/>
      <point x="86" y="331" type="line"/>
      <point x="86" y="257" type="line"/>
      <point x="203" y="257" type="line"/>
      <point x="203" y="140" type="line" smooth="yes"/>
      <point x="203" y="86"/>
      <point x="196" y="74"/>
      <point x="140" y="74" type="curve" smooth="yes"/>
      <point x="-40" y="74" type="line"/>
      <point x="-40" y="48" type="line" smooth="yes"/>
      <point x="-40" y="12"/>
      <point x="-30" y="0"/>
    </contour>
  </outline>
</glyph>
<glyph name="kha-adlam.init" format="2">
  <advance width="647"/>
  <anchor x="350" y="565" name="top"/>
  <outline>
    <contour>
      <point x="0" y="0" type="curve" smooth="yes"/>
      <point x="85" y="0" type="line" smooth="yes"/>
      <point x="180" y="0"/>
      <point x="198" y="32"/>
      <point x="198" y="118" type="curve" smooth="yes"/>
      <point x="198" y="257" type="line"/>
      <point x="353" y="257" type="line"/>
      <point x="353" y="119" type="line" smooth="yes"/>
      <point x="353" y="27"/>
      <point x="365" y="0"/>
      <point x="468" y="0" type="curve" smooth="yes"/>
      <point x="592" y="0" type="line"/>
      <point x="592" y="74" type="line"/>
      <point x="504" y="74" type="line" smooth="yes"/>
      <point x="448" y="74"/>
      <point x="441" y="86"/>
      <point x="441" y="140" type="curve" smooth="yes"/>
      <point x="441" y="257" type="line"/>
      <point x="558" y="257" type="line"/>
      <point x="558" y="331" type="line"/>
      <point x="441" y="331" type="line"/>
      <point x="441" y="440" type="line"/>
      <point x="353" y="440" type="line"/>
      <point x="353" y="331" type="line"/>
      <point x="198" y="331" type="line"/>
      <point x="198" y="436" type="line" smooth="yes"/>
      <point x="198" y="489"/>
      <point x="206" y="501"/>
      <point x="262" y="501" type="curve" smooth="yes"/>
      <point x="587" y="501" type="line"/>
      <point x="587" y="575" type="line"/>
      <point x="218" y="575" type="line" smooth="yes"/>
      <point x="125" y="575"/>
      <point x="110" y="548"/>
      <point x="110" y="456" type="curve" smooth="yes"/>
      <point x="110" y="132" type="line" smooth="yes"/>
      <point x="110" y="90"/>
      <point x="101" y="74"/>
      <point x="60" y="74" type="curve" smooth="yes"/>
      <point x="-40" y="74" type="line"/>
      <point x="-40" y="48" type="line" smooth="yes"/>
      <point x="-40" y="12"/>
      <point x="-30" y="0"/>
    </contour>
  </outline>
</glyph>
<glyph name="kha-adlam.isol" format="2">
  <advance width="647"/>
  <anchor x="350" y="565" name="top"/>
  <outline>
    <contour>
      <point x="110" y="0" type="line"/>
      <point x="198" y="0" type="line"/>
      <point x="198" y="257" type="line"/>
      <point x="353" y="257" type="line"/>
      <point x="353" y="119" type="line" smooth="yes"/>
      <point x="353" y="27"/>
      <point x="365" y="0"/>
      <point x="468" y="0" type="curve" smooth="yes"/>
      <point x="592" y="0" type="line"/>
      <point x="592" y="74" type="line"/>
      <point x="504" y="74" type="line" smooth="yes"/>
      <point x="448" y="74"/>
      <point x="441" y="86"/>
      <point x="441" y="140" type="curve" smooth="yes"/>
      <point x="441" y="257" type="line"/>
      <point x="558" y="257" type="line"/>
      <point x="558" y="331" type="line"/>
      <point x="441" y="331" type="line"/>
      <point x="441" y="440" type="line"/>
      <point x="353" y="440" type="line"/>
      <point x="353" y="331" type="line"/>
      <point x="198" y="331" type="line"/>
      <point x="198" y="435" type="line" smooth="yes"/>
      <point x="198" y="489"/>
      <point x="206" y="501"/>
      <point x="262" y="501" type="curve" smooth="yes"/>
      <point x="587" y="501" type="line"/>
      <point x="587" y="575" type="line"/>
      <point x="218" y="575" type="line" smooth="yes"/>
      <point x="125" y="575"/>
      <point x="110" y="548"/>
      <point x="110" y="456" type="curve" smooth="yes"/>
    </contour>
  </outline>
</glyph>
<glyph name="kpo-adlam.init" format="2">
  <advance width="633"/>
  <anchor x="343" y="562" name="top"/>
  <outline>
    <contour>
      <point x="0" y="0" type="curve" smooth="yes"/>
      <point x="45" y="0" type="line" smooth="yes"/>
      <point x="86" y="0"/>
      <point x="100" y="12"/>
      <point x="110" y="37" type="curve"/>
      <point x="116" y="37" type="line"/>
      <point x="127" y="12"/>
      <point x="146" y="0"/>
      <point x="202" y="0" type="curve" smooth="yes"/>
      <point x="540" y="0" type="line"/>
      <point x="540" y="74" type="line"/>
      <point x="245" y="74" type="line" smooth="yes"/>
      <point x="204" y="74"/>
      <point x="195" y="90"/>
      <point x="195" y="132" type="curve" smooth="yes"/>
      <point x="195" y="416" type="line"/>
      <point x="207" y="451"/>
      <point x="258" y="511"/>
      <point x="347" y="511" type="curve" smooth="yes"/>
      <point x="424" y="511"/>
      <point x="465" y="465"/>
      <point x="465" y="381" type="curve" smooth="yes"/>
      <point x="465" y="287"/>
      <point x="406" y="252"/>
      <point x="352" y="252" type="curve" smooth="yes"/>
      <point x="311" y="252"/>
      <point x="281" y="270"/>
      <point x="272" y="278" type="curve"/>
      <point x="236" y="214" type="line"/>
      <point x="247" y="203"/>
      <point x="283" y="178"/>
      <point x="352" y="178" type="curve" smooth="yes"/>
      <point x="455" y="178"/>
      <point x="556" y="232"/>
      <point x="556" y="384" type="curve" smooth="yes"/>
      <point x="556" y="528"/>
      <point x="468" y="585"/>
      <point x="362" y="585" type="curve" smooth="yes"/>
      <point x="258" y="585"/>
      <point x="217" y="533"/>
      <point x="200" y="508" type="curve"/>
      <point x="195" y="510" type="line"/>
      <point x="195" y="575" type="line"/>
      <point x="107" y="575" type="line"/>
      <point x="107" y="132" type="line" smooth="yes"/>
      <point x="107" y="90"/>
      <point x="98" y="74"/>
      <point x="57" y="74" type="curve" smooth="yes"/>
      <point x="-40" y="74" type="line"/>
      <point x="-40" y="48" type="line" smooth="yes"/>
      <point x="-40" y="12"/>
      <point x="-30" y="0"/>
    </contour>
  </outline>
</glyph>
<glyph name="laam-adlam.fina" format="2">
  <advance width="606"/>
  <anchor x="281" y="565" name="top"/>
  <outline>
    <contour>
      <point x="71" y="0" type="line"/>
      <point x="394" y="0" type="line" smooth="yes"/>
      <point x="450" y="0"/>
      <point x="469" y="12"/>
      <point x="480" y="37" type="curve"/>
      <point x="486" y="37" type="line"/>
      <point x="496" y="12"/>
      <point x="510" y="0"/>
      <point x="551" y="0" type="curve" smooth="yes"/>
      <point x="606" y="0" type="line" smooth="yes"/>
      <point x="636" y="0"/>
      <point x="646" y="12"/>
      <point x="646" y="48" type="curve" smooth="yes"/>
      <point x="646" y="74" type="line"/>
      <point x="546" y="74" type="line" smooth="yes"/>
      <point x="505" y="74"/>
      <point x="496" y="90"/>
      <point x="496" y="132" type="curve" smooth="yes"/>
      <point x="496" y="410" type="line" smooth="yes"/>
      <point x="496" y="533"/>
      <point x="434" y="585"/>
      <point x="308" y="585" type="curve" smooth="yes"/>
      <point x="158" y="585"/>
      <point x="90" y="501"/>
      <point x="70" y="465" type="curve"/>
      <point x="70" y="288" type="line"/>
      <point x="158" y="288" type="line"/>
      <point x="158" y="444" type="line"/>
      <point x="171" y="464"/>
      <point x="217" y="511"/>
      <point x="307" y="511" type="curve" smooth="yes"/>
      <point x="380" y="511"/>
      <point x="408" y="477"/>
      <point x="408" y="398" type="curve" smooth="yes"/>
      <point x="408" y="140" type="line" smooth="yes"/>
      <point x="408" y="86"/>
      <point x="401" y="74"/>
      <point x="345" y="74" type="curve" smooth="yes"/>
      <point x="71" y="74" type="line"/>
    </contour>
  </outline>
</glyph>
<glyph name="laam-adlam.init" format="2">
  <advance width="616"/>
  <anchor x="291" y="565" name="top"/>
  <outline>
    <contour>
      <point x="0" y="0" type="curve" smooth="yes"/>
      <point x="390" y="0" type="line" smooth="yes"/>
      <point x="494" y="0"/>
      <point x="506" y="27"/>
      <point x="506" y="119" type="curve" smooth="yes"/>
      <point x="506" y="410" type="line" smooth="yes"/>
      <point x="506" y="533"/>
      <point x="444" y="585"/>
      <point x="318" y="585" type="curve" smooth="yes"/>
      <point x="168" y="585"/>
      <point x="100" y="501"/>
      <point x="80" y="465" type="curve"/>
      <point x="80" y="288" type="line"/>
      <point x="168" y="288" type="line"/>
      <point x="168" y="444" type="line"/>
      <point x="181" y="464"/>
      <point x="227" y="511"/>
      <point x="317" y="511" type="curve" smooth="yes"/>
      <point x="390" y="511"/>
      <point x="418" y="477"/>
      <point x="418" y="398" type="curve" smooth="yes"/>
      <point x="418" y="140" type="line" smooth="yes"/>
      <point x="418" y="86"/>
      <point x="411" y="74"/>
      <point x="355" y="74" type="curve" smooth="yes"/>
      <point x="-40" y="74" type="line"/>
      <point x="-40" y="48" type="line" smooth="yes"/>
      <point x="-40" y="12"/>
      <point x="-30" y="0"/>
    </contour>
  </outline>
</glyph>
<glyph name="laam-adlam.medi" format="2">
  <advance width="616"/>
  <anchor x="291" y="565" name="top"/>
  <outline>
    <contour>
      <point x="0" y="0" type="curve" smooth="yes"/>
      <point x="404" y="0" type="line" smooth="yes"/>
      <point x="460" y="0"/>
      <point x="479" y="12"/>
      <point x="490" y="37" type="curve"/>
      <point x="496" y="37" type="line"/>
      <point x="506" y="12"/>
      <point x="520" y="0"/>
      <point x="561" y="0" type="curve" smooth="yes"/>
      <point x="616" y="0" type="line" smooth="yes"/>
      <point x="646" y="0"/>
      <point x="656" y="12"/>
      <point x="656" y="48" type="curve" smooth="yes"/>
      <point x="656" y="74" type="line"/>
      <point x="556" y="74" type="line" smooth="yes"/>
      <point x="515" y="74"/>
      <point x="506" y="90"/>
      <point x="506" y="132" type="curve" smooth="yes"/>
      <point x="506" y="410" type="line" smooth="yes"/>
      <point x="506" y="533"/>
      <point x="444" y="585"/>
      <point x="318" y="585" type="curve" smooth="yes"/>
      <point x="168" y="585"/>
      <point x="100" y="501"/>
      <point x="80" y="465" type="curve"/>
      <point x="80" y="288" type="line"/>
      <point x="168" y="288" type="line"/>
      <point x="168" y="444" type="line"/>
      <point x="181" y="464"/>
      <point x="227" y="511"/>
      <point x="317" y="511" type="curve" smooth="yes"/>
      <point x="390" y="511"/>
      <point x="418" y="477"/>
      <point x="418" y="398" type="curve" smooth="yes"/>
      <point x="418" y="140" type="line" smooth="yes"/>
      <point x="418" y="86"/>
      <point x="411" y="74"/>
      <point x="355" y="74" type="curve" smooth="yes"/>
      <point x="-40" y="74" type="line"/>
      <point x="-40" y="48" type="line" smooth="yes"/>
      <point x="-40" y="12"/>
      <point x="-30" y="0"/>
    </contour>
  </outline>
</glyph>
<glyph name="left_connector" format="2">
  <advance width="580"/>
  <outline>
    <contour>
      <point x="100" y="0" type="line"/>
      <point x="367" y="0" type="line" smooth="yes"/>
      <point x="462" y="0"/>
      <point x="480" y="32"/>
      <point x="480" y="118" type="curve" smooth="yes"/>
      <point x="480" y="575" type="line"/>
      <point x="392" y="575" type="line"/>
      <point x="392" y="132" type="line" smooth="yes"/>
      <point x="392" y="90"/>
      <point x="383" y="74"/>
      <point x="342" y="74" type="curve" smooth="yes"/>
      <point x="100" y="74" type="line"/>
    </contour>
  </outline>
</glyph>
<glyph name="miim-adlam.fina" format="2">
  <advance width="588"/>
  <anchor x="282" y="562" name="top"/>
  <outline>
    <contour>
      <point x="53" y="0" type="line"/>
      <point x="376" y="0" type="line" smooth="yes"/>
      <point x="432" y="0"/>
      <point x="451" y="12"/>
      <point x="462" y="37" type="curve"/>
      <point x="468" y="37" type="line"/>
      <point x="478" y="12"/>
      <point x="492" y="0"/>
      <point x="533" y="0" type="curve" smooth="yes"/>
      <point x="588" y="0" type="line" smooth="yes"/>
      <point x="618" y="0"/>
      <point x="628" y="12"/>
      <point x="628" y="48" type="curve" smooth="yes"/>
      <point x="628" y="74" type="line"/>
      <point x="538" y="74" type="line" smooth="yes"/>
      <point x="497" y="74"/>
      <point x="488" y="90"/>
      <point x="488" y="132" type="curve" smooth="yes"/>
      <point x="488" y="408" type="line" smooth="yes"/>
      <point x="488" y="540"/>
      <point x="418" y="585"/>
      <point x="279" y="585" type="curve" smooth="yes"/>
      <point x="133" y="585"/>
      <point x="50" y="526"/>
      <point x="50" y="407" type="curve" smooth="yes"/>
      <point x="50" y="287"/>
      <point x="125" y="255"/>
      <point x="240" y="235" type="curve" smooth="yes"/>
      <point x="357" y="215"/>
      <point x="400" y="200"/>
      <point x="400" y="122" type="curve" smooth="yes"/>
      <point x="400" y="86"/>
      <point x="393" y="74"/>
      <point x="337" y="74" type="curve" smooth="yes"/>
      <point x="53" y="74" type="line"/>
    </contour>
    <contour>
      <point x="395" y="251" type="line"/>
      <point x="378" y="273"/>
      <point x="350" y="290"/>
      <point x="261" y="306" type="curve" smooth="yes"/>
      <point x="172" y="322"/>
      <point x="141" y="345"/>
      <point x="141" y="408" type="curve" smooth="yes"/>
      <point x="141" y="481"/>
      <point x="185" y="511"/>
      <point x="273" y="511" type="curve" smooth="yes"/>
      <point x="354" y="511"/>
      <point x="400" y="483"/>
      <point x="400" y="398" type="curve" smooth="yes"/>
      <point x="400" y="252" type="line"/>
    </contour>
  </outline>
</glyph>
<glyph name="nha-adlam.isol" format="2">
  <advance width="630"/>
  <anchor x="333" y="563" name="top"/>
  <outline>
    <contour>
      <point x="190" y="-53" type="curve"/>
      <point x="221" y="19" type="line"/>
      <point x="180" y="33"/>
      <point x="136" y="55"/>
      <point x="136" y="128" type="curve" smooth="yes"/>
      <point x="136" y="213"/>
      <point x="186" y="240"/>
      <point x="287" y="264" type="curve"/>
      <point x="287" y="113" type="line" smooth="yes"/>
      <point x="287" y="26"/>
      <point x="323" y="0"/>
      <point x="407" y="0" type="curve" smooth="yes"/>
      <point x="569" y="0" type="line"/>
      <point x="569" y="74" type="line"/>
      <point x="428" y="74" type="line" smooth="yes"/>
      <point x="387" y="74"/>
      <point x="372" y="88"/>
      <point x="372" y="132" type="curve" smooth="yes"/>
      <point x="372" y="275" type="line"/>
      <point x="500" y="300"/>
      <point x="575" y="332"/>
      <point x="575" y="439" type="curve" smooth="yes"/>
      <point x="575" y="550"/>
      <point x="493" y="585"/>
      <point x="332" y="585" type="curve" smooth="yes"/>
      <point x="168" y="585"/>
      <point x="128" y="549"/>
      <point x="103" y="520" type="curve"/>
      <point x="153" y="471" type="line"/>
      <point x="174" y="497"/>
      <point x="219" y="513"/>
      <point x="287" y="513" type="curve"/>
      <point x="287" y="335" type="line"/>
      <point x="137" y="306"/>
      <point x="45" y="247"/>
      <point x="45" y="122" type="curve" smooth="yes"/>
      <point x="45" y="4"/>
      <point x="139" y="-40"/>
    </contour>
    <contour>
      <point x="372" y="346" type="curve"/>
      <point x="372" y="513" type="line"/>
      <point x="437" y="513"/>
      <point x="484" y="498"/>
      <point x="484" y="435" type="curve" smooth="yes"/>
      <point x="484" y="387"/>
      <point x="469" y="365"/>
    </contour>
  </outline>
</glyph>
<glyph name="nun-adlam.init" format="2">
  <advance width="519"/>
  <anchor x="268" y="565" name="top"/>
  <outline>
    <contour>
      <point x="0" y="0" type="curve" smooth="yes"/>
      <point x="30" y="0" type="line" smooth="yes"/>
      <point x="74" y="0"/>
      <point x="90" y="23"/>
      <point x="96" y="40" type="curve"/>
      <point x="101" y="40" type="line"/>
      <point x="113" y="29"/>
      <point x="149" y="0"/>
      <point x="246" y="0" type="curve" smooth="yes"/>
      <point x="444" y="0" type="line"/>
      <point x="444" y="74" type="line"/>
      <point x="247" y="74" type="line" smooth="yes"/>
      <point x="179" y="74"/>
      <point x="146" y="98"/>
      <point x="146" y="163" type="curve" smooth="yes"/>
      <point x="146" y="225"/>
      <point x="185" y="250"/>
      <point x="289" y="275" type="curve" smooth="yes"/>
      <point x="393" y="300"/>
      <point x="464" y="327"/>
      <point x="464" y="435" type="curve" smooth="yes"/>
      <point x="464" y="530"/>
      <point x="407" y="585"/>
      <point x="248" y="585" type="curve" smooth="yes"/>
      <point x="171" y="585"/>
      <point x="115" y="570"/>
      <point x="93" y="560" type="curve"/>
      <point x="116" y="489" type="line"/>
      <point x="136" y="498"/>
      <point x="185" y="511"/>
      <point x="248" y="511" type="curve" smooth="yes"/>
      <point x="345" y="511"/>
      <point x="373" y="476"/>
      <point x="373" y="433" type="curve" smooth="yes"/>
      <point x="373" y="379"/>
      <point x="337" y="364"/>
      <point x="243" y="341" type="curve" smooth="yes"/>
      <point x="119" y="311"/>
      <point x="55" y="271"/>
      <point x="55" y="161" type="curve" smooth="yes"/>
      <point x="55" y="132" type="line" smooth="yes"/>
      <point x="55" y="90"/>
      <point x="46" y="74"/>
      <point x="5" y="74" type="curve" smooth="yes"/>
      <point x="-40" y="74" type="line"/>
      <point x="-40" y="48" type="line" smooth="yes"/>
      <point x="-40" y="12"/>
      <point x="-30" y="0"/>
    </contour>
  </outline>
</glyph>
<glyph name="nya-adlam.fina" format="2">
  <advance width="615"/>
  <anchor x="329" y="565" name="top"/>
  <outline>
    <contour>
      <point x="267" y="0" type="curve" smooth="yes"/>
      <point x="388" y="0" type="line"/>
      <point x="388" y="74" type="line"/>
      <point x="278" y="74" type="line" smooth="yes"/>
      <point x="200" y="74"/>
      <point x="161" y="89"/>
      <point x="161" y="162" type="curve" smooth="yes"/>
      <point x="161" y="238"/>
      <point x="210" y="279"/>
      <point x="258" y="294" type="curve"/>
      <point x="272" y="291"/>
      <point x="279" y="289"/>
      <point x="304" y="283" type="curve" smooth="yes"/>
      <point x="411" y="257"/>
      <point x="462" y="238"/>
      <point x="462" y="123" type="curve" smooth="yes"/>
      <point x="462" y="109" type="line" smooth="yes"/>
      <point x="462" y="32"/>
      <point x="480" y="0"/>
      <point x="575" y="0" type="curve" smooth="yes"/>
      <point x="615" y="0" type="line" smooth="yes"/>
      <point x="645" y="0"/>
      <point x="655" y="12"/>
      <point x="655" y="48" type="curve" smooth="yes"/>
      <point x="655" y="74" type="line"/>
      <point x="600" y="74" type="line" smooth="yes"/>
      <point x="559" y="74"/>
      <point x="550" y="90"/>
      <point x="550" y="121" type="curve" smooth="yes"/>
      <point x="550" y="138" type="line" smooth="yes"/>
      <point x="550" y="292"/>
      <point x="459" y="322"/>
      <point x="335" y="354" type="curve" smooth="yes"/>
      <point x="214" y="385"/>
      <point x="188" y="395"/>
      <point x="188" y="439" type="curve" smooth="yes"/>
      <point x="188" y="485"/>
      <point x="218" y="506"/>
      <point x="327" y="506" type="curve" smooth="yes"/>
      <point x="442" y="506"/>
      <point x="479" y="478"/>
      <point x="494" y="461" type="curve"/>
      <point x="543" y="523" type="line"/>
      <point x="528" y="541"/>
      <point x="489" y="580"/>
      <point x="335" y="580" type="curve" smooth="yes"/>
      <point x="168" y="580"/>
      <point x="97" y="538"/>
      <point x="97" y="431" type="curve" smooth="yes"/>
      <point x="97" y="360"/>
      <point x="128" y="330"/>
      <point x="178" y="309" type="curve"/>
      <point x="178" y="304" type="line"/>
      <point x="134" y="287"/>
      <point x="70" y="244"/>
      <point x="70" y="154" type="curve" smooth="yes"/>
      <point x="70" y="48"/>
      <point x="140" y="0"/>
    </contour>
  </outline>
</glyph>
<glyph name="nya-adlam.init" format="2">
  <advance width="615"/>
  <anchor x="329" y="565" name="top"/>
  <outline>
    <contour>
      <point x="462" y="-48" type="line"/>
      <point x="550" y="-48" type="line"/>
      <point x="550" y="138" type="line" smooth="yes"/>
      <point x="550" y="292"/>
      <point x="459" y="322"/>
      <point x="335" y="354" type="curve" smooth="yes"/>
      <point x="214" y="385"/>
      <point x="188" y="395"/>
      <point x="188" y="439" type="curve" smooth="yes"/>
      <point x="188" y="485"/>
      <point x="218" y="506"/>
      <point x="327" y="506" type="curve" smooth="yes"/>
      <point x="442" y="506"/>
      <point x="479" y="478"/>
      <point x="494" y="461" type="curve"/>
      <point x="543" y="523" type="line"/>
      <point x="528" y="541"/>
      <point x="489" y="580"/>
      <point x="335" y="580" type="curve" smooth="yes"/>
      <point x="168" y="580"/>
      <point x="97" y="538"/>
      <point x="97" y="431" type="curve" smooth="yes"/>
      <point x="97" y="360"/>
      <point x="128" y="330"/>
      <point x="178" y="309" type="curve"/>
      <point x="178" y="304" type="line"/>
      <point x="134" y="287"/>
      <point x="70" y="244"/>
      <point x="70" y="154" type="curve" smooth="yes"/>
      <point x="70" y="122"/>
      <point x="76" y="96"/>
      <point x="89" y="74" type="curve"/>
      <point x="-40" y="74" type="line"/>
      <point x="-40" y="48" type="line" smooth="yes"/>
      <point x="-40" y="12"/>
      <point x="-30" y="0"/>
      <point x="0" y="0" type="curve" smooth="yes"/>
      <point x="388" y="0" type="line"/>
      <point x="388" y="74" type="line"/>
      <point x="278" y="74" type="line" smooth="yes"/>
      <point x="200" y="74"/>
      <point x="161" y="89"/>
      <point x="161" y="162" type="curve" smooth="yes"/>
      <point x="161" y="238"/>
      <point x="210" y="279"/>
      <point x="258" y="294" type="curve"/>
      <point x="272" y="291"/>
      <point x="279" y="289"/>
      <point x="304" y="283" type="curve" smooth="yes"/>
      <point x="411" y="257"/>
      <point x="462" y="238"/>
      <point x="462" y="123" type="curve" smooth="yes"/>
    </contour>
  </outline>
</glyph>
<glyph name="o-adlam.init" format="2">
  <advance width="621"/>
  <anchor x="332" y="0" name="bottom"/>
  <anchor x="342" y="565" name="top"/>
  <outline>
    <contour>
      <point x="0" y="0" type="curve" smooth="yes"/>
      <point x="554" y="0" type="line"/>
      <point x="554" y="74" type="line"/>
      <point x="398" y="74" type="line" smooth="yes"/>
      <point x="284" y="74"/>
      <point x="161" y="106"/>
      <point x="161" y="295" type="curve" smooth="yes"/>
      <point x="161" y="446"/>
      <point x="232" y="511"/>
      <point x="327" y="511" type="curve" smooth="yes"/>
      <point x="419" y="511"/>
      <point x="464" y="434"/>
      <point x="481" y="397" type="curve"/>
      <point x="561" y="439" type="line"/>
      <point x="535" y="498"/>
      <point x="481" y="585"/>
      <point x="327" y="585" type="curve" smooth="yes"/>
      <point x="184" y="585"/>
      <point x="70" y="505"/>
      <point x="70" y="290" type="curve" smooth="yes"/>
      <point x="70" y="158"/>
      <point x="114" y="102"/>
      <point x="140" y="79" type="curve"/>
      <point x="139" y="74" type="line"/>
      <point x="-40" y="74" type="line"/>
      <point x="-40" y="48" type="line" smooth="yes"/>
      <point x="-40" y="12"/>
      <point x="-30" y="0"/>
    </contour>
  </outline>
</glyph>
<glyph name="o-adlam.medi" format="2">
  <advance width="674"/>
  <anchor x="331" y="0" name="bottom"/>
  <anchor x="332" y="562" name="top"/>
  <outline>
    <contour>
      <point x="477" y="-81" type="line"/>
      <point x="499" y="-55"/>
      <point x="535" y="0"/>
      <point x="549" y="40" type="curve"/>
      <point x="554" y="40" type="line"/>
      <point x="559" y="23"/>
      <point x="578" y="0"/>
      <point x="627" y="0" type="curve" smooth="yes"/>
      <point x="674" y="0" type="line" smooth="yes"/>
      <point x="704" y="0"/>
      <point x="714" y="12"/>
      <point x="714" y="48" type="curve" smooth="yes"/>
      <point x="714" y="74" type="line"/>
      <point x="642" y="74" type="line" smooth="yes"/>
      <point x="601" y="74"/>
      <point x="582" y="90"/>
      <point x="582" y="132" type="curve" smooth="yes"/>
      <point x="582" y="173"/>
      <point x="592" y="214"/>
      <point x="592" y="279" type="curve" smooth="yes"/>
      <point x="592" y="505"/>
      <point x="469" y="585"/>
      <point x="332" y="585" type="curve" smooth="yes"/>
      <point x="183" y="585"/>
      <point x="70" y="505"/>
      <point x="70" y="279" type="curve" smooth="yes"/>
      <point x="70" y="156"/>
      <point x="108" y="100"/>
      <point x="129" y="79" type="curve"/>
      <point x="128" y="74" type="line"/>
      <point x="-40" y="74" type="line"/>
      <point x="-40" y="48" type="line" smooth="yes"/>
      <point x="-40" y="12"/>
      <point x="-30" y="0"/>
      <point x="0" y="0" type="curve" smooth="yes"/>
      <point x="366" y="0" type="line"/>
      <point x="366" y="74" type="line"/>
      <point x="322" y="74" type="line" smooth="yes"/>
      <point x="232" y="74"/>
      <point x="161" y="127"/>
      <point x="161" y="284" type="curve" smooth="yes"/>
      <point x="161" y="446"/>
      <point x="230" y="511"/>
      <point x="332" y="511" type="curve" smooth="yes"/>
      <point x="422" y="511"/>
      <point x="501" y="436"/>
      <point x="501" y="279" type="curve" smooth="yes"/>
      <point x="501" y="107"/>
      <point x="446" y="10"/>
      <point x="407" y="-38" type="curve"/>
    </contour>
  </outline>
</glyph>
<glyph name="pe-adlam.init" format="2">
  <advance width="549"/>
  <anchor x="290" y="565" name="top"/>
  <outline>
    <contour>
      <point x="0" y="0" type="curve" smooth="yes"/>
      <point x="45" y="0" type="line" smooth="yes"/>
      <point x="86" y="0"/>
      <point x="100" y="12"/>
      <point x="110" y="37" type="curve"/>
      <point x="116" y="37" type="line"/>
      <point x="127" y="12"/>
      <point x="146" y="0"/>
      <point x="202" y="0" type="curve" smooth="yes"/>
      <point x="458" y="0" type="line"/>
      <point x="458" y="74" type="line"/>
      <point x="251" y="74" type="line" smooth="yes"/>
      <point x="195" y="74"/>
      <point x="188" y="86"/>
      <point x="188" y="140" type="curve" smooth="yes"/>
      <point x="188" y="503" type="line"/>
      <point x="199" y="507"/>
      <point x="220" y="512"/>
      <point x="249" y="512" type="curve" smooth="yes"/>
      <point x="306" y="512"/>
      <point x="386" y="486"/>
      <point x="386" y="352" type="curve" smooth="yes"/>
      <point x="386" y="263"/>
      <point x="351" y="225"/>
      <point x="308" y="184" type="curve"/>
      <point x="369" y="128" type="line"/>
      <point x="430" y="174"/>
      <point x="474" y="235"/>
      <point x="474" y="352" type="curve" smooth="yes"/>
      <point x="474" y="517"/>
      <point x="386" y="585"/>
      <point x="261" y="585" type="curve" smooth="yes"/>
      <point x="182" y="585"/>
      <point x="127" y="565"/>
      <point x="100" y="551" type="curve"/>
      <point x="100" y="132" type="line" smooth="yes"/>
      <point x="100" y="90"/>
      <point x="91" y="74"/>
      <point x="50" y="74" type="curve" smooth="yes"/>
      <point x="-40" y="74" type="line"/>
      <point x="-40" y="48" type="line" smooth="yes"/>
      <point x="-40" y="12"/>
      <point x="-30" y="0"/>
    </contour>
  </outline>
</glyph>
<glyph name="pe-adlam.isol" format="2">
  <advance width="549"/>
  <anchor x="290" y="565" name="top"/>
  <outline>
    <contour>
      <point x="216" y="0" type="curve" smooth="yes"/>
      <point x="458" y="0" type="line"/>
      <point x="458" y="74" type="line"/>
      <point x="251" y="74" type="line" smooth="yes"/>
      <point x="195" y="74"/>
      <point x="188" y="86"/>
      <point x="188" y="140" type="curve" smooth="yes"/>
      <point x="188" y="503" type="line"/>
      <point x="199" y="507"/>
      <point x="220" y="512"/>
      <point x="249" y="512" type="curve" smooth="yes"/>
      <point x="306" y="512"/>
      <point x="386" y="486"/>
      <point x="386" y="352" type="curve" smooth="yes"/>
      <point x="386" y="263"/>
      <point x="351" y="225"/>
      <point x="308" y="184" type="curve"/>
      <point x="369" y="128" type="line"/>
      <point x="430" y="174"/>
      <point x="474" y="235"/>
      <point x="474" y="352" type="curve" smooth="yes"/>
      <point x="474" y="517"/>
      <point x="386" y="585"/>
      <point x="261" y="585" type="curve" smooth="yes"/>
      <point x="182" y="585"/>
      <point x="127" y="565"/>
      <point x="100" y="551" type="curve"/>
      <point x="100" y="119" type="line" smooth="yes"/>
      <point x="100" y="27"/>
      <point x="112" y="0"/>
    </contour>
  </outline>
</glyph>
<glyph name="qaaf-adlam.fina" format="2">
  <advance width="758"/>
  <anchor x="338" y="620" name="top"/>
  <outline>
    <contour>
      <point x="83" y="0" type="line"/>
      <point x="260" y="0" type="line" smooth="yes"/>
      <point x="371" y="0"/>
      <point x="433" y="35"/>
      <point x="433" y="154" type="curve" smooth="yes"/>
      <point x="433" y="244" type="line"/>
      <point x="471" y="250"/>
      <point x="533" y="265"/>
      <point x="557" y="274" type="curve"/>
      <point x="560" y="272" type="line"/>
      <point x="560" y="118" type="line" smooth="yes"/>
      <point x="560" y="32"/>
      <point x="578" y="0"/>
      <point x="673" y="0" type="curve" smooth="yes"/>
      <point x="758" y="0" type="line" smooth="yes"/>
      <point x="788" y="0"/>
      <point x="798" y="12"/>
      <point x="798" y="48" type="curve" smooth="yes"/>
      <point x="798" y="74" type="line"/>
      <point x="698" y="74" type="line" smooth="yes"/>
      <point x="657" y="74"/>
      <point x="648" y="90"/>
      <point x="648" y="132" type="curve" smooth="yes"/>
      <point x="648" y="714" type="line"/>
      <point x="560" y="714" type="line"/>
      <point x="560" y="350" type="line"/>
      <point x="536" y="340"/>
      <point x="464" y="322"/>
      <point x="433" y="317" type="curve"/>
      <point x="433" y="416" type="line" smooth="yes"/>
      <point x="433" y="542"/>
      <point x="384" y="585"/>
      <point x="270" y="585" type="curve" smooth="yes"/>
      <point x="136" y="585"/>
      <point x="65" y="517"/>
      <point x="65" y="409" type="curve" smooth="yes"/>
      <point x="65" y="307"/>
      <point x="122" y="232"/>
      <point x="310" y="232" type="curve" smooth="yes"/>
      <point x="325" y="232"/>
      <point x="331" y="232"/>
      <point x="345" y="233" type="curve"/>
      <point x="345" y="153" type="line" smooth="yes"/>
      <point x="345" y="91"/>
      <point x="315" y="74"/>
      <point x="260" y="74" type="curve" smooth="yes"/>
      <point x="83" y="74" type="line"/>
    </contour>
    <contour>
      <point x="312" y="306" type="curve" smooth="yes"/>
      <point x="191" y="306"/>
      <point x="149" y="342"/>
      <point x="149" y="409" type="curve" smooth="yes"/>
      <point x="149" y="471"/>
      <point x="194" y="511"/>
      <point x="267" y="511" type="curve" smooth="yes"/>
      <point x="325" y="511"/>
      <point x="345" y="484"/>
      <point x="345" y="416" type="curve" smooth="yes"/>
      <point x="345" y="307" type="line"/>
      <point x="330" y="306"/>
      <point x="324" y="306"/>
    </contour>
  </outline>
</glyph>
<glyph name="ra-adlam.medi" format="2">
  <advance width="649"/>
  <anchor x="357" y="585" name="top"/>
  <outline>
    <contour>
      <point x="0" y="0" type="curve" smooth="yes"/>
      <point x="45" y="0" type="line" smooth="yes"/>
      <point x="86" y="0"/>
      <point x="100" y="12"/>
      <point x="110" y="37" type="curve"/>
      <point x="116" y="37" type="line"/>
      <point x="127" y="12"/>
      <point x="146" y="0"/>
      <point x="202" y="0" type="curve" smooth="yes"/>
      <point x="649" y="0" type="line" smooth="yes"/>
      <point x="679" y="0"/>
      <point x="689" y="12"/>
      <point x="689" y="48" type="curve" smooth="yes"/>
      <point x="689" y="74" type="line"/>
      <point x="261" y="74" type="line" smooth="yes"/>
      <point x="205" y="74"/>
      <point x="198" y="86"/>
      <point x="198" y="140" type="curve" smooth="yes"/>
      <point x="198" y="265" type="line"/>
      <point x="203" y="267" type="line"/>
      <point x="221" y="236"/>
      <point x="271" y="203"/>
      <point x="363" y="203" type="curve" smooth="yes"/>
      <point x="491" y="203"/>
      <point x="574" y="250"/>
      <point x="574" y="414" type="curve" smooth="yes"/>
      <point x="574" y="575" type="line"/>
      <point x="486" y="575" type="line"/>
      <point x="486" y="416" type="line" smooth="yes"/>
      <point x="486" y="307"/>
      <point x="432" y="277"/>
      <point x="357" y="277" type="curve" smooth="yes"/>
      <point x="253" y="277"/>
      <point x="207" y="327"/>
      <point x="198" y="360" type="curve"/>
      <point x="198" y="575" type="line"/>
      <point x="110" y="575" type="line"/>
      <point x="110" y="132" type="line" smooth="yes"/>
      <point x="110" y="90"/>
      <point x="101" y="74"/>
      <point x="60" y="74" type="curve" smooth="yes"/>
      <point x="-40" y="74" type="line"/>
      <point x="-40" y="48" type="line" smooth="yes"/>
      <point x="-40" y="12"/>
      <point x="-30" y="0"/>
    </contour>
  </outline>
</glyph>
<glyph name="right_connector" format="2">
  <advance width="580"/>
  <outline>
    <contour>
      <point x="213" y="0" type="curve" smooth="yes"/>
      <point x="480" y="0" type="line"/>
      <point x="480" y="74" type="line"/>
      <point x="238" y="74" type="line" smooth="yes"/>
      <point x="197" y="74"/>
      <point x="188" y="90"/>
      <point x="188" y="132" type="curve" smooth="yes"/>
      <point x="188" y="575" type="line"/>
      <point x="100" y="575" type="line"/>
      <point x="100" y="118" type="line" smooth="yes"/>
      <point x="100" y="32"/>
      <point x="118" y="0"/>
    </contour>
  </outline>
</glyph>
<glyph name="sha-adlam.fina" format="2">
  <advance width="810"/>
  <anchor x="407" y="0" name="bottom"/>
  <anchor x="407" y="590" name="top"/>
  <outline>
    <contour>
      <point x="270" y="-10" type="curve" smooth="yes"/>
      <point x="400" y="-10"/>
      <point x="447" y="49"/>
      <point x="447" y="181" type="curve" smooth="yes"/>
      <point x="447" y="261" type="line"/>
      <point x="611" y="261" type="line"/>
      <point x="611" y="118" type="line" smooth="yes"/>
      <point x="611" y="32"/>
      <point x="629" y="0"/>
      <point x="724" y="0" type="curve" smooth="yes"/>
      <point x="810" y="0" type="line" smooth="yes"/>
      <point x="840" y="0"/>
      <point x="850" y="12"/>
      <point x="850" y="48" type="curve" smooth="yes"/>
      <point x="850" y="74" type="line"/>
      <point x="749" y="74" type="line" smooth="yes"/>
      <point x="708" y="74"/>
      <point x="699" y="90"/>
      <point x="699" y="132" type="curve" smooth="yes"/>
      <point x="699" y="575" type="line"/>
      <point x="611" y="575" type="line"/>
      <point x="611" y="335" type="line"/>
      <point x="447" y="335" type="line"/>
      <point x="447" y="575" type="line"/>
      <point x="360" y="575" type="line"/>
      <point x="360" y="187" type="line" smooth="yes"/>
      <point x="360" y="96"/>
      <point x="338" y="64"/>
      <point x="274" y="64" type="curve" smooth="yes"/>
      <point x="210" y="64"/>
      <point x="188" y="93"/>
      <point x="188" y="186" type="curve" smooth="yes"/>
      <point x="188" y="666" type="line"/>
      <point x="100" y="666" type="line"/>
      <point x="100" y="179" type="line" smooth="yes"/>
      <point x="100" y="46"/>
      <point x="147" y="-10"/>
    </contour>
  </outline>
</glyph>
<glyph name="sha-adlam.medi" format="2">
  <advance width="810"/>
  <anchor x="407" y="0" name="bottom"/>
  <anchor x="407" y="590" name="top"/>
  <outline>
    <contour>
      <point x="270" y="-10" type="curve" smooth="yes"/>
      <point x="400" y="-10"/>
      <point x="447" y="49"/>
      <point x="447" y="181" type="curve" smooth="yes"/>
      <point x="447" y="261" type="line"/>
      <point x="611" y="261" type="line"/>
      <point x="611" y="118" type="line" smooth="yes"/>
      <point x="611" y="32"/>
      <point x="629" y="0"/>
      <point x="724" y="0" type="curve" smooth="yes"/>
      <point x="810" y="0" type="line" smooth="yes"/>
      <point x="840" y="0"/>
      <point x="850" y="12"/>
      <point x="850" y="48" type="curve" smooth="yes"/>
      <point x="850" y="74" type="line"/>
      <point x="749" y="74" type="line" smooth="yes"/>
      <point x="708" y="74"/>
      <point x="699" y="90"/>
      <point x="699" y="132" type="curve" smooth="yes"/>
      <point x="699" y="575" type="line"/>
      <point x="611" y="575" type="line"/>
      <point x="611" y="335" type="line"/>
      <point x="447" y="335" type="line"/>
      <point x="447" y="575" type="line"/>
      <point x="360" y="575" type="line"/>
      <point x="360" y="187" type="line" smooth="yes"/>
      <point x="360" y="96"/>
      <point x="338" y="64"/>
      <point x="274" y="64" type="curve" smooth="yes"/>
      <point x="210" y="64"/>
      <point x="188" y="93"/>
      <point x="188" y="186" type="curve" smooth="yes"/>
      <point x="188" y="666" type="line"/>
      <point x="100" y="666" type="line"/>
      <point x="100" y="132" type="line" smooth="yes"/>
      <point x="100" y="90"/>
      <point x="91" y="74"/>
      <point x="50" y="74" type="curve" smooth="yes"/>
      <point x="-40" y="74" type="line"/>
      <point x="-40" y="48" type="line" smooth="yes"/>
      <point x="-40" y="12"/>
      <point x="-30" y="0"/>
      <point x="0" y="0" type="curve" smooth="yes"/>
      <point x="57" y="0" type="line" smooth="yes"/>
      <point x="110" y="0"/>
      <point x="125" y="26"/>
      <point x="130" y="40" type="curve"/>
      <point x="135" y="40" type="line"/>
      <point x="146" y="24"/>
      <point x="179" y="-10"/>
    </contour>
  </outline>
</glyph>
<glyph name="va-adlam.init" format="2">
  <advance width="601"/>
  <anchor x="305" y="563" name="top"/>
  <outline>
    <contour>
      <point x="460" y="-14" type="curve"/>
      <point x="536" y="30" type="line"/>
      <point x="522" y="44"/>
      <point x="503" y="71"/>
      <point x="503" y="130" type="curve" smooth="yes"/>
      <point x="503" y="575" type="line"/>
      <point x="415" y="575" type="line"/>
      <point x="415" y="512" type="line"/>
      <point x="410" y="511" type="line"/>
      <point x="398" y="532"/>
      <point x="361" y="585"/>
      <point x="265" y="585" type="curve" smooth="yes"/>
      <point x="180" y="585"/>
      <point x="90" y="548"/>
      <point x="90" y="401" type="curve" smooth="yes"/>
      <point x="90" y="132" type="line" smooth="yes"/>
      <point x="90" y="90"/>
      <point x="81" y="74"/>
      <point x="40" y="74" type="curve" smooth="yes"/>
      <point x="-40" y="74" type="line"/>
      <point x="-40" y="48" type="line" smooth="yes"/>
      <point x="-40" y="12"/>
      <point x="-30" y="0"/>
      <point x="0" y="0" type="curve" smooth="yes"/>
      <point x="65" y="0" type="line" smooth="yes"/>
      <point x="160" y="0"/>
      <point x="178" y="32"/>
      <point x="178" y="118" type="curve" smooth="yes"/>
      <point x="178" y="387" type="line" smooth="yes"/>
      <point x="178" y="478"/>
      <point x="218" y="511"/>
      <point x="284" y="511" type="curve" smooth="yes"/>
      <point x="368" y="511"/>
      <point x="410" y="446"/>
      <point x="415" y="388" type="curve"/>
      <point x="415" y="308" type="line"/>
      <point x="257" y="308" type="line"/>
      <point x="257" y="234" type="line"/>
      <point x="415" y="234" type="line"/>
      <point x="415" y="112" type="line" smooth="yes"/>
      <point x="415" y="33"/>
      <point x="443" y="-2"/>
    </contour>
  </outline>
</glyph>
<glyph name="va-adlam.isol" format="2">
  <advance width="601"/>
  <anchor x="305" y="563" name="top"/>
  <outline>
    <contour>
      <point x="460" y="-14" type="curve"/>
      <point x="536" y="30" type="line"/>
      <point x="522" y="44"/>
      <point x="503" y="71"/>
      <point x="503" y="130" type="curve" smooth="yes"/>
      <point x="503" y="575" type="line"/>
      <point x="415" y="575" type="line"/>
      <point x="415" y="512" type="line"/>
      <point x="410" y="511" type="line"/>
      <point x="398" y="532"/>
      <point x="361" y="585"/>
      <point x="265" y="585" type="curve" smooth="yes"/>
      <point x="180" y="585"/>
      <point x="90" y="548"/>
      <point x="90" y="401" type="curve" smooth="yes"/>
      <point x="90" y="0" type="line"/>
      <point x="178" y="0" type="line"/>
      <point x="178" y="387" type="line" smooth="yes"/>
      <point x="178" y="478"/>
      <point x="218" y="511"/>
      <point x="284" y="511" type="curve" smooth="yes"/>
      <point x="368" y="511"/>
      <point x="410" y="446"/>
      <point x="415" y="388" type="curve"/>
      <point x="415" y="308" type="line"/>
      <point x="257" y="308" type="line"/>
      <point x="257" y="234" type="line"/>
      <point x="415" y="234" type="line"/>
      <point x="415" y="112" type="line" smooth="yes"/>
      <point x="415" y="33"/>
      <point x="443" y="-2"/>
    </contour>
  </outline>
</glyph>
<glyph name="va-adlam.medi" format="2">
  <advance width="601"/>
  <anchor x="305" y="563" name="top"/>
  <outline>
    <contour>
      <point x="0" y="0" type="curve" smooth="yes"/>
      <point x="65" y="0" type="line" smooth="yes"/>
      <point x="160" y="0"/>
      <point x="178" y="32"/>
      <point x="178" y="118" type="curve" smooth="yes"/>
      <point x="178" y="387" type="line" smooth="yes"/>
      <point x="178" y="478"/>
      <point x="218" y="511"/>
      <point x="284" y="511" type="curve" smooth="yes"/>
      <point x="368" y="511"/>
      <point x="410" y="446"/>
      <point x="415" y="388" type="curve"/>
      <point x="415" y="308" type="line"/>
      <point x="257" y="308" type="line"/>
      <point x="257" y="234" type="line"/>
      <point x="415" y="234" type="line"/>
      <point x="415" y="118" type="line" smooth="yes"/>
      <point x="415" y="32"/>
      <point x="433" y="0"/>
      <point x="528" y="0" type="curve" smooth="yes"/>
      <point x="601" y="0" type="line" smooth="yes"/>
      <point x="631" y="0"/>
      <point x="641" y="12"/>
      <point x="641" y="48" type="curve" smooth="yes"/>
      <point x="641" y="74" type="line"/>
      <point x="553" y="74" type="line" smooth="yes"/>
      <point x="512" y="74"/>
      <point x="503" y="90"/>
      <point x="503" y="132" type="curve" smooth="yes"/>
      <point x="503" y="575" type="line"/>
      <point x="415" y="575" type="line"/>
      <point x="415" y="512" type="line"/>
      <point x="410" y="511" type="line"/>
      <point x="398" y="532"/>
      <point x="361" y="585"/>
      <point x="265" y="585" type="curve" smooth="yes"/>
      <point x="180" y="585"/>
      <point x="90" y="548"/>
      <point x="90" y="401" type="curve" smooth="yes"/>
      <point x="90" y="132" type="line" smooth="yes"/>
      <point x="90" y="90"/>
      <point x="81" y="74"/>
      <point x="40" y="74" type="curve" smooth="yes"/>
      <point x="-40" y="74" type="line"/>
      <point x="-40" y="48" type="line" smooth="yes"/>
      <point x="-40" y="12"/>
      <point x="-30" y="0"/>
    </contour>
  </outline>
</glyph>
<glyph name="waw-adlam.medi" format="2">
  <advance width="601"/>
  <anchor x="305" y="568" name="top"/>
  <outline>
    <contour>
      <point x="0" y="0" type="curve" smooth="yes"/>
      <point x="65" y="0" type="line" smooth="yes"/>
      <point x="160" y="0"/>
      <point x="178" y="32"/>
      <point x="178" y="118" type="curve" smooth="yes"/>
      <point x="178" y="235" type="line"/>
      <point x="336" y="235" type="line"/>
      <point x="336" y="309" type="line"/>
      <point x="178" y="309" type="line"/>
      <point x="178" y="387" type="line" smooth="yes"/>
      <point x="178" y="478"/>
      <point x="218" y="511"/>
      <point x="290" y="511" type="curve" smooth="yes"/>
      <point x="368" y="511"/>
      <point x="410" y="441"/>
      <point x="415" y="383" type="curve"/>
      <point x="415" y="118" type="line" smooth="yes"/>
      <point x="415" y="32"/>
      <point x="433" y="0"/>
      <point x="528" y="0" type="curve" smooth="yes"/>
      <point x="601" y="0" type="line" smooth="yes"/>
      <point x="630" y="0"/>
      <point x="640" y="12"/>
      <point x="640" y="48" type="curve" smooth="yes"/>
      <point x="640" y="74" type="line"/>
      <point x="553" y="74" type="line" smooth="yes"/>
      <point x="512" y="74"/>
      <point x="503" y="90"/>
      <point x="503" y="132" type="curve" smooth="yes"/>
      <point x="503" y="575" type="line"/>
      <point x="415" y="575" type="line"/>
      <point x="415" y="512" type="line"/>
      <point x="410" y="511" type="line"/>
      <point x="394" y="539"/>
      <point x="358" y="585"/>
      <point x="274" y="585" type="curve" smooth="yes"/>
      <point x="180" y="585"/>
      <point x="90" y="547"/>
      <point x="90" y="401" type="curve" smooth="yes"/>
      <point x="90" y="132" type="line" smooth="yes"/>
      <point x="90" y="90"/>
      <point x="81" y="74"/>
      <point x="40" y="74" type="curve" smooth="yes"/>
      <point x="-40" y="74" type="line"/>
      <point x="-40" y="48" type="line" smooth="yes"/>
      <point x="-40" y="12"/>
      <point x="-30" y="0"/>
    </contour>
  </outline>
</glyph>
<glyph name="yhe-adlam.fina" format="2">
  <advance width="608"/>
  <anchor x="346" y="565" name="top"/>
  <outline>
    <contour>
      <point x="330" y="0" type="curve" smooth="yes"/>
      <point x="608" y="0" type="line" smooth="yes"/>
      <point x="638" y="0"/>
      <point x="648" y="12"/>
      <point x="648" y="48" type="curve" smooth="yes"/>
      <point x="648" y="74" type="line"/>
      <point x="346" y="74" type="line" smooth="yes"/>
      <point x="214" y="74"/>
      <point x="166" y="138"/>
      <point x="166" y="248" type="curve" smooth="yes"/>
      <point x="166" y="407"/>
      <point x="278" y="495"/>
      <point x="356" y="495" type="curve" smooth="yes"/>
      <point x="433" y="495" type="line" smooth="yes"/>
      <point x="515" y="495"/>
      <point x="566" y="514"/>
      <point x="603" y="555" type="curve"/>
      <point x="561" y="612" type="line"/>
      <point x="541" y="593"/>
      <point x="500" y="568"/>
      <point x="423" y="568" type="curve" smooth="yes"/>
      <point x="126" y="568" type="line"/>
      <point x="126" y="495" type="line"/>
      <point x="214" y="495" type="line"/>
      <point x="215" y="488" type="line"/>
      <point x="158" y="460"/>
      <point x="75" y="385"/>
      <point x="75" y="246" type="curve" smooth="yes"/>
      <point x="75" y="87"/>
      <point x="163" y="0"/>
    </contour>
  </outline>
</glyph>
<glyph name="yhe-adlam.medi" format="2">
  <advance width="608"/>
  <anchor x="346" y="565" name="top"/>
  <outline>
    <contour>
      <point x="0" y="0" type="curve" smooth="yes"/>
      <point x="608" y="0" type="line" smooth="yes"/>
      <point x="638" y="0"/>
      <point x="648" y="12"/>
      <point x="648" y="48" type="curve" smooth="yes"/>
      <point x="648" y="74" type="line"/>
      <point x="346" y="74" type="line" smooth="yes"/>
      <point x="214" y="74"/>
      <point x="166" y="138"/>
      <point x="166" y="248" type="curve" smooth="yes"/>
      <point x="166" y="407"/>
      <point x="278" y="495"/>
      <point x="356" y="495" type="curve" smooth="yes"/>
      <point x="433" y="495" type="line" smooth="yes"/>
      <point x="515" y="495"/>
      <point x="566" y="514"/>
      <point x="603" y="555" type="curve"/>
      <point x="561" y="612" type="line"/>
      <point x="541" y="593"/>
      <point x="500" y="568"/>
      <point x="423" y="568" type="curve" smooth="yes"/>
      <point x="126" y="568" type="line"/>
      <point x="126" y="495" type="line"/>
      <point x="214" y="495" type="line"/>
      <point x="215" y="488" type="line"/>
      <point x="158" y="460"/>
      <point x="75" y="385"/>
      <point x="75" y="246" type="curve" smooth="yes"/>
      <point x="75" y="173"/>
      <point x="94" y="115"/>
      <point x="130" y="74" type="curve"/>
      <point x="-40" y="74" type="line"/>
      <point x="-40" y="48" type="line" smooth="yes"/>
      <point x="-40" y="12"/>
      <point x="-30" y="0"/>
    </contour>
  </outline>
</glyph>
